<svg xmlns="http://www.w3.org/2000/svg" xml:space="preserve" viewBox="5 4.6 240 169.8"><path fill="#fff" d="m245 98-19-45s-11-3-32-7l-9-28S164 5 126 5 66 18 66 18l-9 27L5 56l8 12 1 2-7 26 5 8 28-6v3c-5 16 1 31 15 38l71 35 71-35c14-7 20-22 14-38v-1l31 6 3-8m-4 6-33-7 1 4c5 14 1 30-13 36l-70 35-71-35c-14-6-18-22-13-36l1-5-30 6-4-7 8-26-3-2-6-10s24-6 51-10l8-28S89 7 126 7s58 12 58 12l9 29 31 7 19 43-1 2-1 4z"/><path fill="#fff" d="M139 121h-10l-3-9-3 9h-11l7 5 1 1-3 10 9-6 8 6-3-10 1-1 7-5M108 120l-8-2-3-7-1 6-8-1 7 5-2 7 6-3 6 6-3-8 6-3M163 116l-8 1-1-6-3 7-8 2 6 3-3 8 4-4 2-2 6 3-1-3-1-4 7-5M190 69v-1c2 0 4-2 3-6-2-7-9-10-16-10l-14-2s5 3 6 6l4 24 10 1-3-11h1c3 0 5 1 6 5l5 7 9 2-5-9-6-6m-9-5h-2l-2-7h3l5 4c1 3-1 4-4 3zM153 72v-6l11 1-1-6-11-1-1-5 12 1-1-6-24-2s4 3 5 6l2 23 23 2-1-6-14-1M84 67l1-7-12 1 1-4 12-1 1-7-24 3s4 2 3 5l-6 24 24-3 1-6-14 1 1-5 12-1M213 58l7 18-16-20-14-2s5 3 6 6l8 24 8 2-7-20 19 22 10 2-14-30-7-2M115 54h5v23h10l-1-23 8 1v-7h-26s4 2 4 6M55 53 45 75l3-21-8 2-12 22 5-21-11 3s2 1 2 5l-7 23 12-2 12-22-4 20 13-2 13-30-8 1M97 57c0-2 2-3 6-3l5 1 3-6-8-1c-8 0-14 5-14 11 0 8 13 6 13 10 0 2-3 3-6 3-5 0-8-2-8-2l-2 7 8 1c10 0 17-4 17-10 0-9-14-8-14-11"/><path fill="#E4E5E6" d="M44 110s-3 17 16 26l64 31v-8l-65-29c-15-7-15-20-15-20"/><path fill="#E4E5E6" d="m54 101 2-7h-4l-2 6c-2 8 1 18 9 21l65 29v-4l-63-28c-6-3-9-10-7-17M78 27c5-3 24-9 46-9v-4c-28 0-49 10-49 10l-8 22 5-1 6-18"/><path fill="#E4E5E6" d="m110 24-7 1-2 9-7-8-10 2s3 1 2 2l-3 13 8-2 2-8 7 7 8-1 2-15M123 29v-5h-11s3 1 3 3l-1 12 9-1v-5h8v5l8 1-1-15h-7v5h-8M144 27l2 12 22 4-1-4-14-2-2-12-10-1 3 3M69 109l4-1v-3l-3 1c-2 0-3-2-2-4 0-3 3-4 5-4h2l1-3-3-1c-4 0-8 3-9 8-1 4 0 7 5 7M75 102c-1 4 1 7 5 7s8-3 9-7c0-4-1-8-5-8s-8 4-9 8m10 0c-1 2-2 4-4 4s-3-2-2-4c1-3 2-5 4-5s2 2 2 5zM96 95h-4l-3 14h4l1-9 3 9h4l2-14h-3l-1 8-3-8M114 98v-3h-9l-1 14h4v-6h5v-3h-5l1-2h5M119 103h5v-3h-5v-2h5v-3h-8l-1 14h10v-3h-6v-3M135 102l2-3c0-2-2-4-6-4h-4v14h3v-6h1c1 0 2 1 2 3l1 3h4l-1-4-2-3m-4-1h-1v-4h1c2 0 2 1 2 2s0 2-2 2zM143 106v-3h5l-1-3h-4l-1-2h5v-3h-8l1 14h9v-3h-6M157 95l2 8-6-8h-4l2 14h4l-2-9 6 9h4l-2-14h-4M173 106c-3 0-5-2-5-4-1-3 0-4 3-4h2v-3l-3-1c-4 0-7 3-6 8 1 4 4 7 9 7l3-1-1-3-2 1M187 106h-6v-3h4l-1-3h-4l-1-2h5l-1-3h-8l3 14h10l-1-3"/><path fill="#939BA1" d="m190 118-63 28v4l65-29c8-3 12-13 9-21l-1-4-5-1 2 6c2 7-1 14-7 17M180 46l4 1-8-23s-21-10-49-10v4c22 0 41 6 46 9l7 19"/><path fill="#939BA1" d="m192 130-65 29v8l64-31c19-9 16-26 16-26s0 13-15 20M238 94l-16-37-13-3 3 8-7-8a442 442 0 0 0-98-8l-4-1c-9 0-13 6-13 6v-5c-40 4-74 12-74 12 3 3 6 4 5 6l-8 28 18-4 5-9-2 8 18-3 12-27-7 27 29-3v-1l8 1c12 0 19-5 19-13s-8-10-12-11c0 0 5 0 9 2l1-2h7v22h14l-1-22h9l3 23 43 4-3-11 7 11 26 5-4-11 11 12 15 4M50 82l-13 2 4-20-12 22-12 2 7-23c0-4-2-5-2-5l11-3-5 21 12-22 8-2-3 21 10-22 8-1-13 30zm35-22-1 7-12 1-1 5 14-1-1 6-24 3 6-24c1-3-3-5-3-5l24-3-1 7-12 1-1 4 12-1zm13 9c-5 1-10-1-11-2v-4c3 4 7 5 11 6zm10-14-6-1c-3 0-5 1-5 3 0 3 14 2 14 11 0 6-7 10-17 10l-8-1 2-7 8 2c3 0 6-1 6-3 0-4-13-2-13-10 0-6 6-11 14-11l8 1-3 6zm21-1 1 23h-10V54h-5c0-4-4-6-4-6h26v7l-8-1zm16 23-2-23c-1-3-5-6-5-6l24 2 1 6-12-1 1 5 11 1 1 6-11-1v6l14 1 1 6-23-2zm47 5-5-7c-1-4-3-5-6-5h-1l3 11-10-1-4-24c-1-3-6-6-6-6l14 2c7 0 14 3 16 10 1 4-1 6-3 6v1l6 6 5 9-9-2zm2-13 2-3 2 8-4-5zm18 17-8-2-8-24c-1-3-6-6-6-6l14 2 16 20-7-18 7 2 14 30-10-2-19-22 7 20z"/><path fill="#939BA1" d="M180 57h-3l2 7h2c3 1 5 0 4-3l-5-4"/><path fill="#003E7E" d="M83 97c-2 0-3 2-4 5-1 2 0 4 2 4s3-2 4-4c0-3 0-5-2-5M131 97h-1v4h1c2 0 2-1 2-2s0-2-2-2"/><path fill="#003E7E" d="M139 86s51 2 103 14l1-2-19-43-31-7-6-1-8-25s-21-11-53-11c-33 0-54 11-54 11l-8 24A484 484 0 0 0 8 57l4 6 5 4-8 28 2 3s44-9 77-11v-1l6 1c16 0 20-8 20-8v3l1 1c-2 1-7 7-20 7h-6l-33 4-2 7c-2 7 1 14 7 17l63 28v4l-65-29c-8-3-11-13-9-21l2-6-3 1-1 3c-6 17 7 25 11 27l67 30 66-30c5-2 17-10 11-27v-1l-3-1 1 4c3 8-1 18-9 21l-65 29v-4l63-28c6-3 9-10 7-17l-2-6-57-6-2-22h-1v-3h2l2 22m-12-72c28 0 49 10 49 10l8 23-4-1-7-19c-5-3-24-9-46-9v-4zM84 28l10-2 7 8 2-9 7-1-2 15-8 1-7-7-2 8-8 2 3-13c1-1-2-2-2-2zm57-4 10 1 2 12 14 2 1 4-22-4-2-12-3-3zm-10 5v-5h7l1 15-8-1v-5h-8v5l-9 1 1-12c0-2-3-3-3-3h11v5h8zm-56-5s21-10 49-10v4c-22 0-41 6-46 9l-6 18-5 1 8-22zm49 76v3h-5v3h6v3h-10l1-14h8v3h-5v2h5zm-6-11-2-3h18l-2 3h-14zm-26 6h4l3 8 1-8h3l-2 14h-4l-3-9-1 9h-4l3-14zm-19 13-4 1c-5 0-6-3-5-7 1-5 5-8 9-8l3 1-1 3h-2c-2 0-5 1-5 4-1 2 0 4 2 4l3-1v3zm7 1c-4 0-6-3-5-7s5-8 9-8 5 4 5 8c-1 4-5 7-9 7zm26 15-3 1 2 6-4-4 3 7-6-5-6 2 1-3 1-3-6-6 7 2-7-5 8 1 1-6 3 7 8 2-6 3 4 1zm2-15h-4l1-14h9v3h-5l-1 2h5v3h-5v6zm75-14 1 3h-5l1 2h4l1 3h-4v3h6l1 3h-10l-3-14h8zm-13-1 3 1v3h-2c-3 0-4 1-3 4 0 2 2 4 5 4l2-1 1 3-3 1c-5 0-8-3-9-7-1-5 2-8 6-8zm-12 34 1 3-6-2-6 5 3-7-4 4 2-6-3-1 4-1-6-3 8-2 3-7 1 6 8-1-7 5 8-2-7 6 1 3zm-5-33 6 8-2-8h4l2 14h-4l-6-9 2 9h-4l-2-14h4zm-6 0v3h-5l1 2h4l1 3h-5v3h6v3h-9l-1-14h8zm-8 26-7 5h7l-7 5 2 6-2-2 2 6-8-5-9 5 2-6-2 2 2-6-7-5h7l-7-5h11l3-9 3 9h10zm-2-22-2 3 2 3 1 4h-4l-1-3c0-2-1-3-2-3h-1v6h-3V95h4c4 0 6 2 6 4zm-6-42 1 22h-14V57h-7l-1 2c-4-2-9-2-9-2 4 1 12 3 12 11s-7 13-19 13l-8-1v1l-29 3 7-27-12 27-18 3 2-8-5 9-18 4 8-28c1-2-2-3-5-6 0 0 34-8 74-12v5s4-6 13-6l4 1h18c19 0 57 2 80 8l7 8-3-8 13 3 16 37-15-4-10-12 3 11-26-5-7-11 3 11-43-4-3-23h-9z"/><path fill="#003E7E" d="m198 74-2-8-2 3 4 5M87 63v4c1 1 6 3 11 2-4-1-8-2-11-6"/><path d="M72 22s21-11 54-11c32 0 53 11 53 11l8 25 6 1-9-29S162 7 126 7 67 19 67 19l-8 28 5-1 8-24M102 123l1 2 3-1-4-1M104 134l-3-7-2-2-6 3-1 3 6-2 6 5M95 121l-7-2 6 6 1-4M132 126l-1 1 1 4 7-5h-7M119 126h-7l7 5 1-4-1-1M134 141l-2-6-6-4-7 4-2 6 9-5 8 5M156 121l1 4 7-6-8 2M145 124l3 1 1-2-4 1M153 129l6 2-1-3-6-3-2 2-3 7 6-5M17 69v-2l-5-4 2 4 3 2"/><path d="m139 86-2-22h-2v3h1l2 22s25 2 57 6l5 1 3 1v1c6 17-6 25-11 27l-66 30-67-30c-4-2-17-10-11-27l1-3a474 474 0 0 1 40-5s3 0 6 0c13 0 18-6 20-7l-1-1v-3s-4 8-20 8l-6-1v1c-33 2-77 11-77 11l2 4 30-6-1 5c-5 14-1 30 13 36l71 35 70-35c14-6 18-22 13-36l-1-4 33 7 1-4c-52-12-103-14-103-14m-15 81-64-31c-19-9-16-26-16-26s0 13 15 20l65 29v8zm67-31-64 31v-8l65-29c15-7 15-20 15-20s3 17-16 26z"/><path d="M118 89h14l2-3h-18l2 3M217 107h1v4h1v-4h1v-1h-3v1M223 110l-1-4h-1v5-4l2 4 2-4v4-5h-1l-1 4"/></svg>