<svg xmlns="http://www.w3.org/2000/svg" xml:space="preserve" viewBox="0 0 539 463"><path fill="transparent" d="M540 160v304H1V1h539zM414 57l1 1v1l10 6v1l7 4 1 1v1l6 3 3 2 2 1 1 1 2 3-1 1-1 6h-1l-12 37 2 1 12-9h1l4-4 1-1h1l1-1h1l1-1h1l3-3 2-1 3-3h1l2-2 2-1 2-1h1l5 3v1l4 1v1l3 2 1 1 3 2 2 1 1 1v1l3 1v1l3 1 1 1v1l7 4v1l6 3 1-1-4-10v-1l-2-4v-2l-2-5v-1l-1-1v-1l-5-16 1-6h1l1-1 2-2h1l1-1h1l6-5h1l8-7h1l2-2h1l3-3h1l1-1 1-1h1l4-3v-2h-49l-1-1v-1l-1-1v-2L473 8h-2l-3 12h-1v2l-1 1v3h-1l-2 8-1 1q-1 9-6 16h-44l-4 1 3 3 1 1h1zM61 237l11 32 23 68 22 67 17 53q2 4 6 3h65q5 0 6-4l20-61 19-57 12-35 8-25 2 5 29 89 15 42 14 43 4 3h67q4 0 5-4l15-42 23-73 23-69 18-52 20-62 6-17h-79l-63 190q-4-5-5-10l-23-69-30-90q-1-9-7-16l-31-22h-5l-28 20q-5 4-8 10l-13 40-17 52-13 39-9 29-7 17-1 1-64-192H30l1 4 12 38 10 28zm42-128-8-24q-1-4 2-7l34-24 2-2-4-1H87l-4-2-12-36-2-5-3 3-11 35q0 6-7 5H10l-5 1 3 4 32 23q3 3 2 6l-11 33-3 8 1 1 3-2 32-23q5-4 10 1l30 22 4 1zm136-10-9 28 6-3 31-22q3-3 7-1l25 19 11 7-1-5-12-37q-2-5 2-6l33-24 3-4h-45q-3 0-5-3l-5-15-9-26-3 5-11 34q-1 5-7 5h-38l-5 1 4 5 32 22q2 2 1 4z"/><path fill="#012c61" d="m61 237-8-27-10-28-12-38-1-4h78l64 192 1-1 7-17 9-29 13-39 17-52 13-40q3-6 8-10l28-20h5l31 22q6 7 7 16l30 90 28 79 63-190h79l-6 17-20 62-18 52-23 69-23 73-15 42q-1 4-5 4h-67l-4-3-14-43-15-42-29-89-2-5-8 25-12 35-19 57-20 61q-1 4-6 4h-65q-4 1-6-3l-17-53-22-67-23-68z"/><path fill="#fff" d="m103 110 5 16-4-1-31-22q-4-5-9-1l-32 23-3 2-1-1 3-8 11-33q1-3-2-6L8 56l-3-4 5-1h38q6 0 7-5l11-35 3-3 2 5 12 36 4 2h42l4 1-2 2-34 24q-3 3-2 7zM239 98l5-15q1-2-1-4l-32-22-4-5 5-1h38q6 1 7-5l11-34 3-5 9 26 5 15q2 3 5 3h45l-3 4-33 24q-4 2-2 6l12 37 1 5-11-7-25-19q-4-2-7 1l-31 22-6 3zM521 51h8l2 1 1 4-1 1-2 1-4 3-2 2h-1l-9 7-7 5h-1l-1 1-2 2-2 1-3 3 7 20 1 2v1l2 5v1l2 4v2l1 6h-4l-7-5-1-1-3-2-3-2-1-1-2-1-3-2-1-1-3-3-4-2-5-3h-2l-2 1-1 1-3 2-4 3-1 1-4 3h-1l-1 1-1 1h-1l-1 1-5 4h-1l-10 5 5-16 5-18 1-1 1-5v-2l-2-2-1-1-2-1-1-1-2-1-6-4-1-1-7-5-10-7-1-1-1-1h-1l-1-1 1-3 5-1 2 1 15-1 5 1 16-1h2l6-16 1-2 2-7v-1l1-2v-1l1-2 4-9 3 5 6 19 5 12v1l1 2 1 1 1 1z"/><path fill="#841638" d="m445 89-5 18-5 16 10-5-11 9-2-1zM486 47l-5-12-6-19-3-5-4 9 3-12h2zM504 102l-7-20 3-3-1 6zM506 123h4l-1-6 4 9-1 1zM532 56l-1-4 6-1v2zM417 51l-5 1-1 3-3-3 4-1zM499 118l7 5zM506 75l7-5zM425 65l7 4zM433 71l6 3zM466 26l-2 7zM473 100l5 3zM446 118l5-4zM461 107l4-3zM447 83l-1 5zM525 61l4-3zM456 111l3-3zM507 110l-2-5zM482 106l3 1zM509 115l-2-4zM478 103l4 2zM495 115l3 2zM492 113l3 2zM486 109l3 2zM465 104l3-2zM521 51l-4 1zM523 63l2-2zM529 51l-3 1zM445 79l2 2zM502 78l2-2zM439 75l2 1zM469 101l2-1zM467 23l-1 2zM468 20l-1 2zM487 50l-1-2zM529 58l2-1zM489 111l2 1zM442 77l2 1zM500 79l2-1zM505 104l-1-2zM504 76zM455 111zM413 56zM453 113zM491 112zM451 114zM531 57zM432 70zM414 57h1zM498 117zM444 78zM488 51zM411 55z"/></svg>