<?xml version="1.0" encoding="UTF-8"?>
<svg version="1.1" viewBox="0 0 540 269" xmlns="http://www.w3.org/2000/svg">
    <path transform="translate(93.667 113.85)" d="m0 0c1.0878-0.0063798 2.1756-0.01276 3.2963-0.019333 1.1595-0.0011128 2.3191-0.0022256 3.5138-0.0033722 1.2028-0.0033284 2.4056-0.0066568 3.6449-0.010086 2.5367-0.0050526 5.0733-0.0074088 7.61-0.0072479 3.8865-0.0021933 7.7727-0.020385 11.659-0.039307 2.4661-0.0029329 4.9323-0.0049184 7.3984-0.0058594 1.1636-0.0071855 2.3272-0.014371 3.526-0.021774 1.0815 0.0030766 2.1629 0.0061533 3.2772 0.0093231 0.95009-0.001425 1.9002-0.00285 2.8791-0.0043182 2.6323 0.25737 4.2699 0.90881 6.5287 2.2472l2-2c2.5367-0.20884 4.9652-0.29366 7.5039-0.29053 0.77427-0.0067172 1.5485-0.013434 2.3463-0.020355 2.5708-0.019061 5.1414-0.022909 7.7123-0.025055 1.7892-0.0064268 3.5785-0.013155 5.3677-0.020172 3.7595-0.011996 7.5188-0.015679 11.278-0.014496 4.7971 2.0231e-4 9.5936-0.026998 14.391-0.061544 3.7011-0.022349 7.4021-0.026291 11.103-0.025236 1.7669-0.0023479 3.5338-0.011125 5.3006-0.026665 11.279-0.089834 21.217 0.11341 30.435 7.5466 0.92619 0.72896 0.92619 0.72896 1.8711 1.4727 6.2039 5.3729 8.7786 10.802 9.4414 18.965 0.26339 4.8367 0.27105 9.6579 0.25 14.5 0.71285-0.78504 1.4257-1.5701 2.1602-2.3789 2.4811-2.7261 4.9746-5.4404 7.4771-8.147 1.0911-1.1803 2.1787-2.3638 3.2651-3.5483 15.721-16.49 39.915-27.582 62.666-28.277 4.0649-0.065204 8.1278-0.064027 12.193-0.047419 1.7664-0.0020259 3.5328-0.0049416 5.2993-0.0086975 3.6701-0.0043864 7.34 0.001896 11.01 0.016022 4.7054 0.01723 9.4104 0.0071413 14.116-0.010717 3.6331-0.01082 7.266-0.0074022 10.899 3.8338e-4 1.7364 0.0019998 3.4727-4.4968e-4 5.2091-0.0074387 2.4146-0.0076001 4.8283 0.0039623 7.2428 0.020702 0.71528-0.0060727 1.4306-0.012145 2.1675-0.018402 2.8596 0.036819 4.8246 0.0828 7.2181 1.7316 1.565 2.4348 1.761 4.8348 2.0766 7.675 5.3492 0.4976 6.9267-0.74003 11-4 12.205-6.0336 24.703-5.7048 38.016-5.5938 2.191 0.0017143 4.382 0.0016422 6.5729-1.2207e-4 4.5587 0.0016425 9.117 0.020159 13.676 0.05188 5.8477 0.039958 11.695 0.044006 17.543 0.036537 4.5089-0.0030628 9.0177 0.0090217 13.527 0.026131 2.1578 0.0070322 4.3156 0.010154 6.4735 0.0093079 3.0012 0.0017917 6.0016 0.02311 9.0027 0.050095 0.89137-0.0029306 1.7827-0.0058612 2.7011-0.0088806 0.81545 0.01135 1.6309 0.0227 2.4711 0.034393 1.0617 0.0055931 1.0617 0.0055931 2.1449 0.011299 2.4477 0.50057 3.3418 1.4455 4.8734 3.3831 2.2901 10.007-2.2558 19.437-7 28-1.625 2.4219-1.625 2.4219-4 4-3.2475 0.61109-6.4517 0.69641-9.75 0.75-0.88816 0.029648-1.7763 0.059297-2.6914 0.089844-2.1863 0.070525-4.3715 0.1233-6.5586 0.16016 0.43312 0.48211 0.86625 0.96422 1.3125 1.4609 0.55688 0.63164 1.1138 1.2633 1.6875 1.9141 0.83531 0.93973 0.83531 0.93973 1.6875 1.8984 1.3125 1.7266 1.3125 1.7266 1.3125 3.7266h2c3.4887 6.3764 4.4591 13.807 4 21l-1 1-0.1875 3.4375c-0.60513 5.5571-3.4339 10.189-6.8125 14.562h-2c-0.23203 0.57621-0.46406 1.1524-0.70312 1.7461-1.6296 2.8322-3.4553 4.3267-6.0469 6.3164-1.2607 1.0074-1.2607 1.0074-2.5469 2.0352-12.133 7.1763-28.84 5.3588-42.336 5.3359-2.3694 0.0045677-4.7388 0.009875-7.1081 0.015884-4.937 0.0088868-9.8738 0.0065538-14.811-0.0034332-6.3308-0.011559-12.661 0.0088498-18.992 0.037917-4.8795 0.018312-9.7589 0.018081-14.639 0.012362-2.3356-1.5343e-4 -4.6713 0.0059091-7.0069 0.018291-3.2526 0.014834-6.5042 0.0042929-9.7568-0.012907-1.4462 0.014502-1.4462 0.014502-2.9217 0.029297-6.5062-0.072249-6.5062-0.072249-9.714-2.4217-1.4058-2.0905-2.0639-3.6271-2.4185-6.1093-0.58008 0.40992-1.1602 0.81984-1.7578 1.2422-0.78117 0.53883-1.5623 1.0777-2.3672 1.6328-0.7657 0.53367-1.5314 1.0673-2.3203 1.6172-5.4882 3.2392-10.588 3.7946-16.855 3.7349-0.81042 2.9206e-4 -1.6208 5.8411e-4 -2.4558 8.8501e-4 -2.6621-0.0013864-5.324-0.016915-7.9861-0.032623-1.8523-0.0037326-3.7046-0.0065784-5.5569-0.0085754-4.8629-0.0076172-9.7257-0.027249-14.589-0.049408-4.9671-0.0205-9.9343-0.029603-14.901-0.039673-9.737-0.021416-19.474-0.055529-29.211-0.097656-1.4355 3.3312-2.8684 6.6635-4.3008 9.9961-0.60383 1.4011-0.60383 1.4011-1.2198 2.8304-2.311 5.3807-4.5428 10.779-6.6669 16.236-6.6209 16.746-6.6209 16.746-10.812 20.938-2.4739 0.21176-4.8331 0.30399-7.3086 0.30078-1.0838 0.0064277-1.0838 0.0064277-2.1895 0.012985-1.529 0.0057459-3.0581 0.0062416-4.5871 0.0019074-2.3399-0.0031571-4.6786 0.020284-7.0183 0.045654-1.485 0.0022733-2.9701 0.0029764-4.4551 0.0019531-0.70008 0.0092098-1.4002 0.01842-2.1214 0.027908-2.8099-0.026762-4.8452-0.089355-7.2504-1.6185-2.3827-3.9491-1.6981-8.3651-1.0696-12.773 1.6081-5.2823 3.7026-10.304 5.875-15.375 0.56298-1.3521 1.1242-2.705 1.6836-4.0586 1.0268-2.4781 2.0654-4.9499 3.1128-7.4194 1.1417-2.7043 2.2429-5.4199 3.3286-8.147-0.94246-0.0036456-1.8849-0.0072913-2.8559-0.011047-8.9151-0.037064-17.83-0.094961-26.745-0.17286-4.5824-0.03938-9.1646-0.071615-13.747-0.087093-4.4288-0.015229-8.857-0.049784-13.286-0.097313-1.6831-0.01475-3.3662-0.022728-5.0494-0.023575-11.755-0.01185-21.807-0.60554-30.817-9.0456-0.81469-0.74121-1.6294-1.4824-2.4688-2.2461-2.0807-2.3728-3.0636-4.3346-4.0312-7.3164-0.75507 0.46841-0.75507 0.46841-1.5254 0.94629-2.3227 1.4381-4.6486 2.8709-6.9746 4.3037-0.79148 0.49113-1.583 0.98227-2.3984 1.4883-13.326 8.1922-24.111 11.74-39.945 11.695-1.4191 0.0045735-2.8381 0.0098824-4.2572 0.015884-2.9585 0.0088804-5.9167 0.0065658-8.8751-0.0034332-3.7657-0.011496-7.5304 0.008756-11.296 0.037917-2.9257 0.018463-5.8511 0.01805-8.7768 0.012362-1.3873-1.5192e-4 -2.7746 0.0057841-4.1618 0.018291-9.9706 0.07727-19.414-0.74195-27.102-7.7646-0.59426-0.52078-1.1885-1.0416-1.8008-1.5781-5.5855-6.4297-7.8164-11.604-7.6992-20.172 0.010635-0.91846 0.02127-1.8369 0.032227-2.7832 0.67492-15.792 9.8179-26.691 20.78-37.217l2.8281-2.7812c17.058-16.18 42.968-28.268 66.838-28.364z" fill="#FCF8F9"/>
    <path transform="translate(340.04 120.89)" d="m0 0c0.66426-1.4603e-4 1.3285-2.9205e-4 2.0129-4.425e-4 2.1696 6.9004e-4 4.3392 0.0084394 6.5088 0.016312 1.5146 0.0018674 3.0291 0.0032898 4.5437 0.0042877 3.9669 0.0037997 7.9337 0.013608 11.901 0.024704 4.0557 0.010269 8.1114 0.014805 12.167 0.019836 7.9434 0.010692 15.887 0.027738 23.83 0.048828-1.6703 5.1436-3.4105 10.21-5.4961 15.203-0.47051 1.1317-0.94102 2.2634-1.4258 3.4294-0.75023 1.7906-0.75023 1.7906-1.5156 3.6174-0.79827 1.9119-1.5957 3.8241-2.3931 5.7364-0.55046 1.32-1.1013 2.6399-1.6525 3.9596-1.9692 4.7203-3.9072 9.4527-5.8333 14.191-0.80235 1.9662-1.6053 3.9322-2.4085 5.8981-0.75932 1.8639-1.5123 3.7305-2.2651 5.597-2.2617 5.5224-4.4196 10.589-8.01 15.368l-2 3c-4.72 5.5902-12.905 8.8888-20 10-2.3605 0.086103-4.7232 0.11772-7.0852 0.11353-1.0399 2.1904e-4 -1.0399 2.1904e-4 -2.1007 4.4251e-4 -2.2779-6.9339e-4 -4.5557-0.0084588-6.8336-0.016312-1.5847-0.0018662-3.1694-0.0032892-4.7541-0.0042877-4.1609-0.0038091-8.3217-0.013626-12.483-0.024704-4.2499-0.010249-8.4998-0.014801-12.75-0.019836-8.3314-0.010709-16.663-0.027766-24.994-0.048828 0.71562-4.7945 2.0327-8.9 4-13.312 0.27328-0.63229 0.54656-1.2646 0.82812-1.916 2.0203-4.6199 2.0203-4.6199 3.1719-5.7715 1.8449-0.1077 3.6939-0.14627 5.542-0.15771 1.185-0.010262 2.3701-0.020524 3.591-0.031097 1.2916-0.0073013 2.5832-0.014603 3.9139-0.022125 2.0145-0.02088 4.029-0.041777 6.0434-0.0637 4.9841-0.053247 9.9683-0.097327 14.953-0.12673 3.4638-0.020986 6.9271-0.056325 10.391-0.10076 1.9591-0.021 3.9184-0.026204 5.8776-0.03117 1.1976-0.016566 2.3953-0.033133 3.6292-0.050201 1.0518-0.0080869 2.1035-0.016174 3.1872-0.024506 3.3022-0.45066 5.1897-1.4461 7.8724-3.392 1.4746-2.0351 1.4746-2.0351 2.4922-4.4258 0.61827-1.3315 0.61827-1.3315 1.249-2.6899 2.1832-5.0024 4.3153-10.021 6.3838-15.072 0.8565-2.0769 1.7133-4.1538 2.5703-6.2305 0.5941-1.4432 0.5941-1.4432 1.2002-2.9155 1.3399-3.2348 2.7137-6.4532 4.1045-9.6665-29.223 0.49825-56.956 0.99378-79 23-0.62648 0.61488-1.253 1.2298-1.8984 1.8633-10.41 10.999-15.777 25.897-21.352 39.699-0.73789 1.8063-1.4768 3.6122-2.2166 5.4177-1.4797 3.6142-2.9546 7.2302-4.4255 10.848-2.7643 6.7926-5.5729 13.567-8.3844 20.34-1.2345 2.9756-2.4652 5.9527-3.6962 8.9297-1.0035 2.4267-1.0035 2.4267-2.0273 4.9023h-24c0.82546-4.9528 2.0005-8.9572 3.8867-13.52 0.29352-0.72349 0.58704-1.447 0.88945-2.1924 0.96378-2.3696 1.937-4.7353 2.9113-7.1006 0.67741-1.6538 1.3547-3.3077 2.0317-4.9617 1.7428-4.2495 3.496-8.4947 5.2525-12.739 0.99087-2.3969 1.9777-4.7953 2.9633-7.1943 16.702-40.603 16.702-40.603 30.065-55.293 0.61102-0.69223 1.222-1.3845 1.8516-2.0977 17.396-18.617 43.762-30.063 69.185-30.016z" fill="#D31D2B"/>
    <path transform="translate(153,121)" d="m0 0c8.9541-0.069787 17.908-0.12296 26.862-0.15544 4.1587-0.015596 8.3173-0.036722 12.476-0.070882 4.0201-0.032811 8.0399-0.05058 12.06-0.058313 1.5269-0.0055048 3.0537-0.016253 4.5805-0.032558 12.559-0.12868 23.145 0.94112 33.021 9.3172 5.809 6.4052 6.4184 12.188 6.3438 20.574-0.44429 4.4277-1.8612 7.616-3.875 11.543-1.5654 3.0724-2.8359 6.1723-4.0938 9.3828-3.0256 7.6693-6.1357 15.304-9.25 22.938-0.50603 1.2409-1.0121 2.4818-1.5181 3.7227-1.2019 2.9468-2.4044 5.8933-3.6069 8.8398h-25v-3c-0.95415 0.32235-1.9083 0.64469-2.8914 0.97681-4.6071 1.3087-9.0828 1.365-13.847 1.3943-1.3812 0.013543-1.3812 0.013543-2.7903 0.027359-1.9405 0.014448-3.8811 0.023376-5.8217 0.027084-2.9433 0.011887-5.8845 0.061117-8.8274 0.11157-18.963 0.16547-18.963 0.16547-25.822-5.5371-5.1905-5.5564-8.4754-10.943-8.2539-18.754 0.84302-7.4575 3.2827-14.726 9.0078-19.801 11.358-8.9356 21.93-10.756 36.152-10.641 1.3338 0.0037371 2.6676 0.0065808 4.0013 0.0085754 3.4852 0.007582 6.9703 0.027183 10.455 0.049408 3.5665 0.020577 7.133 0.029619 10.699 0.039673 6.9792 0.021354 13.958 0.055423 20.938 0.097656-0.021265-3.4061-0.021265-3.4061-1-7-4.411-2.8847-7.9956-3.3861-13.199-3.4324-0.69338-0.010192-1.3868-0.020383-2.1012-0.030884-2.2725-0.02999-4.5446-0.039374-6.8173-0.048462-1.5833-0.016857-3.1665-0.035009-4.7498-0.054398-4.1526-0.047394-8.3051-0.077272-12.458-0.10344-4.2434-0.029859-8.4866-0.076371-12.73-0.12146-8.315-0.085912-16.63-0.15331-24.945-0.20898 0.58838-4.8411 2.0765-8.9607 4.0625-13.375 0.28166-0.64066 0.56332-1.2813 0.85352-1.9414 0.68858-1.5639 1.3854-3.1241 2.084-4.6836z" fill="#D31C2B"/>
    <path transform="translate(451.1 120.77)" d="m0 0c1.2894-4.3808e-4 1.2894-4.3808e-4 2.6049-8.8501e-4 2.8081 0.0013803 5.616 0.016879 8.4241 0.032623 1.9601 0.0037348 3.9202 0.0065796 5.8804 0.0085754 5.1341 0.0075999 10.268 0.027217 15.402 0.049408 5.2489 0.020537 10.498 0.029611 15.747 0.039673 10.281 0.021386 20.561 0.055477 30.842 0.097656-2.1616 6.94-4.8936 13.431-8 20-1.5431 0.0054684-1.5431 0.0054684-3.1174 0.011047-9.6966 0.036947-19.393 0.094717-29.089 0.17286-4.985 0.039503-9.9698 0.071678-14.955 0.087093-4.8113 0.015148-9.6221 0.049561-14.433 0.097313-1.8352 0.014833-3.6704 0.022733-5.5056 0.023575-2.5716 0.0023657-5.1418 0.029412-7.7131 0.062218-0.75813-0.0050304-1.5163-0.010061-2.2974-0.015244-3.6006 0.07103-5.7489 0.47573-8.8503 2.3609-2.7166 2.9313-2.8133 5.2866-3.0391 9.2003 1.0788 0.0087994 1.0788 0.0087994 2.1793 0.017776 6.811 0.058146 13.622 0.13035 20.432 0.21794 3.5006 0.044536 7.0011 0.083828 10.502 0.11072 4.0341 0.031228 8.0675 0.086008 12.101 0.14185 1.2441 0.0063899 2.4882 0.01278 3.77 0.019363 7.7035 0.12916 14.93 0.55307 21.355 5.1759 0.52723 0.57879 1.0545 1.1576 1.5977 1.7539 0.81791 0.86432 0.81791 0.86432 1.6523 1.7461 4.6581 6.0001 4.0484 12.488 3.4102 19.816-1.6646 6.7282-5.7318 12.554-11 17-6.0143 3.5837-12.224 7.1288-19.347 7.1203-0.88761 0.0013747-1.7752 0.0027493-2.6897 0.0041656-0.97104-0.0035953-1.9421-0.0071906-2.9426-0.010895-1.5368 2.1904e-4 -1.5368 2.1904e-4 -3.1047 4.4251e-4 -3.3926-6.9767e-4 -6.7851-0.0084833-10.178-0.016312-2.3498-0.0018647-4.6997-0.0032884-7.0495-0.0042877-6.1896-0.0038211-12.379-0.013648-18.569-0.024704-6.3141-0.010223-12.628-0.014796-18.942-0.019836-12.393-0.01073-24.785-0.027802-37.178-0.048828 1.5311-5.423 3.0425-10.621 5.6875-15.625 0.43699-0.83789 0.87398-1.6758 1.3242-2.5391 0.32613-0.60586 0.65227-1.2117 0.98828-1.8359 1.731-0.0054684 1.731-0.0054684 3.497-0.011047 10.874-0.036936 21.747-0.094694 32.621-0.17286 5.5903-0.039514 11.18-0.071683 16.771-0.087093 5.3948-0.01514 10.789-0.04954 16.184-0.097313 2.0584-0.014841 4.1169-0.022734 6.1754-0.023575 2.8829-0.0023633 5.7645-0.029392 8.6471-0.062218 0.85164 0.0050304 1.7033 0.010061 2.5807 0.015244 3.8811-0.068404 6.121-0.34328 9.593-2.2203 2.2288-2.2572 2.2288-2.2572 2.2435-5.5909l-0.3125-2.75c-0.69411-0.0058662-1.3882-0.011732-2.1034-0.017776-6.5755-0.05816-13.151-0.13037-19.726-0.21794-3.3795-0.044525-6.759-0.083819-10.139-0.11072-3.8951-0.033696-7.7895-0.086022-11.684-0.14185-1.2004-0.0063899-2.4007-0.01278-3.6374-0.019363-8.5473-0.14834-16.639-0.85431-23.148-6.9299-0.63809-0.57621-1.2762-1.1524-1.9336-1.7461-4.4617-4.9752-3.9913-9.8895-3.8711-16.34 0.50099-7.1916 2.9863-12.236 7.8945-17.52 9.8456-8.2074 21.888-11.298 34.448-11.184z" fill="#D31D2C"/>
    <path transform="translate(117.75 120.88)" d="m0 0c2.0651 0.01005 4.1302 0.019172 6.1953 0.027344 5.0183 0.021854 10.036 0.056273 15.055 0.097656-1.5311 5.423-3.0425 10.621-5.6875 15.625-0.43699 0.83789-0.87398 1.6758-1.3242 2.5391-0.32613 0.60586-0.65227 1.2117-0.98828 1.8359-1.0831 0.019819-2.1661 0.039639-3.282 0.060059-4.08 0.076995-8.1596 0.16555-12.239 0.25732-1.7542 0.037907-3.5084 0.072821-5.2627 0.10449-19.544 0.31566-19.544 0.31566-38.341 5.2656-1.0066 0.39083-1.0066 0.39083-2.0334 0.78955-13.335 5.3825-25.75 14.165-31.842 27.523-0.80574 2.5611-1 4.2676-1 7l2 3c2.192 0.46505 2.192 0.46505 4.7659 0.40405 0.99186 0.012684 1.9837 0.025368 3.0056 0.038437 1.6155-0.0044034 1.6155-0.0044034 3.2637-0.0088959 1.6617 0.0078628 1.6617 0.0078628 3.357 0.015884 2.3513 0.0064358 4.7026 0.0050632 7.0538-0.0034332 3.5778-0.0084536 7.154 0.02014 10.732 0.052002 2.2858 0.0016136 4.5716 0.0010314 6.8574-0.0019531 1.0628 0.011234 2.1257 0.022468 3.2207 0.034042 6.8426-0.063308 11.719-1.3326 17.744-4.5301 4.4497-1.7093 7.2798-0.38529 11.482 1.4004 0.76893 0.34225 1.5379 0.68449 2.3301 1.0371 0.78826 0.33838 1.5765 0.67676 2.3887 1.0254 1.938 0.83395 3.8692 1.684 5.7988 2.5371v3c-13.295 10.961-28.779 16.3-45.711 16.371-1.3361 0.008984-2.6721 0.018106-4.0082 0.027359-2.7922 0.016425-5.5843 0.024178-8.3766 0.027084-3.5563 0.0053818-7.1115 0.043079-10.668 0.088744-2.7575 0.029919-5.5147 0.036983-8.2723 0.037982-1.9414 0.0061826-3.8827 0.035567-5.8239 0.065519-9.3261-0.047314-14.884-2.1014-22.016-7.9928-4.0328-4.9817-5.7461-9.8423-5.457-16.191 2.2039-16.153 14.606-29.12 26.943-38.682 13.37-10.102 29.112-16.925 45.389-20.751 0.84562-0.20601 1.6912-0.41202 2.5625-0.62427 10.575-2.1729 21.449-1.592 32.188-1.5007z" fill="#D21D2C"/>
    <path transform="translate(443,6)" d="m0 0h2c1.4527 3.5413 2.7408 7.1053 3.9453 10.738 0.31985 0.96204 0.6397 1.9241 0.96924 2.9153 0.39945 1.2074 0.7989 2.4149 1.2104 3.6589l3.875 11.688 31 1v2c-2.0924 1.6492-4.1841 3.1791-6.375 4.6875-0.6318 0.44263-1.2636 0.88526-1.9146 1.3413-1.8996 1.3294-3.8049 2.6503-5.7104 3.9712-1.9587 1.3745-3.9171 2.7494-5.875 4.125-1.3745 0.95905-2.7493 1.9177-4.125 2.875 2.7081 10.102 5.6277 20.098 9 30-4.2931 0-4.9244-0.3151-8.1875-2.7383-0.78117-0.57299-1.5623-1.146-2.3672-1.7363-0.80695-0.6065-1.6139-1.213-2.4453-1.8379-0.80695-0.5949-1.6139-1.1898-2.4453-1.8027-5.9544-4.397-5.9544-4.397-8.676-6.6084-0.61996-0.4212-1.2399-0.8424-1.8787-1.2764-5.0082 0.98423-9.1004 4.8833-13.062 7.9375-0.70705 0.53818-1.4141 1.0764-2.1426 1.6309-0.68643 0.52271-1.3729 1.0454-2.0801 1.584-0.65243 0.49613-1.3049 0.99226-1.9771 1.5034-1.3743 1.0631-2.7166 2.1674-4.0464 3.2856-0.83725 0.524-0.83725 0.524-1.6914 1.0586l-3-1c0.27264-0.83773 0.54527-1.6755 0.82617-2.5386 1.0087-3.1041 2.0148-6.209 3.019-9.3145 0.43547-1.3447 0.87199-2.6891 1.3096-4.0332 0.62823-1.9303 1.2527-3.8617 1.8765-5.7935 0.37705-1.1626 0.7541-2.3251 1.1426-3.5229 0.92059-2.6309 0.92059-2.6309 0.82617-4.7974-2.0924-1.6492-4.1844-3.1788-6.375-4.6875-0.6318-0.44408-1.2636-0.88816-1.9146-1.3457-2.9391-2.062-5.897-4.0936-8.8667-6.1113-0.89719-0.6123-1.7944-1.2246-2.7188-1.8555-0.8018-0.53625-1.6036-1.0725-2.4297-1.625-0.55945-0.45375-1.1189-0.9075-1.6953-1.375v-2l31-1 10-29z" fill="#FAFBFC"/>
    <path transform="translate(274,6)" d="m0 0h3c1.2855 3.9498 2.5671 7.9008 3.8452 11.853 0.43547 1.3447 0.87199 2.6891 1.3096 4.0332 0.62823 1.9303 1.2527 3.8617 1.8765 5.7935 0.56558 1.7439 0.56558 1.7439 1.1426 3.5229 0.82617 2.7974 0.82617 2.7974 0.82617 4.7974h32c-3.2299 3.2299-5.7538 5.7149-9.3555 8.2617-0.78697 0.56139-1.5739 1.1228-2.3848 1.7012-0.8076 0.56912-1.6152 1.1382-2.4473 1.7246-1.6196 1.1481-3.2382 2.2978-4.8555 3.4492-0.7118 0.50233-1.4236 1.0047-2.157 1.5222-1.9135 1.3582-1.9135 1.3582-3.8 3.3411 0.27264 0.83773 0.54527 1.6755 0.82617 2.5386 1.0087 3.1041 2.0148 6.209 3.019 9.3145 0.43547 1.3447 0.87199 2.6891 1.3096 4.0332 0.62823 1.9303 1.2527 3.8617 1.8765 5.7935 0.37705 1.1626 0.7541 2.3251 1.1426 3.5229 0.82617 2.7974 0.82617 2.7974 0.82617 4.7974-3.4916-1.2727-6.2791-2.7433-9.25-4.9688-0.77344-0.57105-1.5469-1.1421-2.3438-1.7305-1.6042-1.2005-3.2083-2.401-4.8125-3.6016-0.77344-0.57105-1.5469-1.1421-2.3438-1.7305-0.69609-0.52143-1.3922-1.0429-2.1094-1.5801-2.381-1.5446-4.3884-2.66-7.1406-3.3887-2.1322 0.8397-2.1322 0.8397-3.9961 2.5078-0.72381 0.57492-1.4476 1.1498-2.1934 1.7422-0.74186 0.61875-1.4837 1.2375-2.248 1.875-1.4766 1.1916-2.9545 2.3818-4.4336 3.5703-1.0536 0.8532-1.0536 0.8532-2.1284 1.7236-7.0616 5.5811-7.0616 5.5811-10 5.5811 1.2226-7.58 3.4309-14.56 6.0552-21.753 0.2641-0.74911 0.52819-1.4982 0.80029-2.27 0.24387-0.66951 0.48775-1.339 0.73901-2.0288 0.49981-2.4006 0.34193-3.681-0.59448-5.9478-1.5773-1.5533-1.5773-1.5533-3.6055-2.8398-0.7367-0.50596-1.4734-1.0119-2.2324-1.5332-0.77537-0.51627-1.5507-1.0325-2.3496-1.5645-5.141-3.4843-10.171-6.924-14.812-11.062v-1h32l2-9c0.54097-1.8348 1.1114-3.6614 1.7266-5.4727 0.30938-0.91846 0.61875-1.8369 0.9375-2.7832 0.47566-1.3893 0.47566-1.3893 0.96094-2.8066 0.32484-0.961 0.64969-1.922 0.98438-2.9121 0.79274-2.3432 1.5897-4.685 2.3906-7.0254z" fill="#FAFBFC"/>
    <path transform="translate(106,5)" d="m0 0c2.8503 2.4192 3.7368 4.5939 4.7891 8.1484 0.30164 1.0055 0.60328 2.0109 0.91406 3.0469 0.30422 1.0493 0.60844 2.0986 0.92188 3.1797 0.31195 1.0416 0.62391 2.0831 0.94531 3.1562 1.3323 4.4909 2.5095 8.8676 3.4297 13.469h32c-3.2843 3.2843-5.9891 5.89-9.6445 8.5508-0.84111 0.61553-1.6822 1.2311-2.5488 1.8652-0.86432 0.62584-1.7286 1.2517-2.6191 1.8965-0.88365 0.64518-1.7673 1.2904-2.6777 1.9551-2.1671 1.5814-4.3371 3.1587-6.5098 4.7324 1.5192 7.3305 3.6226 14.319 5.9648 21.422 0.26168 0.80695 0.52336 1.6139 0.79297 2.4453 0.23864 0.723 0.47728 1.446 0.72314 2.1909 0.51904 1.9419 0.51904 1.9419 0.51904 4.9419-3.6365-1.3103-6.4642-2.8893-9.5391-5.2227-0.82758-0.62068-1.6552-1.2414-2.5078-1.8809-0.85078-0.64646-1.7016-1.2929-2.5781-1.959-1.6978-1.2861-3.3982-2.5688-5.1016-3.8477-0.74846-0.56856-1.4969-1.1371-2.2681-1.7229-2.0571-1.5359-2.0571-1.5359-5.0054-2.3669-1.8834 0.89592-1.8834 0.89592-3.7656 2.3516-0.72574 0.52207-1.4515 1.0441-2.1992 1.582-1.1312 0.83725-1.1312 0.83725-2.2852 1.6914-0.73863 0.53496-1.4773 1.0699-2.2383 1.6211-2.8612 2.074-5.713 4.16-8.5488 6.2686-4.7472 3.4854-4.7472 3.4854-6.9629 3.4854 0.68018-3.7637 1.6722-7.3188 2.8477-10.957 0.35771-1.1118 0.71543-2.2236 1.084-3.3691 0.37318-1.1505 0.74637-2.301 1.1309-3.4863 0.37705-1.1698 0.7541-2.3396 1.1426-3.5449 0.92919-2.8817 1.8609-5.7625 2.7949-8.6426-6.3223-5.1359-12.723-10.034-19.424-14.66-4.4731-3.1336-4.4731-3.1336-5.5762-5.3398h32l3-11c1.0226-3.3831 2.0576-6.7565 3.125-10.125 0.26426-0.8482 0.52852-1.6964 0.80078-2.5703 0.38092-1.2066 0.38092-1.2066 0.76953-2.4375 0.22704-0.72075 0.45407-1.4415 0.68799-2.1841 0.6167-1.6831 0.6167-1.6831 1.6167-2.6831z" fill="#FAFBFC"/>
    <path transform="translate(216,169)" d="m0 0c-1.3615 6.5611-2.9065 10.781-8.2812 14.941-3.0228 1.8618-5.6075 2.1867-9.0667 2.2039-0.87423 0.0063798-1.7485 0.01276-2.6492 0.019333-1.411 0.0016692-1.411 0.0016692-2.8506 0.0033722-0.96764 0.0033284-1.9353 0.0066568-2.9322 0.010086-2.0451 0.0050623-4.0903 0.0074085-6.1354 0.0072479-3.1384 0.0021911-6.2765 0.020367-9.4148 0.039307-1.985 0.0029331-3.9701 0.0049184-5.9551 0.0058594-0.94271 0.0071855-1.8854 0.014371-2.8567 0.021774-0.87108-0.0030766-1.7422-0.0061533-2.6396-0.0093231-0.76817 0.001425-1.5363 0.00285-2.3278 0.0043182-1.8907-0.24724-1.8907-0.24724-3.8907-2.2472 0-4.4354 0.45185-6.4103 3.501-9.6907 3.9405-3.0773 7.6369-3.0069 12.483-2.946 1.2835-0.015567 1.2835-0.015567 2.5928-0.031448 2.7247-0.029577 5.448-0.026331 8.1728-0.019333 3.5783-0.011817 7.1562-0.037911 10.734-0.074219 0.84929-0.0072409 1.6986-0.014482 2.5736-0.021942 6.4079-0.098832 12.706-2.2163 18.942-2.2163z" fill="#FDF9F9"/>
    <path transform="translate(386,187)" d="m0 0h93v1c-30.03 0.33-60.06 0.66-91 1-2.1841 5.0674-2.1841 5.0674-4.0625 10.25-0.9375 2.75-0.9375 2.75-2.9375 5.75h99v1h-101c3-10 3-10 7-19z" fill="#B61D2A"/>
    <path transform="translate(447.3 138.77)" d="m0 0c0.81042-2.9205e-4 1.6208-5.8411e-4 2.4558-8.8501e-4 2.6621 0.0013864 5.324 0.016915 7.9861 0.032623 1.8523 0.0037326 3.7046 0.0065784 5.5569 0.0085754 4.8629 0.0076172 9.7257 0.027249 14.589 0.049408 4.9671 0.0205 9.9343 0.029603 14.901 0.039673 9.737 0.021416 19.474 0.055529 29.211 0.097656v2c-1.5431 0.0087994-1.5431 0.0087994-3.1174 0.017776-9.6965 0.057222-19.393 0.12998-29.089 0.21794-4.9849 0.04472-9.9698 0.083973-14.955 0.11072-4.8112 0.026016-9.6221 0.066407-14.433 0.11675-1.8352 0.01668-3.6704 0.028187-5.5056 0.034428-2.5714 0.0096286-5.142 0.037673-7.7131 0.070013-1.1372-0.0021526-1.1372-0.0021526-2.2974-0.0043488-4.4658 0.079394-7.2855 0.76694-10.889 3.4367l-1-4c4.8265-1.9176 9.1721-2.2759 14.3-2.2271z" fill="#BC2631"/>
    <path transform="translate(153,121)" d="m0 0c8.9541-0.069787 17.908-0.12296 26.862-0.15544 4.1587-0.015596 8.3173-0.036722 12.476-0.070882 4.0201-0.032811 8.0399-0.05058 12.06-0.058313 1.5269-0.0055048 3.0537-0.016253 4.5805-0.032558 10.162-0.10412 19.967 0.057655 28.646 6.0047 0.9784 0.65549 0.9784 0.65549 1.9766 1.3242 0.69223 0.4892 0.69223 0.4892 1.3984 0.98828l-2 1c-0.99-0.33-1.98-0.66-3-1v-2l-3.375-0.9375c-3.625-1.0625-3.625-1.0625-5.625-2.0625-2.3072-0.1212-4.618-0.17754-6.9282-0.20532-0.7123-0.0098996-1.4246-0.019799-2.1585-0.029999-2.3591-0.031638-4.7182-0.056381-7.0773-0.081085-1.6338-0.020568-3.2676-0.041564-4.9015-0.062973-4.3039-0.055241-8.6079-0.10464-12.912-0.15285-4.3904-0.0502-8.7807-0.10589-13.171-0.16113-8.6171-0.10761-17.234-0.20905-25.852-0.30664l-1 4h-2l2-6z" fill="#B73642"/>
    <path transform="translate(278,201)" d="m0 0 1 4h71v-2l10-1c-5.5494 5.5494-14.379 5.3217-21.772 5.3482-2.2455-0.0085149-4.4906-0.031581-6.7361-0.055211-1.5775-0.0056064-3.1551-0.0098716-4.7326-0.012863-4.1199-0.011367-8.2394-0.040762-12.359-0.074112-4.2168-0.030879-8.4336-0.044431-12.65-0.059509-8.2501-0.032019-16.5-0.083114-24.75-0.14648l1-6z" fill="#C7535D"/>
    <path transform="translate(101,180)" d="m0 0c5.1559 0.29834 9.3186 2.3328 13.875 4.5625 0.68836 0.32936 1.3767 0.65871 2.0859 0.99805 1.6829 0.80641 3.3615 1.622 5.0391 2.4395-3.844 4.2247-7.8164 6.899-12.812 9.625-0.67354 0.38156-1.3471 0.76312-2.041 1.1562-5.7768 3.2062-11.422 6.2188-18.146 6.2188v-2h6v-2h5l1-5h4l0.25-1.875c0.75-2.125 0.75-2.125 2.6875-3.0625 2.327-0.93529 2.327-0.93529 3.3125-3.6875 0.2475-0.78375 0.495-1.5675 0.75-2.375h-4v-2c-2.97-0.33-5.94-0.66-9-1l2-2z" fill="#C62634"/>
    <path transform="translate(421,171)" d="m0 0h65c1.9956 3.9911 2.1955 5.6999 2 10h-2l-1-6c-1.0478-0.01213-1.0478-0.01213-2.1168-0.024506-6.6055-0.078165-13.211-0.16552-19.816-0.26302-3.3953-0.049799-6.7905-0.096129-10.186-0.13435-3.9098-0.044164-7.8192-0.10375-11.729-0.16406-1.2107-0.011551-2.4214-0.023102-3.6687-0.035004-5.8561-0.10201-10.96-0.36995-16.484-2.3791v-1z" fill="#C33541"/>
    <path transform="translate(284,187)" d="m0 0h59c-5.4584 3.639-11.555 3.1386-17.898 3.0977-0.83496-0.001415-1.6699-0.0028299-2.5302-0.0042877-2.6488-0.0055668-5.2976-0.018113-7.9464-0.030869-1.8034-0.0050193-3.6068-0.0095814-5.4102-0.013672-4.405-0.010985-8.8099-0.028226-13.215-0.048828v-1h-12v-2z" fill="#C61C29"/>
    <path transform="translate(523,137)" d="m0 0c0.6875 1.8125 0.6875 1.8125 1 4-1.4375 1.75-1.4375 1.75-3 3l-2-1c-2.3012-0.10247-4.6055-0.13845-6.9089-0.14526-0.71081-0.0033586-1.4216-0.0067172-2.154-0.010178-2.358-0.0095243-4.7158-0.011454-7.0738-0.012527-1.6395-0.0032129-3.2789-0.006577-4.9184-0.010086-3.4425-0.0059959-6.8849-0.0078396-10.327-0.0072479-4.4004 1.0133e-4 -8.8006-0.013519-13.201-0.030772-3.3896-0.011151-6.7792-0.013146-10.169-0.012618-1.6214-0.0011767-3.2428-0.0055808-4.8643-0.013332-2.276-0.0098571-4.5516-0.0068989-6.8276-8.9454e-4 -1.293-0.001425-2.5861-0.00285-3.9183-0.0043182-4.4619 0.30326-8.9173 0.7878-12.415 3.7551-0.57428 0.80051-0.57428 0.80051-1.1602 1.6172l-2.0625 2.875-1-3c4.1111-5.5556 4.1111-5.5556 7-7 2.6243-0.093052 5.2218-0.1258 7.8462-0.11353 0.80984-1.4603e-4 1.6197-2.9205e-4 2.4541-4.4251e-4 2.6838 6.9813e-4 5.3675 0.0084859 8.0513 0.016312 1.858 0.0018645 3.716 0.0032883 5.5741 0.0042877 4.8958 0.0038224 9.7916 0.01365 14.687 0.024704 4.9936 0.01022 9.9872 0.014795 14.981 0.019836 9.8021 0.010732 19.604 0.027805 29.406 0.048828l1-4z" fill="#FDBDC5"/>
    <path transform="translate(99.493 120.77)" d="m0 0c0.88061 1.5106e-4 1.7612 3.0212e-4 2.6685 4.5776e-4 1.4127 0.015484 1.4127 0.015484 2.8539 0.031281 0.97097 0.0028299 1.9419 0.0056598 2.9423 0.0085754 3.0975 0.011184 6.1947 0.036286 9.2921 0.061737 2.1016 0.010032 4.2031 0.019158 6.3047 0.027344 5.1485 0.022037 10.297 0.056555 15.445 0.097656-0.42683 1.5862-0.86696 3.1689-1.3125 4.75-0.24363 0.88172-0.48727 1.7634-0.73828 2.6719-0.97047 2.6359-2.1593 4.4322-3.9492 6.5781l1-8h2v-4h-45c3.6649-1.8325 4.6946-2.2489 8.4932-2.2271z" fill="#BA3946"/>
    <path transform="translate(150,128)" d="m0 0c1.5134 4.2039 0.72031 5.9578 0 11l67 1v1h-71c0.87712-5.2627 1.8524-8.3312 4-13z" fill="#B12C39"/>
    <path transform="translate(344.29 138.8)" d="m0 0c1.059 0.0042448 1.059 0.0042448 2.1395 0.0085754 2.2519 0.011182 4.5033 0.036283 6.7551 0.061737 1.528 0.010032 3.056 0.019158 4.584 0.027344 3.743 0.022035 7.4857 0.056551 11.229 0.097656 1.0425 1.8799 1.0425 1.8799 2 4-0.93565 2.6456-2.4501 4.6296-4 7h-2l3-9h-34c3.5944-2.3963 6.1486-2.2578 10.293-2.1953z" fill="#BD252F"/>
    <path transform="translate(291,154)" d="m0 0c2.31 0.33 4.62 0.66 7 1l-1.9375 1.9375c-0.45246 0.45633-0.90492 0.91266-1.3711 1.3828-1.2689 1.2601-2.5559 2.5019-3.8516 3.7344-4.8326 4.6632-8.5403 9.0913-11.84 14.945l-1-4h2v-3h2v-7h6l-1-6h2l2-3z" fill="#C62736"/>
    <path transform="translate(433,153)" d="m0 0c7.5719 0.084621 15.144 0.17959 22.715 0.28753 3.5163 0.049808 7.0327 0.096139 10.549 0.13435 4.0488 0.044149 8.0972 0.10374 12.146 0.16406 1.8816 0.017327 1.8816 0.017327 3.8013 0.035004 5.952 0.10017 11.179 0.31737 16.789 2.3791v1c-1.4374 0.027121-2.8749 0.046451-4.3125 0.0625-1.2008 0.017402-1.2008 0.017402-2.4258 0.035156-2.2617-0.097656-2.2617-0.097656-5.2617-1.0977-1.7021-0.11534-3.4082-0.17641-5.114-0.20532-1.5613-0.029918-1.5613-0.029918-3.1541-0.06044-1.122-0.016712-2.2439-0.033425-3.3999-0.050644-1.1499-0.020781-2.2999-0.041562-3.4847-0.062973-3.6782-0.065454-7.3565-0.12436-11.035-0.18312-2.4915-0.043189-4.9831-0.086804-7.4746-0.13086-6.1126-0.10715-12.225-0.20893-18.338-0.30664v2c-0.99-0.33-1.98-0.66-3-1l1-3z" fill="#BF2C37"/>
    <path transform="translate(28,201)" d="m0 0h3l-1 4h57v1c-7.5889 0.069653-15.178 0.12289-22.767 0.15544-3.5244 0.015625-7.0485 0.036805-10.573 0.070882-4.056 0.038971-8.1118 0.053417-12.168 0.06665-1.2596 0.015484-2.5192 0.030968-3.8169 0.046921-1.1808 2.2659e-4 -2.3615 4.5318e-4 -3.5781 6.8664e-4 -1.5522 0.0099928-1.5522 0.0099928-3.1358 0.020187-3.4863-0.42471-5.9217-1.6445-8.9614-3.3608 3.75-1.125 3.75-1.125 6 0v-2z" fill="#B61F2B"/>
    <path transform="translate(20,162)" d="m0 0c1 2 1 2 0.125 5-1.125 3-1.125 3-2.125 5h-2c-0.14438 0.78375-0.28875 1.5675-0.4375 2.375-0.5625 2.625-0.5625 2.625-1.5625 4.625-0.1224 1.7677-0.17551 3.5406-0.1875 5.3125-0.01418 0.94488-0.028359 1.8898-0.042969 2.8633 0.24223 2.9683 0.9902 5.1329 2.2305 7.8242l-2 1c-3.2936-6.4499-4.1287-11.691-2.2734-18.773 1.9634-5.8264 4.439-10.434 8.2734-15.227z" fill="#C13643"/>
    <path transform="translate(157,176)" d="m0 0 2 1-0.5625 3.3125c-0.69531 3.6237-0.69531 3.6237 0.5625 6.6875h43v1c-6.3721 0.025298-12.744 0.042845-19.116 0.054932-2.169 0.0050373-4.3379 0.011867-6.5068 0.020508-3.1126 0.012092-6.2252 0.017795-9.3379 0.022217-0.974 0.0051613-1.948 0.010323-2.9515 0.01564-0.90078 7.553e-5 -1.8016 1.5106e-4 -2.7296 2.2888e-4 -0.79498 0.0022206-1.59 0.0044412-2.409 0.0067291-1.9489-0.12025-1.9489-0.12025-3.9489-1.1203-0.053997-1.4579-0.092792-2.9164-0.125-4.375-0.034805-1.2182-0.034805-1.2182-0.070312-2.4609 0.19531-2.1641 0.19531-2.1641 2.1953-4.1641z" fill="#B71D28"/>
    <path transform="translate(239,208)" d="m0 0c2.0298 7.1241-2.0392 14.514-5 21h-2l0.125 2.75c-0.12032 3.1282-0.51647 4.6361-2.125 7.25h-2l-1 4c-1.3593-4.0778 0.15138-6.5228 1.7461-10.293 0.28996-0.70603 0.57993-1.4121 0.87868-2.1395 0.92871-2.2555 1.8705-4.5052 2.8127-6.7551 0.63173-1.5276 1.2626-3.0556 1.8926-4.584 1.5467-3.747 3.1052-7.489 4.6699-11.229z" fill="#C33645"/>
    <path transform="translate(230,191)" d="m0 0 2 1c-1.98 4.62-3.96 9.24-6 14h-24l1-4-4 1v-3l5 1v4h21l2-8-2-1 1.9375-0.8125c2.3938-1.0742 2.3938-1.0742 3.0625-4.1875z" fill="#B8202B"/>
    <path transform="translate(225,243)" d="m0 0h1v6h-2l-1 5 21 1v-7l1 2 2 1-2 5h-24c0.87712-5.2627 1.8524-8.3312 4-13z" fill="#B82230"/>
    <path transform="translate(151,156)" d="m0 0c0.99 0.33 1.98 0.66 3 1l-4 2c0.34787 1.9754 0.34787 1.9754 1 4l2 1v2c-4.75-0.875-4.75-0.875-7-2-1.6742 0.98735-3.3405 1.9881-5 3h-3c4.0494-4.1651 8.1655-7.777 13-11z" fill="#C82736"/>
    <path transform="translate(301,154)" d="m0 0v2l-2.4375 1.5c-4.3314 2.6877-7.3383 6.6035-10.609 10.453l-1.9531 2.0469h-2v5l-5 2c2.3237-6.8495 14.114-23 22-23z" fill="#FCE0E2"/>
    <path transform="translate(274,148)" d="m0 0c0.58203 1.8906 0.58203 1.8906 1 4-1.3125 1.75-1.3125 1.75-3 3h-2l-0.75 1.875c-1.4874 2.5286-2.6868 2.8434-5.25 4.125-1.2253 1.9502-1.2253 1.9502-2 4l-1 2-2-1c9.2255-12.67 9.2255-12.67 15-18z" fill="#C23440"/>
    <path transform="translate(241,130)" d="m0 0c4.8987 4.383 6.8193 7.8276 7.1953 14.43-0.034805 1.7054-0.034805 1.7054-0.070312 3.4453-0.018047 1.1524-0.036094 2.3048-0.054688 3.4922-0.034805 1.3032-0.034805 1.3032-0.070312 2.6328l-2 1v-15h-2c-1.1288-3.3111-2.213-6.5898-3-10z" fill="#BC3C4A"/>
    <path transform="translate(506,163)" d="m0 0c2.8893 2.7637 3.9504 4.0591 4.168 8.1875 0.0064453 1.2581 0.012891 2.5162 0.019531 3.8125 0.01418 1.2581 0.028359 2.5162 0.042969 3.8125-0.23047 3.1875-0.23047 3.1875-2.2305 5.1875l-1-17-2-1 1-3z" fill="#BD313F"/>
    <path transform="translate(233,36)" d="m0 0h32v1h-28l-1 3c-0.99-1.32-1.98-2.64-3-4z" fill="#E4E9F3"/>
    <path transform="translate(386,187)" d="m0 0c1.6876 5.0051 0.014475 9.2945-2 14-1.5332 2.0518-2.9933 3.3729-5 5 1.8222-6.6124 4.0522-12.805 7-19z" fill="#BF3342"/>
    <path transform="translate(258,167)" d="m0 0 2 4h3l-1 5-1.75-1.0625c-2.4902-1.3003-2.4902-1.3003-6.25 0.0625l4-8z" fill="#C92735"/>
    <path transform="translate(370,188)" d="m0 0c0.99 0.33 1.98 0.66 3 1-2.2854 4.0896-4.9571 7.4636-8 11l-1-4h3v-2l-2-1h3l2-5z" fill="#C7303F"/>
    <path transform="translate(203,202)" d="m0 0-1 4h24v1h-25v-3l-2-1c2-1 2-1 4-1z" fill="#DD9097"/>
    <path transform="translate(479,171)" d="m0 0h7c2.0935 3.4019 2.1794 6.0527 2 10h-2l-2-7c-2.97-0.495-2.97-0.495-6-1l1-2z" fill="#C72739"/>
    <path transform="translate(230,191)" d="m0 0 2 1c-2.97 6.93-2.97 6.93-6 14-1.2554-3.7662-0.37062-5.3719 1-9l-2-1 1.9375-0.8125c2.3938-1.0742 2.3938-1.0742 3.0625-4.1875z" fill="#C02D3D"/>
    <path transform="translate(361,157)" d="m0 0h1l1 8h-2l-0.8125 2.4375-1.1875 2.5625c-0.99 0.33-1.98 0.66-3 1 1.5347-4.7222 3.2395-9.3586 5-14z" fill="#C43343"/>
    <path transform="translate(412,138)" d="m0 0 2 1c-0.20496 0.62906-0.40992 1.2581-0.62109 1.9062-1.6986 5.3966-2.8573 10.46-3.3789 16.094h-1c-0.35368-7.126 0.043287-12.471 3-19z" fill="#BB2B3C"/>
    <path transform="translate(106,5)" d="m0 0c1.5 1.1875 1.5 1.1875 3 3 0.1875 2.6875 0.1875 2.6875 0 5l-2-3-4 10-2-1c0.642-2.147 1.2887-4.2926 1.9375-6.4375 0.35965-1.195 0.7193-2.3899 1.0898-3.6211 0.97266-2.9414 0.97266-2.9414 1.9727-3.9414z" fill="#E3E9F4"/>
    <path transform="translate(271,188)" d="m0 0c1.3283 3.9849 0.23204 5.4005-1.4375 9.1875-0.47309 1.0867-0.94617 2.1734-1.4336 3.293-0.55881 1.2472-0.55881 1.2472-1.1289 2.5195h-2c0.38529-6.1646 2.4709-9.9863 6-15z" fill="#BC2A39"/>
    <path transform="translate(157,176)" d="m0 0 2 1-0.5625 3.25c-0.36796 3.1539-0.48215 4.8482 0.5625 7.75l-4-1c-0.053997-1.4579-0.092792-2.9164-0.125-4.375-0.034805-1.2182-0.034805-1.2182-0.070312-2.4609 0.19531-2.1641 0.19531-2.1641 2.1953-4.1641z" fill="#C42A3B"/>
    <path transform="translate(409,144)" d="m0 0c1.8785 3.757 0.94855 8.393 0.83984 12.52 0.15393 3.3452 0.71052 5.4959 2.1602 8.4805h-4c-0.028881-3.3125-0.046758-6.6249-0.0625-9.9375-0.0083789-0.94553-0.016758-1.8911-0.025391-2.8652-0.0032227-0.89912-0.0064453-1.7982-0.0097656-2.7246-0.0052368-0.83265-0.010474-1.6653-0.015869-2.5232 0.11353-1.9495 0.11353-1.9495 1.1135-2.9495z" fill="#F9D7D8"/>
    <path transform="translate(268,143)" d="m0 0c0 3 0 3-1.4961 4.7188-0.64066 0.58781-1.2813 1.1756-1.9414 1.7812-2.4839 2.2882-3.4713 3.2264-4.5625 6.5-2.0625 1.1875-2.0625 1.1875-4 2 1.416-3.1491 3.1374-5.4952 5.4375-8.0625 0.59684-0.6716 1.1937-1.3432 1.8086-2.0352 1.5469-1.6778 3.1256-3.3039 4.7539-4.9023z" fill="#F0F9FD"/>
    <path transform="translate(262,208)" d="m0 0h2c-1.5427 4.7207-3.0779 9.4166-5 14h-1v-6h2l-0.125-2.875c0.125-3.125 0.125-3.125 2.125-5.125z" fill="#BF2A38"/>
    <path transform="translate(375,180)" d="m0 0c1 3 1 3-0.4375 6.1875l-1.5625 2.8125h-4v-5h2v2h2c0.14438-0.80438 0.28875-1.6088 0.4375-2.4375 0.5625-2.5625 0.5625-2.5625 1.5625-3.5625z" fill="#C52430"/>
    <path transform="translate(355,172)" d="m0 0c1.1185 3.3555 1.2229 5.6573 0 9-1.8784 1.9097-3.8389 3.3907-6 5l-2-2 2.3125-2.0625c3.0159-3.2965 4.1463-5.8006 5.6875-9.9375z" fill="#C03342"/>
    <path transform="translate(150,128)" d="m0 0c1.3743 3.8176 0.67975 7.0726 0 11h-4c0.47731-1.4589 0.95691-2.9171 1.4375-4.375 0.26684-0.81211 0.53367-1.6242 0.80859-2.4609 0.75391-2.1641 0.75391-2.1641 1.7539-4.1641z" fill="#C63744"/>
    <path transform="translate(467,77)" d="m0 0h2l2 8c-4 0-4 0-6.75-2.5-0.7425-0.825-1.485-1.65-2.25-2.5l5 1v-4z" fill="#E0E5F4"/>
    <path transform="translate(321,144)" d="m0 0c-2.8466 1.4428-5.7164 2.8118-8.625 4.125-0.77602 0.3532-1.552 0.70641-2.3516 1.0703-2.0234 0.80469-2.0234 0.80469-4.0234 0.80469v-3h5v-2c3.3802-1.0401 6.478-1.08 10-1z" fill="#C23443"/>
    <path transform="translate(445,142)" d="m0 0v1c-1.0519 0.20625-2.1038 0.4125-3.1875 0.625-4.4566 1.2319-6.1709 3.6928-8.8125 7.375l-1-3c3.698-6.0838 6.0375-6.7081 13-6z" fill="#FAD7D6"/>
    <path transform="translate(367,139)" d="m0 0 4 2c-1.199 3.0831-2.477 6.0628-4 9h-2c0.14438-0.62648 0.28875-1.253 0.4375-1.8984 0.18562-0.81727 0.37125-1.6345 0.5625-2.4766 0.18562-0.81211 0.37125-1.6242 0.5625-2.4609 0.50355-2.1228 0.50355-2.1228 0.4375-4.1641z" fill="#C32634"/>
    <path transform="translate(426,126)" d="m0 0v3l-2.9375 0.75c-1.0106 0.4125-2.0212 0.825-3.0625 1.25-0.96877 2.0324-0.96877 2.0324-1 4l-5 1c3.5785-4.7714 6.6857-7.2908 12-10z" fill="#BB313F"/>
    <path transform="translate(136,193)" d="m0 0c2.4375 0.6875 2.4375 0.6875 5 2 0.8125 2.625 0.8125 2.625 1 5 0.99 0.33 1.98 0.66 3 1l-2 1c-2.964-2.808-5.445-5.1832-7-9z" fill="#C0303B"/>
    <path transform="translate(226,122)" d="m0 0c5.6491 1.6571 10.263 3.4776 15 7l-2 1c-0.99-0.33-1.98-0.66-3-1v-2c-1.0931-0.26812-2.1862-0.53625-3.3125-0.8125-3.4725-1.1183-4.4058-1.6249-6.6875-4.1875z" fill="#BD2E3D"/>
    <path transform="translate(444.62 67.25)" d="m0 0 2.375 0.75 1 2-2-0.875c-4.7631-0.19846-7.5053 2.8832-11 5.875l-2-1c8.3615-7.0608 8.3615-7.0608 11.625-6.75z" fill="#EBF1FA"/>
    <path transform="translate(244,196)" d="m0 0c1.0401 3.3802 1.08 6.478 1 10l-5 2c1.3333-4 2.6667-8 4-12z" fill="#C33544"/>
    <path transform="translate(236,175)" d="m0 0 2 3c-0.89844 2.6992-0.89844 2.6992-2.375 5.6875-0.48211 0.99387-0.96422 1.9877-1.4609 3.0117-0.38414 0.75926-0.76828 1.5185-1.1641 2.3008-1.2242-3.938-0.4832-6.1611 1-10h2v-4z" fill="#C02B3B"/>
    <path transform="translate(390,142)" d="m0 0h2c-0.65419 5.07-2.8546 9.4199-5 14-1.2596-3.7787-0.48087-5.0341 0.9375-8.6875 0.38027-0.99387 0.76055-1.9877 1.1523-3.0117 0.30035-0.75926 0.6007-1.5185 0.91016-2.3008z" fill="#BC2D3D"/>
    <path transform="translate(28,201)" d="m0 0h3l-1 4 2 1c-4.2191-0.47945-6.7966-1.1663-10-4 2.97 0.495 2.97 0.495 6 1v-2z" fill="#C62F3D"/>
    <path transform="translate(59,153)" d="m0 0v2c-1.9713 1.3754-3.9768 2.7021-6 4-1.6808 1.3154-3.3524 2.6432-5 4v-3c1.8984-1.8242 1.8984-1.8242 4.375-3.6875 0.81211-0.62262 1.6242-1.2452 2.4609-1.8867 2.1641-1.4258 2.1641-1.4258 4.1641-1.4258z" fill="#FCD9DC"/>
    <path transform="translate(225,243)" d="m0 0h1v6h-2l-1 5h-2c0.47731-1.4589 0.95691-2.9171 1.4375-4.375 0.26684-0.81211 0.53367-1.6242 0.80859-2.4609 0.75391-2.1641 0.75391-2.1641 1.7539-4.1641z" fill="#C1323F"/>
    <path transform="translate(145,202)" d="m0 0 3.875 0.3125c1.0789 0.087012 1.0789 0.087012 2.1797 0.17578 1.9453 0.51172 1.9453 0.51172 3.9453 3.5117-6.5231-0.61538-6.5231-0.61538-8.9375-2.5625l-1.0625-1.4375z" fill="#C84251"/>
    <path transform="translate(409,158)" d="m0 0c1.98 0.66 3.96 1.32 6 2l-1 6c-2.7987-2.5279-4.4577-4.2041-5-8z" fill="#C63343"/>
    <path transform="translate(241,130)" d="m0 0c5.5714 5.1429 5.5714 5.1429 6 9-0.99 0.33-1.98 0.66-3 1-1.1288-3.3111-2.213-6.5898-3-10z" fill="#BD323F"/>
    <path transform="translate(360,203)" d="m0 0c-6.4 3.0769-6.4 3.0769-9.4375 2.6875l-1.5625-0.6875 1-2c3.8198-0.77812 6.2684-1.2439 10 0z" fill="#C0313D"/>
    <path transform="translate(58,134)" d="m0 0-5 5v-2c-0.99 0.33-1.98 0.66-3 1 1-3 1-3 2.875-4.25 2.125-0.75 2.125-0.75 5.125 0.25z" fill="#C3343C"/>
    <path transform="translate(201,204)" d="m0 0c-1 2-1 2-3.1875 3.1875-3.312 0.95679-5.4879 0.58566-8.8125-0.1875v-1c1.2375-0.33 2.475-0.66 3.75-1l2.1094-0.5625c2.1406-0.4375 2.1406-0.4375 6.1406-0.4375z" fill="#FDDFE2"/>
    <path transform="translate(117,186)" d="m0 0 5 2c-1.312 1.3543-2.6463 2.6873-4 4h-1v-6z" fill="#BA2E3E"/>
    <path transform="translate(303,129)" d="m0 0 2 1c-0.99 0.33-1.98 0.66-3 1v3h-7c2.5462-2.0006 4.9804-3.7922 8-5z" fill="#C12A38"/>
    <path transform="translate(265,155)" d="m0 0 2 1-5 7-1-3c1.9375-2.6875 1.9375-2.6875 4-5z" fill="#FDE4E3"/>
    <path transform="translate(62,147)" d="m0 0h7c-2.4628 2.4628-4.7068 2.9977-8 4l1-4z" fill="#C33343"/>
    <path transform="translate(439,140)" d="m0 0v2c-2.5 1.625-2.5 1.625-5 3l-1-4c3-1 3-1 6-1z" fill="#C42334"/>
    <path transform="translate(524,130)" d="m0 0h2l-3 9h-1v-6h2v-3z" fill="#BB2839"/>
</svg>
