<?xml version="1.0" encoding="UTF-8"?>
<svg enable-background="new 0 0 313.1 313.2" version="1.1" viewBox="0 0 313.1 313.2" xml:space="preserve" xmlns="http://www.w3.org/2000/svg">
<style type="text/css">
	.st0{fill-rule:evenodd;clip-rule:evenodd;fill:#0033A0;}
</style>
	<path class="st0" d="m185.3 67.4c10.6-31.1 6.2-60.3-14.3-63.8-23.1-3.9-40.9 19.7-45.7 60.1-49.8 6.3-102.6 37.7-102.6 90.6 0 56.9 64.9 64.9 74.1 22.6-43.3-3-40.8-85.2 27.4-101.2-0.7 13.4 0 28.3 2.2 44.4-8.4 5-17.7 9.7-27.8 14.2 0 0 0.1 14.1 0.2 18.7 11.3-5.3 21.3-10.8 30.1-16.5 6.1 43.6 6.8 108-15.2 140.7-13.4-6.6-27.1-13.6-42.8-13.6-43.9 0-44.9 46.2 4 46.2 16.7 0 31.3-5.9 44-15.4 75.3 41.2 171.6-4.7 171.6-105.2-0.1-55.3-44-106.1-105.2-121.8m-108.7 231.2c-24 0-23.8-24.3-1-24.3 9 0 20.4 6 30.4 12.2-7.7 7.2-17.4 12.1-29.4 12.1m89.5-272.7c10.7 1.9 12.9 19.4 7.1 38.9-11.1-1.9-22.6-2.7-34.5-2.2 4.5-22.2 15.1-38.8 27.4-36.7m-29.1 47.8c10.4-0.9 21.3-0.1 31.9 2.6-6.1 13.5-16 26.7-29.5 35.4-3.1-12.4-3.7-25.7-2.4-38m-8.1 212.1c35.5-34.8 53.6-97.8 60.5-125.3-23.1-3.6-37.4-17.5-45.3-35.1 16.2-12.4 28.3-28.8 36.1-45.5 35.6 13.8 65.9 49.8 65.9 111.3 0 68.1-58.5 120.9-117.2 94.6"/>
</svg>
