<svg xmlns="http://www.w3.org/2000/svg" viewBox="0 0 960 640"><path fill="#fff" d="M477 455a15 15 0 1 0 0 30 15 15 0 0 0 0-30m0 27a12 12 0 0 1-11-12 12 12 0 1 1 11 12m7-15a5 5 0 0 0-5-5h-8v17h4v-7h2l3 7h4l-4-7a5 5 0 0 0 4-5m-5 2h-4v-4h4l1 2zM806 0l-58 39a1553 1553 0 0 1-401 155c-38 9-76 21-100 28q-37 12-55 34a74 74 0 0 0-18 60q4 25 28 37 11 8 26 7c-7 4-30 19-46 42-15 22-16 43-16 43q-1 11 3 15l-3 5c-6 9-13 19-13 31v2q3 10 8 12c22 13 44 10 56 7 9 2 26 0 36-7 12-8 16-23 17-33l9-5c7-4 11-3 18-5-7 11-19 32-31 49l-15 18-4-3q-8-5-20-2h-1q-13-2-21 4-6 4-6 5-8-1-20 6c-7 5-15 15-13 30 1 5 7 21 30 22 0 0-1-10 4-10 13 1 21 10 22 14 3 4-1 8 2 14-5 7-15 7-15 7 4 17 20 20 27 19 14-3 17-7 19-8l6-8s10-5 14-17c3-9 1-12 1-22l5-8 19-24c17-17 29-21 45-27 22-9 71-31 88-48l32-36c25-14 43-30 50-38l10-16 35-20c35-22 91-63 110-84 10-11 17-28 16-28 0 0-17 11-19 11 16-17 48-73 51-80 20-15 31-25 36-38 4-8 8-25 5-23l-20 14c11-26 23-68 26-77 18-14 32-32 36-40 3-8 8-25 5-23"/><path fill="#010101" d="M457 175c-93 29-157 39-207 55q-31 9-50 32a65 65 0 0 0-15 52q3 21 20 30c16 10 38 4 46 2q9-1 14 4c-5 1-15 7-15 7-33 17-47 34-55 43s-22 32-20 50q0 7 4 9c-6 12-17 23-18 37l4 7c15 10 30 9 46 8l-6-13q2-9 5-14l8-6s5 9 6 15c0 3 2 12-2 16h1q12 2 25-7c10-6 13-23 15-32l7-4c6-4 22-9 29-8q12 1 13 2l-1 1c-6 13-47 72-61 86q-1-4-7-9c-3-2-11-3-16 0l-4-1q-10-1-15 3l-5 5c-4 1-5-1-14 2q-13 3-16 20-1 15 14 20l4 1c-1-5 1-13 8-14q7 9 17 7 0 6 11 9 0 7 5 11-4 6-1 14l-6 7-8 2c-1 2 4 7 6 8q5 4 15 2 8-2 14-8l5-6q7-4 11-15c3-12-2-21-1-24 7-11 20-25 31-37 20-20 42-26 54-30 11-3 56-23 75-42l33-36c25-15 43-31 48-37q7-10 9-16l8-4 2-1 3-2h1l25-16c41-26 96-66 111-85l-40 25c25-23 73-96 83-116 20-17 32-27 37-39q-13 11-30 21c6-11 35-90 41-110q26-21 35-38l-40 28c-68 42-213 103-296 129"/><path fill="#8f654d" d="m680 133 36-20-30 33 10 23-33-2-48 43 21-37-32-2 49-25 16-28zM380 255l48-16-44 37 13 27-41-6-51 32 25-36-54-5 71-23 23-28zm165-58 45-20q-19 18-37 35l12 25-44-1-56 39 27-41h-48c22-5 48-17 68-24l22-31zm44 85 33-18-28 30 9 22-30-3-44 39 19-34-30-3 46-23 14-25zm-126 58 44-20-34 36 11 27-42-3-52 41 25-44-45-2 63-23 21-33zM268 553l17-8c-1 3-18 25-25 33q0 8 2 18 0 8-3 12l-5 6q-3-6-8-7l-9 2q-3-4 2-9 6-4 8-3l6 2q0-6-8-7c2-11-6-18-6-18 1-2 4-7 0-12q0 1-2 4-3 4-10 3l-6-5q5 0 8-4 3-6 3-13 2-3 6-1 7 3 8 11l4 4 18-21zm-15-107q-26 5-46 19l-3-2c-2-1-9-4-13-2q-9 8-15 18c-2 5-7 13-3 17s16 7 25 8l-2-6q1-8 5-15c4-7 19-20 30-25 7-4 17-6 17-6q3 26-8 42-4 3-5 2c0-10-6-23-10-27l-2 2c4 5 11 22 9 31q2 1 8-3c14-9 18-37 13-53m-60 37-2-6q1-5 6-11l5 3c-2 2-10 8-9 14m37-54q1 4-3 6-3 1-5-1l-1 4q5 1 9-2 4-5 1-10-2-3-5-2l-1 2q3 0 5 3"/><path fill="#fff" d="m371 321-42 14-36 13c-22 12-28 17-34 22l-8 9h-1c0-3 2-12 4-14a77 77 0 0 0-37 34l-4 7h-1q0-6 1-11-9 8-18 21c-3 5-9 17-10 26-1 2-2 10 2 12 6-3 17-1 21 2 17-10 27-13 52-17h10l-9 4 2 16c12-8 31-14 55-9l10-19-15 7c5-11 20-32 26-38-13 2-28 11-33 15 11-27 33-44 38-48-4 1-25 6-39 17 13-27 34-41 57-50 73-24 200-70 270-107 24-12 55-28 62-36-76 50-239 105-323 130m-125 99s-6 0-11 2q6 8-1 17c-3 4-11 5-16 3l-2 4c-1 0-9 0-12-2l8-2c2-2 9-18 10-25 2-1 15-1 25 2zm85 47q13-8 59-22c31-9 85-37 108-55-23 13-93 41-135 53-11 3-26 10-33 14-12 8-19 25-19 25s11-10 20-15m-106 85q-1 4-4 5c-5 0-12 5-13 8l-1 5-3-3q-3-6 1-14c3-5 10-8 13-8l7 1zm432-441q35-17 66-35s-14 12-40 25c-32 15-74 36-99 46-39 15-133 60-251 87-26 7-98 18-124 53 3-11 13-24 26-31 14-8 41-18 56-21 134-29 260-76 366-124M196 563q-9 3-10 8l-1 7q-3-1-5-7-1-7 5-13 5-3 11-4zm50 51q2 2 3 5c-1 4-8 10-15 10l-7-2c4-2 11-6 11-12q3-3 8-1"/><path fill="#c8102e" d="M244 459q2 17-6 32c1-8-5-20-9-25 4-3 12-6 15-7"/></svg>