<?xml version="1.0" encoding="UTF-8"?>
<svg version="1.1" viewBox="0 0 200 219" xmlns="http://www.w3.org/2000/svg">
    <path transform="translate(76,97)" d="m0 0h47v34l-2 1 1-6c-2.31 0.33-4.62 0.66-7 1l-1-9h-2l1-4 3 2v2h3l-1-2.75c-1-3.25-1-3.25-1-7.25-0.99-0.33-1.98-0.66-3-1l-1-2c-0.99-0.33-1.98-0.66-3-1l-1 3-3 2-1 3-4-1c-0.097656-6.1523-0.097656-6.1523 0-8l1-1h-7v2h3v2c-2.31-0.33-4.62-0.66-7-1v-4h-3l-0.3125 2.3125c-0.6875 2.6875-0.6875 2.6875-2.25 4.0625-2.3088 2.61-1.626 5.2943-1.4375 8.625 1.6467-0.11356 3.2924-0.24117 4.9375-0.375 1.3748-0.10441 1.3748-0.10441 2.7773-0.21094 0.7541-0.13664 1.5082-0.27328 2.2852-0.41406l1-2c3.117 4.3366 3.5597 7.8041 4 13-0.99-0.33-1.98-0.66-3-1-0.6875-2.0625-0.6875-2.0625-1-4-1.98 0.66-3.96 1.32-6 2l-1-1c-2.5-0.16667-2.5-0.16667-5 0-1.2595 1.0341-1.2595 1.0341-1.0977 3.2852 0.011602 0.91652 0.023203 1.833 0.035156 2.7773 0.013535 1.3787 0.013535 1.3787 0.027344 2.7852 0.011602 0.71027 0.023203 1.4205 0.035156 2.1523 3.2833-2.9235 3.9587-5.7546 5-10l2 1v9h-2l-1 13-3 1c3.3679 2.2453 4.8415 1.987 8.7383 1.8789 5.2117 0.27904 9.9661 2.2573 14.262 5.1211l-2 1c-1.1222 1.8801-1.1222 1.8801-2.125 4.0625-0.3532 0.73348-0.70641 1.467-1.0703 2.2227-0.39832 0.84885-0.39832 0.84885-0.80469 1.7148l-2-3c-0.53625-0.68062-1.0725-1.3612-1.625-2.0625-1.375-1.9375-1.375-1.9375-1.375-3.9375-0.61746 0.023203-1.2349 0.046406-1.8711 0.070312-7.1502 0.15236-14.042-0.01231-20.129-4.0703 0.50604-2.1687 0.99984-3.9997 2-6 0.11805-1.5108 0.17696-3.0264 0.20532-4.5415 0.020182-0.95399 0.040364-1.908 0.061157-2.8909 0.016476-1.0046 0.032952-2.0092 0.049927-3.0442 0.018651-0.92192 0.037302-1.8438 0.056519-2.7937 0.068418-3.4515 0.12849-6.9031 0.18958-10.355l0.4375-23.375z" fill="#B20806"/>
    <path transform="translate(152,76)" d="m0 0c0.98333 3.0593 1.1345 4.9746 0 8-1.5625 2.25-1.5625 2.25-3 4l2-1c0.99 0.33 1.98 0.66 3 1v5l-4 2 5 2-1.0625 2.875c-1.2878 2.9956-1.2878 2.9956 0.0625 5.125-0.75 2.0625-0.75 2.0625-2 4l-3 1-3-2 2 3-2 3 2 4v-5c3.875-1 3.875-1 5-1l1-2 7 5-1 4c-4.75 1.125-4.75 1.125-7 0l-1 4-4 1c-3-5.625-3-5.625-3-9h-3l-1-2-2 2c-2.0625-0.1875-2.0625-0.1875-4-1l-1-3-1 4-8-1v-11l6 3c5.9328 0.50204 5.9328 0.50204 11-2 1.1776-3.3242 1.1776-3.3242 1-7-1.3132-1.6826-2.6461-3.35-4-5 0.25-3.3125 0.25-3.3125 1-6 0.99-0.33 1.98-0.66 3-1v2c3.1824-2.9376 5.1223-4.7579 6-9l3-2z" fill="#E9C400"/>
    <path transform="translate(45,71)" d="m0 0c13.427 10.909 13.427 10.909 16.25 18.25-0.25 2.75-0.25 2.75-2.25 5.1875-2.3874 2.5054-2.3874 2.5054-1.9375 6.25 0.62374 3.5724 0.62374 3.5724 3.9375 5.3125 1.9897 0.39014 3.9902 0.73203 6 1-0.99 0.33-1.98 0.66-3 1l-1 5-3-2-2 4h-5v-6h-1c-1.6682-0.32551-3.335-0.65846-5-1l1-5-3-2c-0.1875-3.125-0.1875-3.125 0-6l2-1c-2.8-0.93332-4.8975-1.1869-7.8125-1.375-4.308-0.41569-7.5919-1.0435-11.188-3.625-0.875-2.6875-0.875-2.6875-1-5l2 1 1.75-0.5625c3.2303-0.6281 5.2599 0.29014 8.25 1.5625 1.875 1.625 1.875 1.625 3 3h-4l4 1 2-3c1-1 1-1 3.5625-1.0625l2.4375 0.0625-2.5625-2.0625c-2.4375-2.9375-2.4375-2.9375-2.25-6.75l0.8125-3.1875-2 3c-0.042721-1.6661-0.040638-3.3338 0-5l1-1z" fill="#E3BF00"/>
    <path transform="translate(193,50)" d="m0 0c0.36575 4.5719 0.48822 8.004-1.5625 12.188-2.8784 3.3213-5.9986 6.0884-9.4375 8.8125 0.50789-0.28875 1.0158-0.5775 1.5391-0.875 4.339-2.3401 7.4003-3.6311 12.461-3.125l-1 3-1-1 0.3125 2.1875c-0.43699 3.9329-2.4133 5.2757-5.3125 7.8125h9c-1.3516 4.4233-3.1989 6.4041-7 9l-3 1c1.4072-3.4006 3.0287-4.8923 6-7-1.9587 0.14076-3.917 0.28777-5.875 0.4375-1.0905 0.081211-2.1811 0.16242-3.3047 0.24609-2.7676 0.14642-2.7676 0.14642-4.8203 1.3164-3.5 0.1875-3.5 0.1875-7 0l-2-2h-2c2.0677-5.3169 3.7787-9.0602 8-13-0.93973 0.55881-0.93973 0.55881-1.8984 1.1289-0.81727 0.47309-1.6345 0.94617-2.4766 1.4336-0.81211 0.47566-1.6242 0.95133-2.4609 1.4414-0.71414 0.32871-1.4283 0.65742-2.1641 0.99609l-2-1c0.90621-0.76184 1.8124-1.5237 2.7461-2.3086 6.4153-5.4268 12.664-10.873 18.484-16.949 3.8009-3.7422 3.8009-3.7422 5.7695-3.7422z" fill="#CAAA00"/>
    <path transform="translate(88,183)" d="m0 0-7 7c-0.20873 2.783-0.25641 4.4872 1 7-1.98 0.33-3.96 0.66-6 1l1 5 7 2v2c-6.9156 3.8599-6.9156 3.8599-11 3-2.5384-2.6089-3.8474-4.5422-5-8-0.99 1.32-1.98 2.64-3 4-1.5-1.125-1.5-1.125-3-3-0.375-3-0.375-3 0-6 1.5-1.875 1.5-1.875 3-3l-2-2c0.25-2.5625 0.25-2.5625 1-5l2-1 2 3c4.4141-0.40128 6.959-2.2034 10.352-4.8438 3.4477-2.4183 5.7467-2.1053 9.6484-1.1562z" fill="#D2B000"/>
    <path transform="translate(125,94.375)" d="m0 0c2.4283 0.39551 4.5188 0.625 7 0.625-0.125 2.3125-0.125 2.3125-1 5-3.0625 1.8125-3.0625 1.8125-6 3 0.14231 1.417 0.28901 2.8336 0.4375 4.25 0.12182 1.1834 0.12182 1.1834 0.24609 2.3906 0.29276 2.183 0.73705 4.2367 1.3164 6.3594l5 1c-0.11429 1.7716-0.24183 3.5423-0.375 5.3125-0.069609 0.98613-0.13922 1.9723-0.21094 2.9883-0.41406 2.6992-0.41406 2.6992-2.4141 5.6992-0.45772 2.7387-0.45772 2.7387-0.625 5.6875-0.074766 0.99387-0.14953 1.9877-0.22656 3.0117-0.048984 0.75926-0.097969 1.5185-0.14844 2.3008h-3l0.5625 1.75c0.47774 2.4569 0.19479 3.894-0.5625 6.25l2 1-1 2c-2.5 0.6875-2.5 0.6875-5 1l-1-1c-1.8529-0.072265-3.7083-0.083812-5.5625-0.0625-1.0119 0.0090234-2.0238 0.018047-3.0664 0.027344-1.1737 0.017402-1.1737 0.017402-2.3711 0.035156l1-4h12l1-52-5-1c3.2193-2.1462 3.4778-2.2254 7-1.625z" fill="#995A00"/>
    <path transform="translate(96)" d="m0 0h8c0.026982 1.6249 0.046388 3.2499 0.0625 4.875 0.011602 0.90492 0.023203 1.8098 0.035156 2.7422-0.097656 2.3828-0.097656 2.3828-1.0977 4.3828l3.1875 0.25c4.1977 0.82578 6.0145 1.528 8.8125 4.75 0.83089 5.5047-0.63129 9.1639-3 14-1.237-3.711-0.42127-4.4886 1-8 0.58402-2.5858 0.58402-2.5858 0-5-2.4086-1.8624-2.4086-1.8624-5-3l-1 4h-2l-1 7-3.375-0.0625c-3.4572-0.20131-3.4572-0.20131-5.625 1.0625l0.1875-3.75c0.016128-3.0321-0.08099-4.0725-1.6875-6.75l-1.5-1.5-4 1c-0.15149 3.6289-0.15149 3.6289 1 7h-2l-1 3c-0.63039-2.861-1.1123-5.1129-1-8 2.6335-3.8679 4.228-4.8355 8.8125-5.8125 1.5778-0.092812 1.5778-0.092812 3.1875-0.1875-0.15598-0.61488-0.31195-1.2298-0.47266-1.8633-0.19465-0.80824-0.3893-1.6165-0.58984-2.4492-0.19723-0.80051-0.39445-1.601-0.59766-2.4258-0.33984-2.2617-0.33984-2.2617 0.66016-5.2617z" fill="#443900"/>
    <path transform="translate(49,94)" d="m0 0-1.5 1.25c-1.9339 1.872-1.9339 1.872-1.5 5.75l5 1c-0.99 0.33-1.98 0.66-3 1v5c1.98-0.33 3.96-0.66 6-1l-1 4 5 4 1-5c1 3 1 3 0 6h-3l-1 2v-2l-5 4 0.625-2.875 0.375-3.125-2-2-4 3v-3l-2-1 2-6c-1.1962 0.33-2.3925 0.66-3.625 1-3.5443 0.87351-6.7084 1.4365-10.375 1l-2-3c0.99-1.32 1.98-2.64 3-4l-2-2c-0.625-2.625-0.625-2.625-1-5 2.3953-0.22296 4.79-0.42874 7.1875-0.625 0.67354-0.064453 1.3471-0.12891 2.041-0.19531 4.1424-0.32331 7.0545-0.07064 10.771 1.8203z" fill="#A38900"/>
    <path transform="translate(30,115)" d="m0 0c-1.4563 0.6712-2.9151 1.3368-4.375 2-0.81211 0.37125-1.6242 0.7425-2.4609 1.125-2.1641 0.875-2.1641 0.875-4.1641 0.875v8c5.5156-2.8804 10.363-5.8385 15-10l2 1c-1.1563 0.9784-1.1563 0.9784-2.3359 1.9766-1.0136 0.88218-2.0266 1.765-3.0391 2.6484-0.99773 0.85852-1.9955 1.717-3.0234 2.6016-2.7232 2.9031-3.6705 4.9481-4.6016 8.7734l4 1v1h-6c0.33322 0.67579 0.66645 1.3516 1.0098 2.0479 1.5049 3.0635 2.9977 6.1327 4.4902 9.2021 0.52465 1.0635 1.0493 2.127 1.5898 3.2227 0.49629 1.0248 0.99258 2.0496 1.5039 3.1055 0.46084 0.94263 0.92168 1.8853 1.3965 2.8564 1.0098 2.5654 1.0098 2.5654 1.0098 6.5654-3-1-3-1-4.135-3.1172-0.34861-0.91008-0.69722-1.8202-1.0564-2.7578-0.38736-0.98484-0.77473-1.9697-1.1738-2.9844-0.3951-1.0364-0.7902-2.0728-1.1973-3.1406-0.78685-2.044-1.5795-4.0858-2.3789-6.125-0.34748-0.91008-0.69497-1.8202-1.053-2.7578-0.8161-2.2791-0.8161-2.2791-3.0056-3.1172-3-5.4231-3-5.4231-3-8h-2v-2l-2.3125-0.875c-2.6875-1.125-2.6875-1.125-5.6875-3.125l1-2h8v2c0.99-0.33 1.98-0.66 3-1l-2-1 2-2c0.39764-1.9882 0.73775-3.9894 1-6l1 2c0.5427-0.22816 1.0854-0.45633 1.6445-0.69141 0.71543-0.28746 1.4309-0.57492 2.168-0.87109 0.7077-0.29004 1.4154-0.58008 2.1445-0.87891 2.043-0.55859 2.043-0.55859 5.043 0.44141z" fill="#685700"/>
    <path transform="translate(183,34)" d="m0 0 4 2c0.82081 8.5729-0.81255 14.785-6.252 21.559-4.1669 4.898-8.4397 9.7563-13.748 13.441 1.5731-4.7284 4.2064-8.3434 7.125-12.312 0.70189-0.96776 0.70189-0.96776 1.418-1.9551 1.1476-1.5809 2.3017-3.1571 3.457-4.7324-2.7164 2.6709-5.3477 5.3042-7.6875 8.3125-0.76312 0.88688-1.5262 1.7738-2.3125 2.6875h-2c0.5367-4.2936 1.9629-6.6287 4.625-10 4.5455-6.0142 7.9646-12.296 11.375-19z" fill="#DBB900"/>
    <path transform="translate(14,34)" d="m0 0c4.2706 1.4947 5.3147 3.987 7.25 7.9375 2.9439 5.7661 6.302 10.738 10.344 15.82 0.46406 0.73992 0.92812 1.4798 1.4062 2.2422l-1 3c-4.6956-3.3146-7.7247-7.3628-11-12 3.9971 7.0483 3.9971 7.0483 8.9375 13.438 0.68062 0.84562 1.3612 1.6912 2.0625 2.5625l-1 3c-17.535-16.987-17.535-16.987-18.133-27.289 0.0025781-0.77086 0.0051562-1.5417 0.0078125-2.3359-0.0025781-0.77602-0.0051562-1.552-0.0078125-2.3516 0.13281-2.0234 0.13281-2.0234 1.1328-4.0234z" fill="#DDBA00"/>
    <path transform="translate(103,177)" d="m0 0c3.3776 3.1684 6.099 6.6597 8.75 10.438 0.41121 0.5601 0.82242 1.1202 1.2461 1.6973 2.3917 3.4049 3.5354 5.6837 3.0039 9.8652l2 1c-0.875 4.875-0.875 4.875-2 6l3 2c-3.7933 4.7416-3.7933 4.7416-7.043 5.4375-2.1445 0.0625-2.1445 0.0625-5.957-0.4375l-2-3 2.5-0.875c2.5935-1.8095 2.5935-1.8095 3.043-3.9883 0.41992-6.7528-1.8728-12.473-4.4075-18.602-1.4327-3.4735-2.1355-5.7114-2.1355-9.5344z" fill="#D0AF00"/>
    <path transform="translate(104,172)" d="m0 0c0.7425 1.0944 0.7425 1.0944 1.5 2.2109 3.1153 3.4756 6.4076 5.2641 10.5 7.4141 1.4181 0.76041 2.8348 1.5234 4.25 2.2891 0.65823 0.35457 1.3165 0.70915 1.9946 1.0745 1.7554 1.0115 1.7554 1.0115 4.0913 2.7966 1.6758 1.4979 1.6758 1.4979 4.2891 1.0273 2.5252-0.66927 2.5252-0.66927 4.375-2.8125l2 2-0.5 3.4375c-0.9161 3.6587-0.9161 3.6587 1.5 6.5625 0.375 2.4375 0.375 2.4375 0 5-2 2.3125-2 2.3125-4 4l-2-5-1.3125 2.875c-1.6875 3.125-1.6875 3.125-4.6875 5.125l1.125-2.25c1.3039-5.5883 1.0051-10.393-1.125-15.75-3.6067-3.7224-7.7228-6.1779-12.586-7.9336-2.8252-1.248-4.2288-2.6666-6.2266-5.0039-0.60457-0.68965-1.2091-1.3793-1.832-2.0898-1.3555-1.9727-1.3555-1.9727-1.3555-4.9727z" fill="#C9A900"/>
    <path transform="translate(4,67)" d="m0 0c7.1251 0.35731 11.531 1.8914 17.438 5.8125 0.70576 0.43893 1.4115 0.87785 2.1387 1.3301 3.6083 2.3193 5.6962 3.8252 7.4238 7.8574-3.7243-1.2126-7.378-2.5086-11-4l3 1.875 3 2.125v2c-2.459-0.30812-4.9171-0.62129-7.375-0.9375-1.048-0.13052-1.048-0.13052-2.1172-0.26367-5.2812-0.68555-5.2812-0.68555-7.5078-1.7988-2.333-0.040224-4.6671-0.043202-7 0v-2h10c-0.74057-0.54527-0.74057-0.54527-1.4961-1.1016-5.2981-4.1574-5.2981-4.1574-6.4414-8.2734l-0.0625-2.625z" fill="#D5B300"/>
    <path transform="translate(88,155)" d="m0 0c3.25-0.3125 3.25-0.3125 7 0 2.2295 2.2295 3.5993 4.1985 5 7 0.45375-0.78375 0.9075-1.5675 1.375-2.375 1.625-2.625 1.625-2.625 3.625-4.625 3.625-0.125 3.625-0.125 7 0-0.28875 0.84562-0.5775 1.6912-0.875 2.5625l-1.125 3.4375-1.25 3.5625c-0.82943 3.8015-0.68107 5.1271 1.25 8.4375 1.5201 1.7728 1.5201 1.7728 3 3-2.3125 0.25-2.3125 0.25-5 0-2.5989-2.5989-3.7634-5.5757-5-9l-3 6h-1c-0.26812-0.92812-0.53625-1.8562-0.8125-2.8125-1.1478-3.081-1.7683-4.1404-4.1875-6.1875-3.0825-2.8023-4.6777-5.033-6-9z" fill="#C1A300"/>
    <path transform="translate(80,61)" d="m0 0c3.8665 3.2221 4.8806 6.1492 6 11v-10c3.0867 3.0867 3.4486 3.9193 4 8h-1c-0.02127 1.4676-0.02127 1.4676-0.042969 2.9648-0.5703 15.676-0.5703 15.676-5.957 21.035-2.6719 0.72656-2.6719 0.72656-5 1 0.99-1.32 1.98-2.64 3-4h-6l-1-2c0.94875-0.2475 1.8975-0.495 2.875-0.75 3.1518-0.9167 3.1518-0.9167 4.3242-3.0625 1.4044-3.8364 0.79934-7.2893-0.19922-11.188-2.2007-4.6725-5.1336-8.5632-9-12l2.875 1.0625c2.9956 1.2878 2.9956 1.2878 5.125-0.0625v-2z" fill="#C9A900"/>
    <path transform="translate(151,86)" d="m0 0c7.75 0.875 7.75 0.875 10 2 0.99 0.33 1.98 0.66 3 1l-7 3c0.65227-0.11859 1.3045-0.23719 1.9766-0.35938 8.0273-1.184 8.0273-1.184 11.648 1.2969l2.375 2.0625c-2.2679 3.6467-4.064 4.679-8.1875 5.75-1.3516 0.36352-1.3516 0.36352-2.7305 0.73438-0.68707 0.17016-1.3741 0.34031-2.082 0.51562l2 2c-8.4286 1.4286-8.4286 1.4286-13-1v-1h5v-5c-2.97-0.495-2.97-0.495-6-1 2-2 2-2 5-3l1-5h-3v-2z" fill="#998100"/>
    <path transform="translate(94,165)" d="m0 0c2.6411 2.6411 3.5374 5.5872 5 9l2 2c0.625 2.125 0.625 2.125 1 4l-4 1c-0.060586 0.60328-0.12117 1.2066-0.18359 1.8281-0.083789 0.79922-0.16758 1.5984-0.25391 2.4219-0.081211 0.78891-0.16242 1.5778-0.24609 2.3906-0.31641 2.3594-0.31641 2.3594-0.83984 4.4336-1.7121 6.9186 0.12062 14.112 1.5234 20.926h4l2-9 3 6-2 1c1.4974 1.4974 2.9882 1.332 5.0625 1.5625l3.9375 0.4375v2c-0.68707-0.034805-1.3741-0.069609-2.082-0.10547-0.90105-0.02707-1.8021-0.054141-2.7305-0.082031-0.89332-0.034805-1.7866-0.069609-2.707-0.10547-2.8969 0.34216-3.706 1.0469-5.4805 3.293-2.468-1.1517-4.0478-2.0478-6-4v-3l-2.5-1.5c-2.8621-2.8621-2.9554-3.5423-3.125-7.4375 0.24436-5.8725 2.1237-10.76 4.4336-16.117 1.0959-2.7093 1.9128-5.0372 2.1914-7.9453l-2-2c0.32442-1.6684 0.65939-3.3348 1-5-0.38334-3.2211-0.38334-3.2211-1-6zm0 25 1 2zm-1 2c-1.5913 4.8733-2.2119 8.8079-2 14l2 1 1-15h-1z" fill="#382F00"/>
    <path transform="translate(7,50)" d="m0 0c1.2761 0.90933 2.5457 1.8278 3.8125 2.75 1.0615 0.7657 1.0615 0.7657 2.1445 1.5469 2.0727 1.7279 3.5167 3.4884 5.043 5.7031-3 0-3 0-5.6875-2.5-0.76312-0.825-1.5262-1.65-2.3125-2.5 0.49 4.312 1.3272 6.6299 4 10v3l2.25 0.75c2.9512 1.3415 4.5981 2.8591 6.75 5.25-3.1042-1.1641-6.0108-2.5177-8.9375-4.0625-3.3347-1.7022-6.3042-2.5617-10.062-2.9375 2.0892 6.9641 5.8074 9.4558 12 13-0.99 0.33-1.98 0.66-3 1l-2-1c-1.5367-0.22468-3.0797-0.40797-4.625-0.5625-0.81727-0.083789-1.6345-0.16758-2.4766-0.25391-0.93973-0.090879-0.93973-0.090879-1.8984-0.18359 1.1253 1.3562 1.1253 1.3562 4.0625 1.0625 1.4541-0.030938 1.4541-0.030938 2.9375-0.0625l-3 2 6 5-1 2c-4.96-1.2688-7.8059-2.9604-11-7-0.3125-2.8125-0.3125-2.8125 0-5 1.98-0.33 3.96-0.66 6-1l-1.4375-1c-2.4204-3.0981-2.2445-6.1203-2.5625-10 3.465-0.495 3.465-0.495 7-1l-1.5625-3.0625c-1.7016-3.8962-1.3707-6.7804-0.4375-10.938z" fill="#4B4000"/>
    <path transform="translate(19,139)" d="m0 0c2.6189 2.3026 3.7513 4.3842 4.9727 7.6328 0.34225 0.88816 0.68449 1.7763 1.0371 2.6914 0.5211 1.3864 0.5211 1.3864 1.0527 2.8008 0.69287 1.8383 1.3918 3.6744 2.0977 5.5078 0.30559 0.81356 0.61118 1.6271 0.92603 2.4653 0.76068 2.0805 0.76068 2.0805 2.9138 2.9019l-2-9c2.5235 3.1243 4.2726 6.3806 6 10l-2 3h-2c0.36094 0.98742 0.72188 1.9748 1.0938 2.9922 0.46892 1.2942 0.93766 2.5885 1.4062 3.8828 0.23848 0.65098 0.47695 1.302 0.72266 1.9727 1.7773 4.9258 1.7773 4.9258 1.7773 7.1523l2 1c-1.9375-0.375-1.9375-0.375-4-1l-1-2v3l7 2-1-4 2-1 1-3h2l-2 9-5 1 1 1c0.45375 0.47438 0.9075 0.94875 1.375 1.4375 1.7455 1.7706 1.7455 1.7706 4.625 3.5625h-2l1.5 1.375c1.5 1.625 1.5 1.625 1.5 3.625l3 1-2 1c-4.875-3.625-4.875-3.625-6-7-2.0002-1.2088-2.0002-1.2088-4-2v-2l-1.875-0.8125c-2.125-1.1875-2.125-1.1875-4.125-4.1875 0.30185-2.9582 0.66719-5.3344 2-8-0.89768-2.6247-0.89768-2.6247-2.25-5.5625-1.5374-3.5549-3.0241-7.0553-4.1875-10.75-1.5831-4.9887-3.5826-9.8025-5.5818-14.636-1.9807-4.8421-1.9807-4.8421-1.9807-7.0515z" fill="#1B1700"/>
    <path transform="translate(141,151)" d="m0 0c2.488 1.7986 2.956 2.7403 3.4766 5.8125 0.048984 1.0519 0.097969 2.1038 0.14844 3.1875 0.17001 3.3031 0.32591 5.8527 1.375 9-4.875-0.875-4.875-0.875-6-2l-1 5-5-2v-5c0.99-0.33 1.98-0.66 3-1l-2-3-2 2-5-3 1-2c1.323-0.3721 2.6574-0.7063 4-1l1-1-2-2 2-1v-2c2.7337-1.3668 4.1067-0.84683 7 0z" fill="#D1B000"/>
    <path transform="translate(167,151)" d="m0 0h2l1 2h2v6h2v3l1.875 0.5625c3.181 2.1519 3.3195 4.8128 4.125 8.4375h-2v2h-8l-1-5h-2l-1 2-2-1c-0.41406-2.0664-0.41406-2.0664-0.625-4.5625-0.074766-0.82629-0.14953-1.6526-0.22656-2.5039-0.048984-0.63809-0.097969-1.2762-0.14844-1.9336l4-1-2-5h2v-3z" fill="#9E8500"/>
    <path transform="translate(93,141)" d="m0 0c2.97 0.495 2.97 0.495 6 1 0.6875 1.8125 0.6875 1.8125 1 4l-3 3c2.97-0.99 5.94-1.98 9-3l2 4-1 2h15l-1 4-5 1v-2l-1.875 0.5625c-2.125 0.4375-2.125 0.4375-4.125-0.5625l-1 2v-2c-1.98 0.66-3.96 1.32-6 2v-4c-7.0993-2.2207-7.0993-2.2207-14.438-3-2.5625 0-2.5625 0-4.9375-1.1875-1.625-1.8125-1.625-1.8125-1.875-4.5l0.25-2.3125 1 4c3.374 0.41726 3.374 0.41726 7 0 2.0086-2.3727 2.0086-2.3727 3-5z" fill="#432C0A"/>
    <path transform="translate(96,176)" d="m0 0h1c0.27667 4.7389-0.51992 7.9259-2.4375 12.25-0.45246 1.0364-0.90492 2.0728-1.3711 3.1406-0.7066 1.5476-1.4306 3.0877-2.1914 4.6094-0.41243 3.7119-0.51423 7.2965 0 11 2.2789 2.7477 2.2789 2.7477 5 4-2.4149 2.4149-3.1271 2.2962-6.4375 2.3125-1.1737 0.025137-1.1737 0.025137-2.3711 0.050781-2.6819-0.4446-3.5689-1.219-5.1914-3.3633v-2l4 1 1-14h-3c1.5751-4.7073 4.1722-8.3429 7.0625-12.312 0.45955-0.64518 0.9191-1.2904 1.3926-1.9551 1.1523-1.599 2.3451-3.1687 3.5449-4.7324z" fill="#E5C100"/>
    <path transform="translate(156,101)" d="m0 0h13l2 4c-2 2-2 2-5.125 2.125-0.94875-0.04125-1.8975-0.0825-2.875-0.125l2 5c-4.4106 1.0257-6.9263 1.0368-11-1l1 4-5-3-1 7c-1.5-1.375-1.5-1.375-3-3v-2l-2-1 3-3-2-4 5 3c0.72188-0.80438 1.4438-1.6088 2.1875-2.4375 2.8377-2.5854 4.0842-3.2429 7.8125-3.5625l-4-2z" fill="#B49800"/>
    <path transform="translate(16,30)" d="m0 0c3.4571 4.2608 5.894 9.0931 8.5078 13.893 4.2772 8.6632 4.2772 8.6632 11.492 14.107 1.6195 2.2457 2.9899 4.5883 4.4023 6.9688 1.3743 2.1836 1.3743 2.1836 3.4531 2.4609 3.4242 0.91062 5.2681 3.6099 7.5195 6.1953 0.48316 0.54471 0.96631 1.0894 1.4641 1.6506 0.95728 1.0814 1.9112 2.1657 2.8616 3.2532 1.0927 1.2373 2.2179 2.4457 3.3501 3.647 2.4052 2.5889 3.8688 4.1942 4.3242 7.7617l-0.375 2.0625h-2c-0.30938-0.94875-0.61875-1.8975-0.9375-2.875-2.3783-5.6297-6.8759-9.7867-11.062-14.125-0.54012-0.57879-1.0802-1.1576-1.6367-1.7539-1.365-1.4296-1.365-1.4296-3.6758-1.9336-4.1238-2.0139-6.1593-5.5767-8.6875-9.3125l-2 1-1.7188-3.0625c-2.1333-3.7332-4.4284-7.3399-6.7812-10.938-2.3355-3.571-4.5963-7.1365-6.6562-10.875-1.4922-3.1755-1.4922-3.1755-3.8438-4.125l-2 9h-1c-0.61538-7.2615-0.61538-7.2615 2.5-11l2.5-2z" fill="#090800"/>
    <path transform="translate(102,180)" d="m0 0c0.13277 0.77086 0.26555 1.5417 0.40234 2.3359 0.1766 1.0029 0.3532 2.0058 0.53516 3.0391 0.26104 1.4966 0.26104 1.4966 0.52734 3.0234 0.41228 2.5707 0.41228 2.5707 1.5352 4.6016 0.23173 2.5462 0.41895 5.074 0.5625 7.625 0.043184 0.70641 0.086367 1.4128 0.13086 2.1406 0.10609 1.7446 0.20687 3.4894 0.30664 5.2344l-2 1c-0.72159 1.6436-1.3935 3.3105-2 5h-4l-2-6h2v-27c3-1 3-1 4-1z" fill="#D0AF00"/>
    <path transform="translate(92,82)" d="m0 0h3c1.2832 3.8495 1.0664 6.9474 1 11l-2-3-1 6h3l1-2v2h6l1-2c1.98 0.66 3.96 1.32 6 2l1-3v3l3.125-0.5625c3.6365-0.41057 6.3294-0.21581 9.875 0.5625v1h-48v5c-4.474 0.36276-4.474 0.36276-6.8125-1.25-1.1875-1.75-1.1875-1.75-1.1875-5.75 6.904-1.0666 12.253-0.85001 19 1l2-8h2l1-6z" fill="#785F00"/>
    <path transform="translate(10.625,90.375)" d="m0 0c0.88043 0.10055 1.7609 0.20109 2.668 0.30469 0.89332 0.1057 1.7866 0.21141 2.707 0.32031 0.84176 0.085078 1.6835 0.17016 2.5508 0.25781 3.3497 0.3399 6.2384 0.67192 9.4492 1.7422h-2v3h-7c0.63809 0.12117 1.2762 0.24234 1.9336 0.36719 0.82629 0.16758 1.6526 0.33516 2.5039 0.50781 0.82371 0.16242 1.6474 0.32484 2.4961 0.49219 0.68191 0.20883 1.3638 0.41766 2.0664 0.63281l1 2c-17.894 0.86027-17.894 0.86027-23.125-2.25l-2.875-2.75v-4c3.0791-1.0264 4.475-0.995 7.625-0.625z" fill="#D5B300"/>
    <path transform="translate(179,50)" d="m0 0c0 4.0964-2.1133 6.3188-4.4375 9.5-3.2905 4.4646-3.2905 4.4646-5.5625 9.5l7-7c0.99 0.33 1.98 0.66 3 1-1.6226 1.4819-3.2481 2.9604-4.875 4.4375-0.90492 0.82371-1.8098 1.6474-2.7422 2.4961-2.3828 2.0664-2.3828 2.0664-4.3828 3.0664l1 2c-0.51949 0.23074-1.039 0.46148-1.5742 0.69922-4.7112 2.2032-7.9695 4.4125-11.426 8.3008l4-1-2 4c-0.9075-0.04125-1.815-0.0825-2.75-0.125-3.1962 0.12293-4.5341 0.62536-7.25 2.125 0.42152-0.4473 0.84305-0.89461 1.2773-1.3555 4.32-4.6255 4.32-4.6255 5.7227-10.645l-1-3 2.875-0.9375c2.9858-0.93645 2.9858-0.93645 5.125-2.0625-0.30938 0.59812-0.61875 1.1962-0.9375 1.8125-1.1646 2.2771-1.1646 2.2771-2.0625 5.1875 3.8634-2.5961 3.8634-2.5961 5.75-6.6875l0.25-2.3125 1-1c-0.28674-2.0072-0.61867-4.0086-1-6l2-1v2c4.0884-2.1552 6.5107-4.5309 9.3125-8.1875 0.69738-0.90105 1.3948-1.8021 2.1133-2.7305 0.51949-0.68707 1.039-1.3741 1.5742-2.082z" fill="#493E00"/>
    <path transform="translate(39,120)" d="m0 0 3 2c-1.0828 1.3032-1.0828 1.3032-2.1875 2.6328-0.93826 1.1634-1.8757 2.3275-2.8125 3.4922-0.47695 0.56977-0.95391 1.1395-1.4453 1.7266-2.4323 3.0578-3.5028 4.5794-3.8672 8.5781 0.10312 0.8482 0.20625 1.6964 0.3125 2.5703h6c0.26555-0.70512 0.53109-1.4102 0.80469-2.1367 1.2603-3.019 2.7349-5.8151 4.3203-8.6758 0.53883-0.97582 1.0777-1.9516 1.6328-2.957 0.40992-0.73605 0.81984-1.4721 1.2422-2.2305h5c-0.6007 0.54656-1.2014 1.0931-1.8203 1.6562-2.3264 2.5015-3.6199 4.7535-5.0547 7.8438-0.67676 1.4077-0.67676 1.4077-1.3672 2.8438-1.0227 2.6017-1.0227 2.6017 0.046875 4.875 0.39445 0.58781 0.78891 1.1756 1.1953 1.7812l1 2c-2.468-1.1517-4.0478-2.0478-6-4l-2 1c-1.9996 0.039992-4.0005 0.043468-6 0l-3-6-5 1c0.51691 0.97582 1.0338 1.9516 1.5664 2.957 0.66589 1.2849 1.3312 2.5701 1.9961 3.8555 0.34225 0.6426 0.68449 1.2852 1.0371 1.9473 0.87689 1.7095 1.6455 3.4734 2.4004 5.2402l-1 3c-1.3407-2.6006-2.6727-5.205-4-7.8125-0.38156-0.73799-0.76312-1.476-1.1562-2.2363-0.36094-0.71221-0.72188-1.4244-1.0938-2.1582-0.33516-0.6546-0.67031-1.3092-1.0156-1.9836-0.73438-1.8093-0.73438-1.8093-0.73438-4.8093 1.0325-0.18305 2.0651-0.36609 3.1289-0.55469 4.8341-1.3812 6.9781-4.6163 9.8086-8.5703 0.49307-0.65871 0.98613-1.3174 1.4941-1.9961 1.2052-1.6147 2.389-3.2453 3.5684-4.8789z" fill="#120F00"/>
    <path transform="translate(114,184)" d="m0 0c5.0064 1.5645 9.6295 3.9373 13 8 1.8281 5.3498 3.1026 10.599 0.67969 15.875-1.6797 2.125-1.6797 2.125-4.2422 2.5625-2.4375-0.4375-2.4375-0.4375-4.4375-2.4375-1.3175-0.69749-2.6491-1.3696-4-2 2.6856-2.6856 5.3762-3.0605 9-4l-1-4c-1.98 0.33-3.96 0.66-6 1l-1-3c0.99-0.33 1.98-0.66 3-1 0.3917-2.6636 0.40565-4.3922-1.1133-6.668-1.2506-1.4831-2.5654-2.9116-3.8867-4.332z" fill="#E4BF00"/>
    <path transform="translate(103,113)" d="m0 0c1.2533 2.5066 1.3268 4.5835 1.5625 7.375 0.083789 0.95648 0.16758 1.913 0.25391 2.8984 0.15069 2.238 0.18359 4.4835 0.18359 6.7266 0.59812 0.0825 1.1962 0.165 1.8125 0.25 2.9104 0.99784 3.6765 2.0877 5.1875 4.75 0.89217 3.2942 1.3263 5.1733 0.0625 8.375-0.35062 0.53625-0.70125 1.0725-1.0625 1.625l-1-3c-0.99-0.33-1.98-0.66-3-1v3c-3.436-1.5271-6.1191-3.5993-9-6 0.50604-2.1687 0.99984-3.9997 2-6h3v2l1-1c-0.66121-3.2321-1.4939-6.4089-2.3086-9.6055-0.66026-3.2416-0.81643-6.0988-0.69141-9.3945l2-1z" fill="#9E1D1C"/>
    <path transform="translate(85.5 120.81)" d="m0 0c2.5 0.1875 2.5 0.1875 4.5 1.1875 1.6765-0.27942 3.3461-0.60828 5-1 0.62698 10.101 0.62698 10.101-1.875 13.688-2.125 1.3125-2.125 1.3125-4.125 1.3125l-1 11h-2l1-14h2l-1-9h-1l-0.75 3.3125c-1.3201 3.8944-1.9892 4.5335-5.25 6.6875-0.05392-1.7913-0.092756-3.5831-0.125-5.375-0.023203-0.99773-0.046406-1.9955-0.070312-3.0234 0.26745-3.5624 1.1116-4.5203 4.6953-4.7891z" fill="#E3E2E2"/>
    <path transform="translate(197,91)" d="m0 0 1 2c-6.3622 6.7157-6.3622 6.7157-11.106 7.2271-1.0997-0.01571-1.0997-0.01571-2.2217-0.031738-0.79922-0.0064453-1.5984-0.012891-2.4219-0.019531-0.825-0.016758-1.65-0.033516-2.5-0.050781-0.84047-0.0090234-1.6809-0.018047-2.5469-0.027344-2.0678-0.023498-4.1355-0.059367-6.2031-0.097656l1-2c2.0664-0.63281 2.0664-0.63281 4.5625-1.125 0.82629-0.16758 1.6526-0.33516 2.5039-0.50781 0.95713-0.18176 0.95713-0.18176 1.9336-0.36719h-7l1-3c7.267-2.7251 14.429-3.6404 22-2z" fill="#D6B400"/>
    <path transform="translate(68,24)" d="m0 0 3 2h-2l0.9375 3.0625c1.039 3.6106 1.6056 7.2062 2.0625 10.938 0.99 0.33 1.98 0.66 3 1-3.0103 0.93424-3.8665 1.0445-7 0l-2 2c4.455 0.99 4.455 0.99 9 2v2h-13v-3h-2c-0.25-7.625-0.25-7.625 2-11 2.625-0.6875 2.625-0.6875 5-1l-0.0625-3.4375c0.0625-3.5625 0.0625-3.5625 1.0625-4.5625z" fill="#726000"/>
    <path transform="translate(17,76)" d="m0 0c4.5254 1.1535 8.0432 2.565 12 5 1.9845 0.71143 3.982 1.3899 6 2-2.2219 2.2219-4.0848 2.926-7 4 0.83255 2.2334 0.83255 2.2334 3.2852 2.8516 0.91652 0.25523 1.833 0.51047 2.7773 0.77344 0.9191 0.26039 1.8382 0.52078 2.7852 0.78906 0.71027 0.19336 1.4205 0.38672 2.1523 0.58594v1c-2.97 0.33-5.94 0.66-9 1l1 4c-6.0018 0.21825-11.192-0.49431-17-2v-1c8.5714-0.14286 8.5714-0.14286 12 1v-3l2-2-16-6c3.2898-1.0966 4.713-0.79953 8 0v-2l-2-1c2.7628 0.52268 5.3261 1.1087 8 2v-2l-2.25-0.75c-2.9512-1.3415-4.5981-2.8591-6.75-5.25z" fill="#695800"/>
    <path transform="translate(17,65)" d="m0 0c4.0671 1.3557 7.0865 3.3967 10.449 5.9766 1.5193 1.207 1.5193 1.207 3.5508 1.0234-0.99-1.32-1.98-2.64-3-4l1.875 1.0625 2.125 0.9375 2-1c0.55688 0.9075 1.1138 1.815 1.6875 2.75 2.2019 3.0945 4.2564 5.0428 7.3125 7.25-0.495-0.76312-0.99-1.5262-1.5-2.3125-1.5-2.6875-1.5-2.6875-1.5-5.6875l2 2 1-2c2 1 2 1 4 4 0.125 2.5625 0.125 2.5625 0 5 0 3.1332 2.0465 4.6802 4 7l-2.9375 0.375c-1.0106 0.20625-2.0212 0.4125-3.0625 0.625l-1 2-0.75-2.25c-1.3415-2.9512-2.8591-4.5981-5.25-6.75l2.375 1c2.4683 1.1187 2.4683 1.1187 4.625 1-1.2437-0.98713-2.4953-1.9644-3.75-2.9375-0.69609-0.54527-1.3922-1.0905-2.1094-1.6523-2.1015-1.3844-3.6838-1.973-6.1406-2.4102v4c-3.9946-0.61455-6.7447-2.7065-10-5 2-1 2-1 4-1-0.72188-0.5659-1.4438-1.1318-2.1875-1.7148-0.92812-0.73348-1.8562-1.467-2.8125-2.2227-0.92812-0.7309-1.8562-1.4618-2.8125-2.2148-0.72188-0.60973-1.4438-1.2195-2.1875-1.8477v-1z" fill="#4F4300"/>
    <path transform="translate(153,69)" d="m0 0 1 3c-0.84305 0.81984-1.6861 1.6397-2.5547 2.4844-1.107 1.0883-2.2138 2.1768-3.3203 3.2656-0.55559 0.53883-1.1112 1.0777-1.6836 1.6328-3.9457 3.807-3.9457 3.807-6.4414 8.6172 0.082217 3.0767 0.082217 3.0767 1 6l1.625 1.4375c1.375 1.5625 1.375 1.5625 1.375 5.0625-1 3.5-1 3.5-3.125 5.4375-4.173 1.5422-7.7123 2.0364-11.879 0.16016-1.7041-0.96736-3.3555-2.0262-4.9961-3.0977l1.875-0.875c3.1205-1.652 3.9986-2.7457 5.125-6.125h-2-4v-2c2.906-1.2566 4.796-2 8-2 0.75 2.6875 0.75 2.6875 1 6-1.9375 2.875-1.9375 2.875-4 5 4.899 1.185 4.899 1.185 9.4375-0.4375l1.5625-1.5625c-0.40376-2.9071-0.67434-4.6242-2.625-6.875-1.375-2.125-1.375-2.125-1.293-5.3711 1.0834-4.4303 3.0894-6.8166 6.2305-9.9414 0.48662-0.50725 0.97324-1.0145 1.4746-1.5371 1.3883-1.4407 2.8001-2.8586 4.2129-4.2754 0.7773-0.77988 1.5546-1.5598 2.3555-2.3633 0.5427-0.54012 1.0854-1.0802 1.6445-1.6367z" fill="#080700"/>
    <path transform="translate(139,47)" d="m0 0v2l2 1c-1.7681 6.2866-6.6681 11.445-12 15-2.1875-0.375-2.1875-0.375-4-1l2-1-2-3 5-4v3c3.2485-1.7223 3.2485-1.7223 4-5l-2-1h2v-2c-1.6455 0.034805-1.6455 0.034805-3.3242 0.070312-1.4544 0.018767-2.9088 0.036966-4.3633 0.054688-0.72123 0.016758-1.4425 0.033516-2.1855 0.050781-4.1757 0.038134-7.3764-0.29679-11.127-2.1758v-1c8.6899-0.79646 17.275-1.1285 26-1z" fill="#B79A00"/>
    <path transform="translate(92,45)" d="m0 0c-1 3-1 3-3 4v4h-2v2l10 2-1 3h-3l7 14 2-5c1.6008 4.002 0.2928 7.0456-1 11h-2c-0.24234-0.71285-0.48469-1.4257-0.73438-2.1602-1.985-5.6725-4.1953-10.686-7.2656-15.84v-2l-2-1c-0.80438-0.96938-1.6088-1.9388-2.4375-2.9375-2.3944-3.1542-2.3944-3.1542-5.5625-5.0625l4-2c-4.455-0.99-4.455-0.99-9-2 1-2 1-2 2.9375-3.25 4.5838-1.1226 8.5536 0.11183 13.062 1.25z" fill="#1B1700"/>
    <path transform="translate(110,31)" d="m0 0 0.1875 1.6875c1.3541 3.8539 4.0194 6.3754 7.6289 8.2617 1.7083 0.73111 3.4451 1.3947 5.1836 2.0508l2 1v3c-2.1041 0.16808-4.2082 0.33442-6.3125 0.5-1.1718 0.092812-2.3435 0.18562-3.5508 0.28125-2.0419 0.1424-4.0898 0.21875-6.1367 0.21875l-1-3h4c-5.3681-3.869-9.365-5.6446-16-6l-1 2v-3l10-1v-2h2l1-3 2-1z" fill="#372F00"/>
    <path transform="translate(152,21)" d="m0 0c4.6769 1.4769 4.6769 1.4769 6.3125 4.125 0.22688 0.61875 0.45375 1.2375 0.6875 1.875-2.31 0.33-4.62 0.66-7 1 0.30357 1.2124 0.30357 1.2124 0.61328 2.4492 1.8921 8.7629 1.8921 8.7629-0.73828 12.863-2.875 1.6875-2.875 1.6875-5.1875 1.5l-1.6875-0.8125 2-2c0.38209-4.2986-0.38844-7.0718-2-11-0.5-2.5625-0.5-2.5625 0-5 2.9375-2.25 2.9375-2.25 6-4l1-1z" fill="#8B7500"/>
    <path transform="translate(61,47)" d="m0 0c17.856-0.18451 17.856-0.18451 26 1-3.5471 3.5471-6.6224 4.2466-11.562 4.5625-3.1035 0.20634-5.4716 0.44886-8.4375 1.4375l2 5c-0.99 0.33-1.98 0.66-3 1-1.1786-1.0704-2.3425-2.1568-3.5-3.25l-1.9688-1.8281c-1.5312-1.9219-1.5312-1.9219-1.5312-5.9219h2v-2z" fill="#A58A00"/>
    <path transform="translate(170,101)" d="m0 0c3.2082-0.087741 6.416-0.14064 9.625-0.1875 0.90363-0.025137 1.8073-0.050273 2.7383-0.076172 5.347-0.058543 8.9769 0.31449 13.637 3.2637-1.75 3.875-1.75 3.875-4 5-2.4143 0.12418-4.8326 0.17565-7.25 0.1875-1.3045 0.01418-2.6091 0.028359-3.9531 0.042969-3.6449-0.22124-6.4158-0.90219-9.7969-2.2305v-1h11v-2c-0.69867 0.034805-1.3973 0.069609-2.1172 0.10547-1.3651 0.040605-1.3651 0.040605-2.7578 0.082031-1.3574 0.052207-1.3574 0.052207-2.7422 0.10547-1.1795-0.14502-1.1795-0.14502-2.3828-0.29297l-2-3z" fill="#DEBB00"/>
    <path transform="translate(44,28)" d="m0 0-3 2c-0.40087 1.9071-0.40087 1.9071-0.25 4 0.015469 0.70125 0.030938 1.4025 0.046875 2.125 0.10269 1.9644 0.10269 1.9644 1.2031 3.875 0.44251 4.8676-0.5908 7.7839-3 12l-2-1 1-7-1 1c-2.333 0.040929-4.6671 0.042417-7 0v-3h5v-3l-4-2c-0.25-2.3125-0.25-2.3125 0-5 3.9459-3.8098 7.694-4.1179 13-4z" fill="#A98E00"/>
    <path transform="translate(156,28)" d="m0 0c8.1926 0.35011 8.1926 0.35011 11.562 3.0625 0.47438 0.63938 0.94875 1.2788 1.4375 1.9375-1.875 5.75-1.875 5.75-3 8 0.78375-0.20625 1.5675-0.4125 2.375-0.625 1.2994-0.18562 1.2994-0.18562 2.625-0.375l2 2c-0.1875 2.5-0.1875 2.5-1 5l-3 2v-3h-5v6l-2 1-1-9h3l-1-1c-0.29746-3.6687 0.23892-5.808 2-9v-2h-2v2h-2c-2.0317 4.3342-2.5206 8.286-3 13l-2-2c0.3125-3.1875 0.3125-3.1875 1-7 0.72203-4.4827 0.72203-4.4827 1-9l-2-1z" fill="#433800"/>
    <path transform="translate(129,172)" d="m0 0c0.54527 0.39832 1.0905 0.79664 1.6523 1.207 7.2934 5.1241 14.202 8.6896 23.348 7.793 2.3537-0.88065 2.3537-0.88065 4-2l1 3-1 1 4 2-2 1 3 2c-1.5625 0.75-1.5625 0.75-4 1-1.5343-0.9547-3.0674-1.9115-4.5938-2.8789-4.4507-2.0736-9.3691-2.6615-14.176-3.5078-3.2305-0.61328-3.2305-0.61328-5.2305-1.6133-1.8706-0.2275-3.7469-0.40963-5.625-0.5625-1.0029-0.083789-2.0058-0.16758-3.0391-0.25391-1.1563-0.090879-1.1563-0.090879-2.3359-0.18359l2-7 2 1 1-2z" fill="#E1BE00"/>
    <path transform="translate(114,159)" d="m0 0c1.4812 0.28127 2.9599 0.57534 4.4375 0.875 1.2356 0.24363 1.2356 0.24363 2.4961 0.49219 0.68191 0.20883 1.3638 0.41766 2.0664 0.63281 1.4144 2.8288 1.319 4.8738 1 8-2 1.875-2 1.875-4 3h6l-2 8c0.64324-0.034805 1.2865-0.069609 1.9492-0.10547 10.987-0.32915 21.648 1.875 31.238 7.3555 2.3483 0.97169 3.4526 0.58738 5.8125-0.25 3-1 3-1 5.1875-0.0625l1.8125 1.0625c-5.5188 1.9962-10.257 2.5119-16 1-0.72316-0.46793-1.4463-0.93586-2.1914-1.418-3.8799-2.1855-7.7788-2.8622-12.121-3.707-0.81662-0.16887-1.6332-0.33773-2.4746-0.51172-5.0553-1.0232-10.088-1.7853-15.213-2.3633l1-6c-1.98-0.66-3.96-1.32-6-2l-1-5h5c0.042721-1.6661 0.040638-3.3338 0-5-0.98268-1.2056-0.98268-1.2056-2.8477-1.0977-2.0508 0.032552-4.1016 0.065104-6.1523 0.097656l2-3z" fill="#0F0C00"/>
    <path transform="translate(125,142)" d="m0 0c1.5 1.375 1.5 1.375 3 3v2l7 2v5h-3v2l-5 2v1c-0.90363 0.048984-1.8073 0.097969-2.7383 0.14844-1.1795 0.074766-2.359 0.14953-3.5742 0.22656-1.1718 0.069609-2.3435 0.13922-3.5508 0.21094-3.2937 0.2002-3.2937 0.2002-6.1367 2.4141l1-6c2.8923-0.82638 4.8874-1 8-1 2.9673-1.8366 2.9673-1.8366 5-4 0.24254-2.2107 0.24254-2.2107 0.125-4.625-0.018047-0.81727-0.036094-1.6345-0.054688-2.4766-0.023203-0.62648-0.046406-1.253-0.070312-1.8984z" fill="#BEA000"/>
    <path transform="translate(19.875 100.81)" d="m0 0c0.87914 0.013535 1.7583 0.02707 2.6641 0.041016 2.1539 0.035118 4.3075 0.088917 6.4609 0.14648l-1 3h-11v2h12l-1 2c-6.5841 1.4964-16.454 3.0592-22.395-0.39062-1.6055-1.6094-1.6055-1.6094-1.6055-3.6094 5.3796-3.3601 9.7538-3.3673 15.875-3.1875z" fill="#E1BD00"/>
    <path transform="translate(167,77)" d="m0 0-2 7c1.98 0.66 3.96 1.32 6 2v-2h2c-0.125 2.3125-0.125 2.3125-1 5-4.8693 3.4959-10.198 3.6675-16 4 1.6341-1.7084 2.8691-2.9345 5-4-0.99-0.33-1.98-0.66-3-1-0.6875-2.0625-0.6875-2.0625-1-4l-4 1c8-8 8-8 14-8z" fill="#E4C000"/>
    <path transform="translate(74,142)" d="m0 0c0.9812 3.0526 0.9812 4.9474 0 8h2v2c0.99 0.33 1.98 0.66 3 1-3.4239 3.8267-6.0072 5.7228-11 7v-2c-0.78375 0.18562-1.5675 0.37125-2.375 0.5625-2.625 0.4375-2.625 0.4375-4.625-0.5625v6h-1l-0.4375-2.3125c-0.52576-2.7692-0.52576-2.7692-1.5625-5.6875l4-3v3l3-2c0.25031-2.5838 0.25031-2.5838 0-5 1.3922-0.61875 1.3922-0.61875 2.8125-1.25 3.068-1.6844 4.3779-2.8345 6.1875-5.75z" fill="#A28800"/>
    <path transform="translate(39,115)" d="m0 0h2v4c1.98-0.33 3.96-0.66 6-1v5c1.98-0.33 3.96-0.66 6-1 0.99 1.32 1.98 2.64 3 4 3.1667-1.8333 3.1667-1.8333 5-5l2 6 5-1-2 4h-5l-2 6h-1v-7c-0.99 0.33-1.98 0.66-3 1l-4-2-3 9c-1.1364-3.4093-0.86748-4.0034 0.4375-7.1875 0.28746-0.71543 0.57492-1.4309 0.87109-2.168 0.22816-0.5427 0.45633-1.0854 0.69141-1.6445-2.7894-0.4189-2.7894-0.4189-6 0-2.8764 2.375-2.8764 2.375-5 5 1.1245-2.9719 2.2229-5.3344 4-8l-2-1.1875c-2-1.8125-2-1.8125-2.25-4.5l0.25-2.3125z" fill="#756200"/>
    <path transform="translate(9,54)" d="m0 0c0.53109 0.40992 1.0622 0.81984 1.6094 1.2422 0.70641 0.53883 1.4128 1.0777 2.1406 1.6328 0.69609 0.53367 1.3922 1.0673 2.1094 1.6172 2.0394 1.5287 2.0394 1.5287 4.0898 2.4258 2.765 1.4589 4.8142 3.4077 7.1133 5.5195 0.85723 0.78246 1.7145 1.5649 2.5977 2.3711 1.8158 1.7006 3.5983 3.4156 5.3398 5.1914-6.0094-1.5814-10.766-4.7465-16-8l10 8-1 2c-13.691-7.3566-13.691-7.3566-17.363-14.824-0.7255-2.4792-0.75824-4.6058-0.63672-7.1758z" fill="#F2CC00"/>
    <path transform="translate(96,14)" d="m0 0v12l5-1c2.6698 0.99164 3.9714 1.9714 6 4-1.5612 0.33952-3.124 0.67133-4.6875 1-0.87012 0.18562-1.7402 0.37125-2.6367 0.5625-2.6129 0.42722-5.0339 0.51366-7.6758 0.4375v-3h-3l-2-2c0.30272-1.3406 0.63838-2.6741 1-4l-1-3c1-3 1-3 2.875-4.1875 2.1834-0.83482 3.7961-0.8125 6.125-0.8125z" fill="#B29500"/>
    <path transform="translate(164,161)" d="m0 0v8l5-1 1 3-1 2h-9l19 1v-2h2l-1 3c-3.5686 1.5145-7.5651 1.1326-11.375 1.125-1.9297 0.0038672-1.9297 0.0038672-3.8984 0.0078125-3.344-0.11918-6.4475-0.49325-9.7266-1.1328-0.74076-4.7408 1.247-7.4953 3.7109-11.328 1.6417-2.1292 2.5937-2.6719 5.2891-2.6719z" fill="#BA9C00"/>
    <path transform="translate(199,80)" d="m0 0c0 3 0 3-2.5 5.6875l-2.5 2.3125c1.98 0.66 3.96 1.32 6 2-0.29899 3.5879-0.76987 4.7817-3.4375 7.3125-2.5625 1.6875-2.5625 1.6875-4.5625 1.6875v2l5 2v4c-3 2.25-3 2.25-6 4l1.5625 1.8125 1.4375 2.1875-1 3c-0.99-0.33-1.98-0.66-3-1h2l-1-4c-4.62-0.99-9.24-1.98-14-3v-1l3.1406-0.078125c1.3698-0.056295 2.7396-0.11364 4.1094-0.17188 0.68191-0.01418 1.3638-0.028359 2.0664-0.042969 5.1948-0.25217 5.7173-0.74078 9.6836-4.707l-12-3v-1c0.60328-0.17016 1.2066-0.34031 1.8281-0.51562 4.6825-1.4199 8.025-2.5166 11.172-6.4844-3.0625-1.7841-5.2208-2.2288-8.75-2.125-1.1988 0.02707-1.1988 0.02707-2.4219 0.054688-0.90492 0.034805-0.90492 0.034805-1.8281 0.070312 1.9801-1.9801 3.3048-2.6857 5.8125-3.8125 3.8789-1.8723 6.3379-3.9817 9.1875-7.1875z" fill="#110F00"/>
    <path transform="translate(77,53)" d="m0 0c4.1175-0.32294 6.3176-0.45492 9.8125 1.875 3.5126 3.4122 5.5935 6.6337 7.75 11 0.31646 0.6252 0.63293 1.2504 0.95898 1.8945 2.8998 5.8242 3.6035 9.7329 3.4785 16.23-0.28746-0.5775-0.57492-1.155-0.87109-1.75-0.71293-1.4209-1.4333-2.8382-2.1641-4.25-0.33902-0.66-0.67805-1.32-1.0273-2-0.5124-0.99-0.5124-0.99-1.0352-2-0.90234-2-0.90234-2-1.3633-4.0781-0.87333-3.1136-3.219-4.7803-5.5391-6.9219v11c-2.739-3.652-3.4707-4.9143-4.25-9.125-0.17016-0.86883-0.34031-1.7377-0.51562-2.6328-0.23438-2.2422-0.23438-2.2422 0.76562-4.2422l-1-3-5-1v-1z" fill="#A88D00"/>
    <path transform="translate(129,33)" d="m0 0v10c2.9165 0.16681 2.9165 0.16681 6 0l2-2c0.99 0.33 1.98 0.66 3 1v2h-2v3l-26 2-1-2h14l-2-3.1875c-1.7772-3.0787-2.4381-5.1985-2-8.8125 3.0881-1.7646 4.2331-2 8-2z" fill="#715F00"/>
    <path transform="translate(104,168)" d="m0 0c0.55262 2.1315 1.0012 4.0289 1.0938 6.2383 1.6163 4.9254 6.0986 7.6951 9.9785 10.945 4.84 4.2281 4.84 4.2281 5.3613 7.7227-0.21463 1.0364-0.21463 1.0364-0.43359 2.0938l-4 1 1 2c3.465-0.495 3.465-0.495 7-1l1 5c-3.2279 2.1519-4.284 2.2009-8 2l1-4c-0.99-0.33-1.98-0.66-3-1-0.063164-1.0016-0.12633-2.0032-0.19141-3.0352-0.66532-4.6408-2.9729-7.7268-5.7461-11.402-0.45568-0.63615-0.91137-1.2723-1.3809-1.9277-1.1671-1.5908-2.4183-3.1192-3.6816-4.6348h-2c-1.0635-3.3839-1.2144-4.5805 0.4375-7.8125l1.5625-2.1875zm9 19 4 7 1-3c-1.2351-2.2302-1.2351-2.2302-3-4h-2zm7 13 1 2 1-2h-2z" fill="#231D00"/>
    <path transform="translate(128,23)" d="m0 0h7l-1 8 2.3125 0.3125c2.9691 0.75954 4.1095 1.0575 5.6875 3.6875-0.3125 3.6875-0.3125 3.6875-1 7h-1l-0.25-3.375c-0.32874-3.6825-0.32874-3.6825-2.8125-5.0625l-1.9375-0.5625c-0.93381 4.5314-0.93381 4.5314 0 9h-2v-2c-0.99 0.33-1.98 0.66-3 1-1.0753-2.6523-2.0946-5.2837-3-8l-5 2v-2c2.6474-1.4606 3.8945-2 7-2l-1-8z" fill="#352D00"/>
    <path transform="translate(45,21)" d="m0 0c3.9946 0.61455 6.7447 2.7065 10 5-0.63065 5.781-1.6516 11.344-3 17l-4-2v-12c-3.7643-2-3.7643-2-7-3l4-5z" fill="#9C8300"/>
    <path transform="translate(107,141)" d="m0 0 1.9375 0.5625 2.0625 0.4375 1-1h2l2 4 3-3c0.99 0.33 1.98 0.66 3 1l-2 2 2 1v3c-1.4373 0.16873-2.8748 0.33491-4.3125 0.5-0.80051 0.092812-1.601 0.18562-2.4258 0.28125-2.2617 0.21875-2.2617 0.21875-5.2617 0.21875l-1 2h-2l-1-4c-3.042 0-5.9953 0.55486-9 1l1-3h2l1-3c2.97 0.495 2.97 0.495 6 1v-3z" fill="#180901"/>
    <path transform="translate(121,182)" d="m0 0c0.47051 0.36094 0.94102 0.72188 1.4258 1.0938 0.62262 0.46406 1.2452 0.92812 1.8867 1.4062 0.61488 0.46406 1.2298 0.92812 1.8633 1.4062 1.8985 1.3509 1.8985 1.3509 4.8242 1.0938v-3c2.9375 0.375 2.9375 0.375 6 1 1.3491 2.6982 0.97774 5.0763 0.83984 8.0273 0.025812 2.2972 0.025812 2.2972 2.1602 4.9727-0.34649 3.9846-1.3909 7.3526-3 11l-1.875-0.5c-2.0856-0.57635-2.0856-0.57635-4.125-0.5-0.43312 0.47438-0.86625 0.94875-1.3125 1.4375-2.1917 2.0293-3.7407 2.275-6.6875 2.5625l-2.125-0.625-1.875-0.375c-1.6459 1.3959-1.6459 1.3959-3 3h-2c0-2 0-2 1.4375-4.1875 3.0368-2.148 3.6079-1.891 7.125-1.3125 2.3196 0.41951 2.3196 0.41951 4.4375 0.5 2.0786-1.577 2.0786-1.577 3-4l1.1875-2.25 0.8125-1.75c0.99 1.32 1.98 2.64 3 4l2-2c-0.26029-2.3426-0.59953-4.6772-1-7v-4c-0.30405-1.6723-0.63129-3.3408-1-5-0.39188 0.51562-0.78375 1.0312-1.1875 1.5625-1.8125 1.4375-1.8125 1.4375-4 1.4375-3.9824-1.416-7.3181-3.6502-10.812-6l2-2z" fill="#0B0A00"/>
    <path transform="translate(68,123)" d="m0 0h1l0.375 2.375c0.41618 2.7656 0.41618 2.7656 2.625 4.625 0.19531 2.8203 0.19531 2.8203 0.125 6.125-0.018047 1.0957-0.036094 2.1914-0.054688 3.3203-0.023203 0.84305-0.046406 1.6861-0.070312 2.5547l2 1-5 5c-1.2587-4.5312-1.2587-4.5312 0-6.8125 1.5924-3.4834 0.62148-6.4586 0-10.188-2.1563 0-3.9245 0.44652-6 1 0.058008 0.68707 0.11602 1.3741 0.17578 2.082 0.13575 2.7111 0.17441 5.2245-0.17578 7.918-2.25 2.25-2.25 2.25-5 3-2.7488-0.8639-3.9552-1.9552-6-4l-5 5-2-1c0.61359-0.33645 1.2272-0.67289 1.8594-1.0195 2.9726-2.7502 3.5218-5.8544 4.3906-9.668 0.2591-1.0528 0.2591-1.0528 0.52344-2.127 0.42251-1.7252 0.82639-3.455 1.2266-5.1855 2 2 2 2 2.1953 4.8203-0.034805 1.6358-0.034805 1.6358-0.070312 3.3047-0.018047 1.0957-0.036094 2.1914-0.054688 3.3203-0.034805 1.2646-0.034805 1.2646-0.070312 2.5547 3.0491 1.0111 3.0491 1.0111 6 0 0.46899-2.816 0.46899-2.816 0.625-6.0625 0.074766-1.1047 0.14953-2.2095 0.22656-3.3477 0.048984-0.85465 0.097969-1.7093 0.14844-2.5898l5-1 1-5z" fill="#0C0A00"/>
    <path transform="translate(20,50)" d="m0 0c3.9194 3.8041 7.491 7.8158 11 12l4-1c1.154 1.4101 2.2979 2.8283 3.4375 4.25 0.63809 0.78891 1.2762 1.5778 1.9336 2.3906 1.534 2.2218 2.2002 3.7268 2.6289 6.3594-0.99-0.33-1.98-0.66-3-1l4 5-1 2c-1.2924-1.1241-2.5839-2.2493-3.875-3.375-0.7193-0.62648-1.4386-1.253-2.1797-1.8984-3.7477-3.3263-3.7477-3.3263-4.8594-5.5781-1.2362-2.4457-2.7454-4.3884-4.4609-6.5234-7.625-9.6626-7.625-9.6626-7.625-12.625z" fill="#977F00"/>
    <path transform="translate(131,122)" d="m0 0h1c0.25185 6.4222 0.25185 6.4222-1.0625 9.4375-1.7342 4.7401-0.32593 9.8022 1.0625 14.562h6l1 2c0.80438 0.47438 1.6088 0.94875 2.4375 1.4375 2.5625 1.5625 2.5625 1.5625 4.5625 4.5625 0.41406 2.6992 0.41406 2.6992 0.625 5.6875 0.074766 0.99387 0.14953 1.9877 0.22656 3.0117 0.048984 0.75926 0.097969 1.5185 0.14844 2.3008h3c-0.875 3.875-0.875 3.875-2 5-1.9996 0.040808-4.0005 0.042544-6 0l4-1-2-3c-0.29814-3.0666-0.37791-6.1081-0.46094-9.1875-0.28398-2.9071-0.28398-2.9071-2.4062-4.6758-2.5519-1.3601-4.2812-1.3744-7.1328-1.1367v-2c-0.94875-0.22688-1.8975-0.45375-2.875-0.6875-3.125-1.3125-3.125-1.3125-4.5-3.9375l-0.625-2.375h2v-13l2-1c0.65772-3.0293 0.65772-3.0293 1-6z" fill="#0E0B00"/>
    <path transform="translate(62.375,157.5)" d="m0 0c3.126 0.43117 4.739 0.53898 7.625-0.5v2h3c-0.98227 0.56654-0.98227 0.56654-1.9844 1.1445-2.2847 1.7114-2.2847 1.7114-2.4062 4.5547 0.046406 0.98613 0.092812 1.9723 0.14062 2.9883 0.036094 0.99387 0.072188 1.9877 0.10938 3.0117 0.046406 0.75926 0.092812 1.5185 0.14062 2.3008l-2 1-1-9v5l-5 2-1-5-3 2v-11c2-1 2-1 5.375-0.5z" fill="#CCAC00"/>
    <path transform="translate(41,122)" d="m0 0c0.99 0.33 1.98 0.66 3 1l-4 7 4-5 2 1-8 15h-6c-0.88827-2.8236-1.5142-4.9693-0.14502-7.7139 1.2902-1.7927 2.6504-3.4798 4.0825-5.1611 0.48146-0.59297 0.96293-1.1859 1.459-1.7969 1.1856-1.4556 2.3925-2.8937 3.6035-4.3281z" fill="#E0BC00"/>
    <path transform="translate(103,81)" d="m0 0h2l1 3 2-3 1 8 2-2 2 7-2-11h2c0.50512 1.6026 1.0039 3.2071 1.5 4.8125 0.27844 0.89332 0.55688 1.7866 0.84375 2.707 0.65625 2.4805 0.65625 2.4805 0.65625 5.4805h-15l1-4-0.5625-2.375c-0.56024-3.3614 0.32624-5.498 1.5625-8.625z" fill="#A78C00"/>
    <path transform="translate(163,64)" d="m0 0 2 1c0.86311 2.6612 1.2562 4.3072 0.27344 6.9648-1.5043 2.4041-3.0926 3.6487-5.3984 5.2852-0.72445 0.52078-1.4489 1.0416-2.1953 1.5781-0.5543 0.38672-1.1086 0.77344-1.6797 1.1719 1.875-4.75 1.875-4.75 3-7-2.0798 1.2259-2.0798 1.2259-4 3v4l-1 2h-2v-5c-2.3594 2.1449-3.6527 4.1257-5 7l-2 3-4-1c1.6079-3.9819 4.3804-6.7126 7.375-9.6875 0.48211-0.49822 0.96422-0.99645 1.4609-1.5098 2.6597-2.6633 4.4936-4.0781 8.1641-4.8027 1.5284-1.3782 1.5284-1.3782 2.75-3.0625 0.7425-0.96938 1.485-1.9388 2.25-2.9375z" fill="#C7A700"/>
    <path transform="translate(127,164)" d="m0 0h1l1 5 2-1 1 5 1-2c2-0.6875 2-0.6875 4-1l1 1 2-6c1.8578 3.135 2.2014 5.3747 2 9h-6c6.0836 3.0921 11.18 4.567 18 5l1-4h6l-4 1 1 3c-2.3525 2.2584-3.8028 2.9718-7.0625 3.4375-6.6018-0.73353-13.001-2.8592-18.438-6.75l-2.5-1.6875c-0.99 0.33-1.98 0.66-3 1-1.125-1.5625-1.125-1.5625-2-4 0.875-3.75 0.875-3.75 2-7z" fill="#2A2300"/>
    <path transform="translate(142,116)" d="m0 0h2v2h2c1.625 2.5 1.625 2.5 3 5 3.0745-0.77639 3.0745-0.77639 5-3l1 5-5 1c0.22816 0.5427 0.45633 1.0854 0.69141 1.6445 0.28746 0.71543 0.57492 1.4309 0.87109 2.168 0.29004 0.7077 0.58008 1.4154 0.87891 2.1445 0.55859 2.043 0.55859 2.043-0.44141 5.043l-4-9-2 2h-3l-1 6c-2.4804-3.7207-2.4438-6.8654-2.625-11.188-0.038672-0.74959-0.077344-1.4992-0.11719-2.2715-0.094095-1.8466-0.17704-3.6938-0.25781-5.541l3 3v-4z" fill="#A88E00"/>
    <path transform="translate(104,25)" d="m0 0c3.2695 0.56371 4.8258 1.4996 7 4-1.1347 3.4042-1.9681 4.2165-5 6-0.99-0.33-1.98-0.66-3-1-2.733 0.45958-2.733 0.45958-5.625 1.3125-1.4734 0.39639-1.4734 0.39639-2.9766 0.80078-2.5574 0.63476-2.5574 0.63476-3.3984 2.8867l-0.3125-3.3125c-0.66058-3.5431-0.89021-4.6199-3.6875-6.6875l1-3 5 2v2c1.6254-0.14095 3.2503-0.28792 4.875-0.4375 0.90492-0.081211 1.8098-0.16242 2.7422-0.24609 2.3939-0.1863 2.3939-0.1863 4.3828-1.3164l-1-3z" fill="#635300"/>
    <path transform="translate(66,23)" d="m0 0h6c0.125 5.75 0.125 5.75-1 8l2.875 0.375c3.125 0.625 3.125 0.625 5.125 2.625-0.023438 2.1641-0.023438 2.1641-0.375 4.625-0.16629 1.2259-0.16629 1.2259-0.33594 2.4766-0.14309 0.93973-0.14309 0.93973-0.28906 1.8984 1.6545-0.90084 3.2984-1.8213 4.9375-2.75 0.91652-0.51047 1.833-1.0209 2.7773-1.5469 2.4186-1.4768 2.4186-1.4768 3.0391-3.7812 0.081211-0.63422 0.16242-1.2684 0.24609-1.9219l1-2c1 1 1 1 1.3867 3.8281-0.38672 3.1719-0.38672 3.1719-2.6172 5.2188-0.97582 0.56203-1.9516 1.1241-2.957 1.7031-0.96293 0.57234-1.9259 1.1447-2.918 1.7344-2.592 1.3572-5.1556 2.4942-7.8945 3.5156l0.4375-2.0625c0.63196-3.3002 1.1056-6.6089 1.5625-9.9375l-4-2-1 3v-3c-0.99-0.33-1.98-0.66-3-1v-7l-0.4375 1.75c-0.52083 2.0833-1.0417 4.1667-1.5625 6.25l-5 1-2 8-2-2c0.1491-3.5038 0.35862-5.3586 2.875-7.875 2.125-1.125 2.125-1.125 5.125-1.125v-8z" fill="#110E00"/>
    <path transform="translate(44,181)" d="m0 0c0.99 0.33 1.98 0.66 3 1 1.6636 0.3482 3.33 0.68404 5 1l-2 2h-3v3c0.99 0.33 1.98 0.66 3 1v11l-4-1v-2c-0.99-0.33-1.98-0.66-3-1l-1-3-3.0625-2-2.9375-2v-3c2.97 0.495 2.97 0.495 6 1l2-6z" fill="#786600"/>
    <path transform="translate(168,109)" d="m0 0c16.582-0.54367 16.582-0.54367 22.688 4 1.3125 2 1.3125 2 1.3125 4-3.9775 1.9887-8.9816 1.5531-13.195 0.39844-1.9669-0.74038-3.8854-1.5431-5.8047-2.3984-0.99-0.39188-1.98-0.78375-3-1.1875l-2-0.8125c2.4906-0.68708 4.3789-1 7-1l-7-2v-1z" fill="#DAB700"/>
    <path transform="translate(93,73)" d="m0 0 0.4375 2.3125c0.52576 2.7692 0.52576 2.7692 1.5625 5.6875h2c0.55764 1.7659 1.0956 3.538 1.625 5.3125 0.30164 0.98613 0.60328 1.9723 0.91406 2.9883 0.46094 2.6992 0.46094 2.6992-1.5391 5.6992l-1-1-1 2h-3c0.072188-0.62648 0.14438-1.253 0.21875-1.8984 0.092812-0.81727 0.18562-1.6345 0.28125-2.4766 0.092812-0.81211 0.18562-1.6242 0.28125-2.4609 0.25227-2.1332 0.25227-2.1332 0.21875-4.1641l-4 6c-1.1179 2.1179-1.1179 2.1179-2 5l-2-1v-5h2c0.060586-0.73605 0.12117-1.4721 0.18359-2.2305 0.12568-1.4637 0.12568-1.4637 0.25391-2.957 0.081211-0.96293 0.16242-1.9259 0.24609-2.918 0.2952-2.7006 0.6124-5.2697 1.3164-7.8945 2-1 2-1 3-1z" fill="#D9B800"/>
    <path transform="translate(163,115)" d="m0 0 2.875 1c3.5465 1.1447 3.5465 1.1447 6.9961 0.39062 2.7011-0.49562 3.7917 0.083205 6.1914 1.3594 0.6716 0.34547 1.3432 0.69094 2.0352 1.0469 1.993 1.2605 3.4504 2.3396 4.9023 4.2031v4c-3.7658 1.0439-5.463 1.2613-9.0352-0.47656-0.99902-0.70898-1.998-1.418-3.0273-2.1484-1.5024-1.0403-1.5024-1.0403-3.0352-2.1016-2.8691-2.2474-5.3859-4.6415-7.9023-7.2734z" fill="#E0BD00"/>
    <path transform="translate(173,84)" d="m0 0 4 1-2 2c0.68707-0.22816 1.3741-0.45633 2.082-0.69141 0.90105-0.28746 1.8021-0.57492 2.7305-0.87109 0.89332-0.29004 1.7866-0.58008 2.707-0.87891 2.4805-0.55859 2.4805-0.55859 5.4805 0.44141l-16 6 12-1v2c-0.63809 0.12117-1.2762 0.24234-1.9336 0.36719-0.82629 0.16758-1.6526 0.33516-2.5039 0.50781-1.2356 0.24363-1.2356 0.24363-2.4961 0.49219-0.68191 0.20883-1.3638 0.41766-2.0664 0.63281l-1 2c0.99-0.33 1.98-0.66 3-1 1.3944-0.066654 2.7917-0.085382 4.1875-0.0625l3.8125 0.0625c-4.2062 2.296-8.3261 3.0377-13 4l12 1v1c-2.3746 0.19637-4.7492 0.38231-7.125 0.5625-0.66516 0.056074-1.3303 0.11215-2.0156 0.16992-4.1322 0.30384-7.8063 0.11985-11.859-0.73242 2.4628-2.4628 4.7068-2.9977 8-4v-3c-1.9401-1.7053-1.9401-1.7053-4-3l2.4375-1.25c2.7036-1.4845 2.7036-1.4845 3.375-3.9375l0.1875-1.8125z" fill="#554700"/>
    <path transform="translate(46,110)" d="m0 0v3l3-2 2 1c0.52573 1.6823 1 3.2268 1 5l1.875-0.5c2.125-0.5 2.125-0.5 4.125-0.5v7c-0.99-0.33-1.98-0.66-3-1l-2 2-1-1c-1.6662-0.040638-3.3339-0.042721-5 0l-1-4-2 1c-0.99-0.33-1.98-0.66-3-1l-1-5 6-4z" fill="#E4C000"/>
    <path transform="translate(61,199)" d="m0 0 0.875 1.875c1.0622 2.2583 1.0622 2.2583 3.125 4.125l4-4 1.4375 3.4375c1.1987 3.3199 1.1987 3.3199 2.5625 4.5625 4.0435-0.46656 8.0193-1.1556 12-2-0.99 0.33-1.98 0.66-3 1 1.1599 2.1018 1.1599 2.1018 3 4 2.384 0.29623 2.384 0.29623 4.9375-0.0625 2.6758-0.12891 2.6758-0.12891 5.0625 0.0625 2.625 2.5 2.625 2.5 4 5l6-3c-0.6875 1.9375-0.6875 1.9375-2 4-2.3125 1-2.3125 1-5 1l-2.3125-1.9375c-2.6518-2.4684-2.6518-2.4684-6.6875-2.0625-4.7146 0-5.5286-1.0915-9-4-2.516 0.33652-2.516 0.33652-5 1-3.1207-0.96594-5.265-2.1766-8-4l-4 2c-0.53229-1.2661-1.0504-2.5381-1.5625-3.8125-0.29004-0.7077-0.58008-1.4154-0.87891-2.1445-0.55859-2.043-0.55859-2.043 0.44141-5.043z" fill="#120F00"/>
    <path transform="translate(170,102)" d="m0 0 2 1c1.7036 0.22622 3.4133 0.40888 5.125 0.5625 0.91008 0.083789 1.8202 0.16758 2.7578 0.25391 0.69867 0.060586 1.3973 0.12117 2.1172 0.18359v2l-10 1 5 1v1l-5 1c1.98 0.66 3.96 1.32 6 2v1h-8l5 2-3 2 1 2c-5.75-1.875-5.75-1.875-8-3v-2l-4-1 4-1-2-5 7-2v-3z" fill="#6C5A00"/>
    <path transform="translate(156,122)" d="m0 0c3.0962 0.30822 4.0233 1.0246 6.2109 3.3281 0.71414 0.96422 1.4283 1.9284 2.1641 2.9219 0.72961 0.95391 1.4592 1.9078 2.2109 2.8906 1.4141 2.8594 1.4141 2.8594 0.57812 5.5938-0.57621 1.1215-0.57621 1.1215-1.1641 2.2656l1 2h-5c-1.3386-2.2887-2.671-4.5807-4-6.875-0.38156-0.65098-0.76312-1.302-1.1562-1.9727-2.8438-4.9258-2.8438-4.9258-2.8438-7.1523l4 2-2-5z" fill="#E9C400"/>
    <path transform="translate(110,72)" d="m0 0h2l1 4 2-1c0.01418 0.77344 0.028359 1.5469 0.042969 2.3438 0.33016 7.2099 1.4304 11.977 5.957 17.656l-5 1c-1.5826-4.3256-2.4514-8.4287-3-13h-2c0.22816 0.61488 0.45633 1.2298 0.69141 1.8633 0.43119 1.2124 0.43119 1.2124 0.87109 2.4492 0.29004 0.80051 0.58008 1.601 0.87891 2.4258 0.55859 2.2617 0.55859 2.2617-0.44141 5.2617-5.5714-6.1429-5.5714-6.1429-6-11h-1v-5l2-1 1 2c1.3544-2.7088 1.065-5.0093 1-8z" fill="#C8A800"/>
    <path transform="translate(109,60)" d="m0 0 2 1-1 1 2 1-0.5625 2.8125c-0.67874 3.2009-0.67874 3.2009 0.5625 6.1875h-2l0.625 3.25c0.36262 3.6262 0.35862 4.8329-1.625 7.75l-2-4-2 1 1-7-4 10h-1c-0.14273-9.0327 3.4689-15.452 8-23z" fill="#AA8F00"/>
    <path transform="translate(86,173)" d="m0 0v3c3.6289 0.15149 3.6289 0.15149 7-1-1.2406 3.7219-2.8068 4.1876-6.1758 5.9121-0.68449 0.33838-1.369 0.67676-2.0742 1.0254-3.7897 1.8949-7.2488 3.66-10.566 6.3242-2.1836 1.7383-2.1836 1.7383-4.8711 1.6133-2.3125-0.875-2.3125-0.875-4.3125-2.875-0.68782 2.3537-0.68782 2.3537-1 5l2 3-1.875 1.8125c-2.2618 2.1956-2.2618 2.1956-4.125 5.1875 0.875-6.75 0.875-6.75 2-9l-0.0625-3.5c0.0625-3.5 0.0625-3.5 2.0625-5.5 2.625-0.125 2.625-0.125 5 0l-1 4c8.9892-3.8482 8.9892-3.8482 15.375-10.688l0.625-2.3125 2-2z" fill="#0C0900"/>
    <path transform="translate(62,92)" d="m0 0-0.9375 1.6875c-1.1201 2.4379-1.6229 4.6747-2.0625 7.3125 1.5788 1.7089 1.5788 1.7089 4 3 4.3458-0.046497 4.3458-0.046497 8-2h5v43c-2.2075-3.3112-2.2476-4.3338-2.2305-8.1836 0.0019336-1.01 0.0038672-2.02 0.0058594-3.0605 0.018369-1.5807 0.018369-1.5807 0.037109-3.1934 6.4453e-4 -1.0499 0.0012891-2.0999 0.0019531-3.1816 0.048803-8.508 0.048803-8.508 1.1855-12.381h-2l1-2c0.22622-1.7036 0.40888-3.4133 0.5625-5.125 0.083789-0.91008 0.16758-1.8202 0.25391-2.7578 0.090879-1.048 0.090879-1.048 0.18359-2.1172h-3l-1 3c-3.23 1.615-6.5081 1.5798-10 1-3.0625-2.0625-3.0625-2.0625-5-5 0-3.6818 0.22391-5.954 2.4375-8.9375 1.5625-1.0625 1.5625-1.0625 3.5625-1.0625z" fill="#1B1700"/>
    <path transform="translate(12,38)" d="m0 0h1l0.4375 2.3125c0.52576 2.7692 0.52576 2.7692 1.5625 5.6875 0.10699 0.77344 0.21398 1.5469 0.32422 2.3438 0.85391 3.3564 2.4028 5.4014 4.4883 8.1562 1.0306 1.3767 1.0306 1.3767 2.082 2.7812 2.0093 2.5946 4.0459 5.164 6.1055 7.7188-3 0-3 0-4.4705-1.1458-0.50346-0.52553-1.0069-1.0511-1.5256-1.5925-0.55881-0.57299-1.1176-1.146-1.6934-1.7363-0.86528-0.90976-0.86528-0.90976-1.748-1.8379-4.9491-5.2178-4.9491-5.2178-10.562-9.6875l-1 1c0.48296 6.2959 0.48296 6.2959 3 12-3-1-3-1-4.168-2.7773-0.89847-2.4001-1.1316-4.2288-1.1445-6.7852-0.016758-0.76441-0.033516-1.5288-0.050781-2.3164 0.44532-2.6001 1.3633-3.4694 3.3633-5.1211l5 4c-0.35062-0.66-0.70125-1.32-1.0625-2-1.266-4.0513-0.64364-6.8337 0.0625-11z" fill="#130F00"/>
    <path transform="translate(88,101)" d="m0 0h3v4c2.31 0.33 4.62 0.66 7 1v-2h-3v-2c3.465-0.495 3.465-0.495 7-1l1 4h-1v6c0.99 0.33 1.98 0.66 3 1v2c1.98 0.66 3.96 1.32 6 2l-4 2c-0.61875-0.66-1.2375-1.32-1.875-2-1.8814-2.2285-1.8814-2.2285-4.125-2l-1 4-1-2 1-3-2-1h2c-1.9851-3.1121-1.9851-3.1121-5.1875-4.75-0.59812-0.0825-1.1962-0.165-1.8125-0.25v3l-5-1v-8z" fill="#A2A8AF"/>
    <path transform="translate(73,64)" d="m0 0c5.1631 2.0652 6.84 5.6921 9.0469 10.504 1.1939 3.1267 1.6284 5.1949 0.95312 8.4961-2.9551 5.5937-2.9551 5.5937-6.25 6.875l-1.75 0.125h7c-1 3-1 3-4.1875 4.75-3.5486 1.415-6.0912 1.2484-9.8125 0.25 1.3976 3.5452 1.3976 3.5452 3 7-1.9375-0.625-1.9375-0.625-4-2-0.9375-2.9375-0.9375-2.9375-1-6 1.4375-1.875 1.4375-1.875 3-3l2 2h4l-1.5-1.25c-1.5-1.75-1.5-1.75-1.5-5.75l2.875 0.1875 3.125-0.1875c2.4846-3.7268 2.773-6.6832 2-11-1.6531-3.5643-3.4007-7.2003-7-9v-2z" fill="#0D0B00"/>
    <path transform="translate(70,172)" d="m0 0 3 2c0.99-0.33 1.98-0.66 3-1l2 7c-1.6281 0.056074-1.6281 0.056074-3.2891 0.11328-1.4453 0.065698-2.8907 0.13214-4.3359 0.19922-0.71285 0.022559-1.4257 0.045117-2.1602 0.068359-4.7711 0.24075-7.9755 1.2448-12.215 3.6191h-2v-3l-4-1c0.78504-0.18176 1.5701-0.36352 2.3789-0.55078 5.7929-1.386 11.303-2.7309 16.621-5.4492l1-2z" fill="#D2B100"/>
    <path transform="translate(78,152)" d="m0 0c5.61 0.66 11.22 1.32 17 2l-4 1c-1.2902 2.5804-0.83321 3.2731 0 6l0.9375 2.8125c1.1248 3.3745 2.1036 6.7627 3.0625 10.188-2.5507 2.3545-3.7102 2.9833-7.25 3.1875l-2.75-0.1875c0.68062-0.84562 1.3612-1.6912 2.0625-2.5625 2.2342-3.3062 2.2342-3.3062 1.9375-7.0625-1.0646-3.5931-2.1195-5.052-5-7.375h3c-0.88215-2.8821-0.88215-2.8821-2-5-1.98 0.33-3.96 0.66-6 1l-1-4z" fill="#534100"/>
    <path transform="translate(46,27)" d="m0 0 1 2-5 2 1 7 0.6875 3.6875c0.33416 3.5421-0.055008 4.3356-1.6875 7.3125-0.16725 3.167-0.16725 3.167 0 6-4.875-1.875-4.875-1.875-6-3-0.040638-1.6662-0.042721-3.3339 0-5l-5-1-1 3c-1.625-2.25-1.625-2.25-3-5 0.4375-2.25 0.4375-2.25 2-4 3.125-0.75 3.125-0.75 6-1l1 5c0.99-0.33 1.98-0.66 3-1l-1 8c2.6999-3.8249 3.4153-6.3282 3-11l-1-2c-0.042473-2.6758-0.047641-5.3268 0-8v-3c3.75-1.125 3.75-1.125 6 0z" fill="#181400"/>
    <path transform="translate(119,129)" d="m0 0c-0.61278 2.9618-1.2537 4.3806-3 7h4v-4c0.99-0.33 1.98-0.66 3-1v15h-5l3-3-5 1c-3.2597-9.41-3.2597-9.41-4-14 2.4906-0.68708 4.3789-1 7-1z" fill="#BC0202"/>
    <path transform="translate(48,126)" d="m0 0 2 1-2 8c0.99-2.31 1.98-4.62 3-7h2c-2.1777 11.931-2.1777 11.931-4 15-2.625 1.3125-2.625 1.3125-5 2l-3-3c1.7398-5.8126 3.811-10.832 7-16z" fill="#DBB900"/>
    <path transform="translate(195,81)" d="m0 0-5 5c-0.59812 0.72188-1.1962 1.4438-1.8125 2.1875-5.1565 4.2725-11.823 4.0398-18.188 3.8125 2.6053-2.6053 5.1794-3.3413 8.625-4.625 1.7828-0.66902 1.7828-0.66902 3.6016-1.3516 1.3729-0.5066 1.3729-0.5066 2.7734-1.0234l-11 3c1-3 1-3 4.125-4.625 5.5099-2.1521 11-2.5183 16.875-2.375z" fill="#F4CE00"/>
    <path transform="translate(150,126)" d="m0 0c3 1 3 1 4.3867 3.3281 0.42926 0.96422 0.85852 1.9284 1.3008 2.9219 0.65549 1.4309 0.65549 1.4309 1.3242 2.8906 0.99962 2.8922 1.4316 4.8345 0.98828 7.8594l-3 2c-2.8404-1.1515-4.6031-2.2092-6-4.9922-1.545-4.4121-2.3628-8.2917-2-13.008 3.0133 1.5066 3.6106 4.0317 5 7l-2-8z" fill="#DEBB00"/>
    <path transform="translate(88,63)" d="m0 0c6.3931 5.3276 9.1366 12.798 10 21l-1-3h-2c-1.9522-1.9522-2.8483-3.532-4-6-0.13277 0.74766-0.26555 1.4953-0.40234 2.2656-0.1766 0.98484-0.3532 1.9697-0.53516 2.9844-0.26104 1.4618-0.26104 1.4618-0.52734 2.9531-0.43895 2.2941-0.93864 4.5398-1.5352 6.7969h-2l1 6-5-1c0.34934-0.53625 0.69867-1.0725 1.0586-1.625 4.0961-7.0551 4.6081-13.175 4.8008-21.129 0.14062-3.2461 0.14062-3.2461 1.1406-4.2461-0.28605-1.6754-0.61781-3.3439-1-5z" fill="#796600"/>
    <path transform="translate(162,117)" d="m0 0c4.1242 1.6617 7.0655 4.6234 10.25 7.625 0.5543 0.51562 1.1086 1.0312 1.6797 1.5625 1.3606 1.2668 2.716 2.5391 4.0703 3.8125l-1 4c-2.207 0.78906-2.207 0.78906-5 1-2.3867-1.9141-2.3867-1.9141-4.6875-4.625-0.76699-0.87914-1.534-1.7583-2.3242-2.6641-1.8632-2.5404-2.9861-4.7418-3.9883-7.7109l7 6-1.875-2.25c-1.7294-2.238-2.9861-4.1874-4.125-6.75z" fill="#EBC600"/>
    <path transform="translate(66,163)" d="m0 0h1l1 12c-13.07 6.0093-13.07 6.0093-19 5-2.1036-1.5426-2.8405-2.6811-4-5h-6v-2l-2-1c-0.73076-2.3141-1.4014-4.6483-2-7h2l1.0625 3.375c0.755 1.9653 0.755 1.9653 1.9375 3.625 3.4222 1.2516 3.4222 1.2516 7 2l2 2.1875c1.9825 2.2123 1.9825 2.2123 5.5 1.75 3.2818-0.87904 5.0346-1.6693 7.5-3.9375h-4c-0.125-2.875-0.125-2.875 0-6l2-2 2 5c0.99-0.33 1.98-0.66 3-1l-0.0625-2.9375c0.0625-3.0625 0.0625-3.0625 1.0625-4.0625z" fill="#1A1500"/>
    <path transform="translate(174,160)" d="m0 0c4.9621 2.0533 6.428 4.7925 8.6875 9.5625 0.76197 3.2308 0.35147 4.3624-1.207 7.3672-5.3701 7.6716-5.3701 7.6716-8.7539 8.8867-0.56977 0.060586-1.1395 0.12117-1.7266 0.18359 0.99-1.32 1.98-2.64 3-4h-2l-1 2 1-5 4 1c0.99-1.32 1.98-2.64 3-4-0.99-0.33-1.98-0.66-3-1l1.9375-0.375 2.0625-0.625 1-2h-2v2h-20l2-3v2h2l1-2v2h2l1-2v2h2l1-2v2h2l1-2v2h2l1-2v2h2v-2l-2-2h3c-1.6881-4.2308-1.6881-4.2308-5-7v-2z" fill="#2F2700"/>
    <path transform="translate(118,50)" d="m0 0c2.9595 0.12314 5.9135 0.095126 8.875 0.0625 1.1756-0.0067676 1.1756-0.0067676 2.375-0.013672 1.9167-0.011687 3.8334-0.029619 5.75-0.048828l-1 3h-19l-2 4-2 2c-0.83687 1.276-1.647 2.5698-2.4375 3.875-1.733 2.82-3.5051 5.5261-5.5625 8.125 0.75-6.625 0.75-6.625 3-10l-4-2v-2c2.97-0.66 5.94-1.32 9-2 0.1849-2.3236 0.1849-2.3236-2-5 3.5796-1.1932 5.2971-0.62288 9 0z" fill="#1F1A00"/>
    <path transform="translate(12,111)" d="m0 0c0.99 0.33 1.98 0.66 3 1v2h3c0.125 6.75 0.125 6.75-1 9v3h-4v-2h-7l-1-5c0.99 0.33 1.98 0.66 3 1v2h2v-2l-2-1 1-3 3 2-1-3h-2l1-3 2-1z" fill="#A68C00"/>
    <path transform="translate(34,166)" d="m0 0c2.6674 2.4895 4.5575 4.6341 6 8h2c-0.57584 2.3856-1.2223 4.6668-2 7h2l-1 5c-2.31-0.33-4.62-0.66-7-1l-1-4 2-1 1 1-1.4375-3.625c-1.2973-3.4391-2.1049-6.714-2.5625-10.375l2-1z" fill="#B29500"/>
    <path transform="translate(118,77)" d="m0 0h1l2 8c3.4715 0.74957 3.4715 0.74957 7 1-0.3125 2.375-0.3125 2.375-1 5l-3 2 1 2c-2.7117-0.077477-4.4495-0.50032-6.4805-2.3438-2.6814-3.3048-3.9047-5.6645-3.457-9.9688 0.9375-3.6875 0.9375-3.6875 2.9375-5.6875z" fill="#423700"/>
    <path transform="translate(192,59)" d="m0 0c0.5625 1.9375 0.5625 1.9375 1 4l-1 1c2.97 0.495 2.97 0.495 6 1-0.43821 4.5574-0.85041 7.5765-4 11 1.98 0.33 3.96 0.66 6 1l-1 4-1-2-11 1 2.4375-2.1875c2.5717-2.8226 3.4608-4.0512 3.5625-7.8125l-2-2c-2.7149 0.28085-4.2866 1.1774-6.625 2.625l-2.375 1.375-2-1c0.61488-0.4473 1.2298-0.89461 1.8633-1.3555 6.0583-4.4369 6.0583-4.4369 10.137-10.645z" fill="#1C1700"/>
    <path transform="translate(146,34)" d="m0 0c2 2 2 2 2.25 5-0.25 3-0.25 3-2.25 5l1 2-4 2 2.875 1.3125c3.125 1.6875 3.125 1.6875 5.125 4.6875-0.56604 6.566-0.56604 6.566-2 8l4 1v-2h2l-1 5-1-2-5 1c-0.99-1.65-1.98-3.3-3-5h3c0.25022-2.9163 0.25022-2.9163 0-6-3.2279-2.1519-4.284-2.2009-8-2-2.125-4.625-2.125-4.625-1-8 3.0625-1.1875 3.0625-1.1875 6-2 0.59733-2.7626 1-5.1603 1-8z" fill="#0E0C00"/>
    <path transform="translate(119,56)" d="m0 0 2 1c2.0982-0.39939 2.0982-0.39939 4-1l-1 4 4 3c-0.72188 0.47438-1.4438 0.94875-2.1875 1.4375-3.679 3.3519-5.5989 7.1542-7.8125 11.562l-2-4c-0.99 0.33-1.98 0.66-3 1l1-5c1.98-0.33 3.96-0.66 6-1v-2l-2-1 1-2h-2l2-6z" fill="#AC9100"/>
    <path transform="translate(163,32)" d="m0 0h2c0.625 1.875 0.625 1.875 1 4l-2 2c-0.16687 2.5835-0.16687 2.5835 0 5 2.97 0.495 2.97 0.495 6 1v1h-8l0.5625 2.8125c0.4375 3.1875 0.4375 3.1875-0.5625 6.1875-2.0625 0.6875-2.0625 0.6875-4 1-0.081322-2.5631-0.14064-5.1237-0.1875-7.6875-0.025137-0.72123-0.050273-1.4425-0.076172-2.1855-0.062472-4.5605 0.34725-7.5467 3.2637-11.127h2v-2z" fill="#B29600"/>
    <path transform="translate(83.977 154.45)" d="m0 0c2.0234 0.55469 2.0234 0.55469 4.0234 2.5547 0.625 2.625 0.625 2.625 1 5-0.68062-0.35062-1.3612-0.70125-2.0625-1.0625-3.6463-1.1637-6.2224-0.66595-9.9375 0.0625l-0.0625 3.8125c-0.011602 0.7077-0.023203 1.4154-0.035156 2.1445 0.015024 2.246 0.015024 2.246 1.0977 5.043-3.875-0.875-3.875-0.875-5-2-0.23961-4.2331-0.32489-7.3674 2-11l-2-1c3.2135-4.6107 5.8646-4.251 10.977-3.5547z" fill="#DAB800"/>
    <path transform="translate(74,115)" d="m0 0c0.8825 3.0383 1.1286 5.7546 1.1328 8.9141 0.0012891 0.92555 0.0025781 1.8511 0.0039062 2.8047-0.0038672 0.95906-0.0077344 1.9181-0.011719 2.9062 0.0038672 0.9668 0.0077344 1.9336 0.011719 2.9297-0.0012891 0.92297-0.0025781 1.8459-0.0039062 2.7969-0.0011279 0.84385-0.0022559 1.6877-0.003418 2.5571-0.12939 2.0913-0.12939 2.0913-1.1294 4.0913h-2c-0.073477-1.2646-0.073477-1.2646-0.14844-2.5547-0.074766-1.0957-0.14953-2.1914-0.22656-3.3203-0.069609-1.0905-0.13922-2.1811-0.21094-3.3047-0.1466-2.9508-0.1466-2.9508-2.4141-4.8203-0.19531-2.3828-0.19531-2.3828-0.125-5.125 0.018047-0.91008 0.036094-1.8202 0.054688-2.7578 0.023203-0.69867 0.046406-1.3973 0.070312-2.1172l2 2c0.99-1.65 1.98-3.3 3-5z" fill="#CCAB00"/>
    <path transform="translate(72,103)" d="m0 0h3v11c-2-2-2-2-3-4l-1 5-2.9375-0.5625c-1.0106-0.14438-2.0212-0.28875-3.0625-0.4375l-1 1c-1.6662 0.040638-3.3339 0.042721-5 0l2-5 2 1 1-3c2.3181-1.0349 4.6518-2.0355 7-3l1-2z" fill="#EDC800"/>
    <path transform="translate(32,75)" d="m0 0c6.136 1.416 10.267 5.0663 15 9l-2 1c-2.0314-0.93447-4.0353-1.9322-6-3l2 1.1875c2 1.8125 2 1.8125 2.25 4.5l-0.25 2.3125-2 1c-2.625-0.9375-2.625-0.9375-5-2 3-1 3-1 5-1l-6-3v-2l-5-2 2-3v-3z" fill="#C8A900"/>
    <path transform="translate(87,193)" d="m0 0c1.089 3.267 0.95955 5.1672 0.625 8.5625-0.090234 0.97066-0.18047 1.9413-0.27344 2.9414-0.35156 2.4961-0.35156 2.4961-1.3516 4.4961l-2-1v-3l-3.375-0.375c-3.625-0.625-3.625-0.625-5.625-2.625 0.375-2.625 0.375-2.625 1-5 2.9785-0.3418 2.9785-0.3418 5.957-0.68359 2.2369-0.28811 2.2369-0.28811 5.043-1.3164v-2zm-10 7 1 2h2v-2h-3z" fill="#7D6900"/>
    <path transform="translate(175,116)" d="m0 0c1.6661-0.042721 3.3338-0.040638 5 0l1 1c1.5147 0.23193 3.0375 0.41215 4.5625 0.5625 0.82629 0.083789 1.6526 0.16758 2.5039 0.25391 0.63809 0.060586 1.2762 0.12117 1.9336 0.18359l-4 2 1 1.75c1 2.25 1 2.25 1 6.25-2.7088 1.3544-5.0093 1.065-8 1v7l-2-1c-0.070898-0.71543-0.1418-1.4309-0.21484-2.168-1.1814-4.2613-4.0784-6.3094-7.3477-9.1445-0.61553-0.54979-1.2311-1.0996-1.8652-1.666-1.5151-1.3507-3.0425-2.6875-4.5723-4.0215 4.7567 0 7.4828 3.2814 11.113 6.1523 3.6072 2.3088 6.6515 2.8477 10.887 2.8477-0.9563-3.2166-1.5603-4.6992-4.375-6.625l-2.625-1.375c-1.3463-0.98245-2.6844-1.9768-4-3z" fill="#171300"/>
    <path transform="translate(5,81)" d="m0 0c2.1253 0.14069 4.2503 0.28771 6.375 0.4375 1.775 0.12182 1.775 0.12182 3.5859 0.24609 3.0391 0.31641 3.0391 0.31641 5.0391 1.3164v2h-6l16 6v1c-7.7259 0.42922-14.899-0.41625-21-5.5-2-2.5-2-2.5-4-5.5z" fill="#F7D000"/>
    <path transform="translate(108,15)" d="m0 0c4.875 1.875 4.875 1.875 6 3-0.59633 7.3945-0.59633 7.3945-3 11l-5-2v-2c-0.99-0.33-1.98-0.66-3-1v-5h4l1-4z" fill="#AF9300"/>
    <path transform="translate(36,117)" d="m0 0 2 1-8 9 8-6c-1.7937 3.5875-3.6104 6.1676-6.125 9.25-0.72445 0.89203-1.4489 1.7841-2.1953 2.7031-0.83145 1.0132-0.83145 1.0132-1.6797 2.0469l-5-1c0.18413-4.0033 0.8834-6.2453 3.7227-8.9922 1.1006-0.97541 2.2144-1.9362 3.3398-2.8828 0.56783-0.49758 1.1357-0.99516 1.7207-1.5078 1.3944-1.2186 2.8041-2.4197 4.2168-3.6172z" fill="#F2CC00"/>
    <path transform="translate(69.961 62.902)" d="m0 0c1.6641 1.0977 1.6641 1.0977 4.0391 3.0977-3 1-3 1-4.875 0.375-2.2775-0.61383-2.2775-0.61383-4.75 0.875-2.586 1.6974-2.586 1.6974-4.375 4.75l-1-2.5c-1.6828-2.6731-1.6828-2.6731-3.9805-2.832-2.0095 0.017783-4.0167 0.16786-6.0195 0.33203l-1-2c6.8088-2.4338 14.968-5.3156 21.961-2.0977z" fill="#5B4D00"/>
    <path transform="translate(114,52)" d="m0 0c2.3961-0.054252 4.791-0.09379 7.1875-0.125 1.0103-0.025137 1.0103-0.025137 2.041-0.050781 4.0596-0.039605 7.1215 0.37558 10.771 2.1758-0.1875 1.875-0.1875 1.875-1 4-2.5625 1.25-2.5625 1.25-5 2v-2l-6 4 2-5-1.875 0.5c-2.125 0.5-2.125 0.5-4.125 0.5l-3 2c0.6875-2.4375 0.6875-2.4375 2-5 2.625-0.8125 2.625-0.8125 5-1l-8-1v-1z" fill="#F2CC00"/>
    <path transform="translate(78.25,51.875)" d="m0 0c0.74508 0.0090234 1.4902 0.018047 2.2578 0.027344 1.8309 0.023473 3.6616 0.059341 5.4922 0.097656v1l-4 1c0.99 1.32 1.98 2.64 3 4l-1 2-3-3-2 1c-0.99-0.33-1.98-0.66-3-1 0.99 1.32 1.98 2.64 3 4l-1 2-7-6 1 3c-2.6219-1.0487-3.7937-1.6493-5.25-4.125l-0.75-1.875c3.8416-2.5678 7.8139-2.2269 12.25-2.125z" fill="#F4CD00"/>
    <path transform="translate(157,176)" d="m0 0h22l-2 4c-2.5 0.625-2.5 0.625-5 1l-2 2c-0.99-1.32-1.98-2.64-3-4-0.99 0.33-1.98 0.66-3 1v3c-2.867-1.2852-4.9761-2.5713-7-5v-2z" fill="#F2CC00"/>
    <path transform="translate(111,156)" d="m0 0c1 3 1 3 0 6l2 1-1.5 2.25c-1.8192 2.8132-1.8192 2.8132-1.5 6.75l2.375 0.75c2.625 1.25 2.625 1.25 3.9375 3.1875 0.6875 2.0625 0.6875 2.0625 0.6875 5.0625l4 1c-2.7223 1.0763-3.7538 1.102-6.5078-0.039062-0.86367-0.52336-1.7273-1.0467-2.6172-1.5859-0.86883-0.50789-1.7377-1.0158-2.6328-1.5391-2.6033-2.1316-3.4896-3.568-4.2422-6.8359l2-3 1 6h4c-0.63938-0.39188-1.2788-0.78375-1.9375-1.1875-2.0625-1.8125-2.0625-1.8125-2.9375-4.125-0.15545-3.3421 0.64758-5.5867 1.875-8.6875 0.37125-0.94875 0.7425-1.8975 1.125-2.875 0.28875-0.70125 0.5775-1.4025 0.875-2.125z" fill="#2A2200"/>
    <path transform="translate(28,98)" d="m0 0c4.455 0.99 4.455 0.99 9 2v1c-1.98 0.33-3.96 0.66-6 1l-1 3 1 1c2.3569-0.090316 4.7115-0.24688 7.0625-0.4375 1.9355-0.15275 1.9355-0.15275 3.9102-0.30859 0.99902-0.083789 1.998-0.16758 3.0273-0.25391v4l-5 1 1-2h3l-1-1c-1.489 0.2617-2.967 0.58651-4.4375 0.9375-5.2512 1.129-10.212 1.2674-15.562 1.0625v-1l5-1-11-1v-2c0.78246-0.048984 1.5649-0.097969 2.3711-0.14844 1.0119-0.074766 2.0238-0.14953 3.0664-0.22656 1.0093-0.069609 2.0187-0.13922 3.0586-0.21094 1.2394-0.20496 1.2394-0.20496 2.5039-0.41406l1-2h-13v-1l12-1v-1z" fill="#564800"/>
    <path transform="translate(33,115)" d="m0 0-6 4c0.5543-0.30035 1.1086-0.6007 1.6797-0.91016 0.72445-0.38027 1.4489-0.76055 2.1953-1.1523 0.7193-0.38285 1.4386-0.7657 2.1797-1.1602 0.64195-0.25652 1.2839-0.51305 1.9453-0.77734l2 1c-2.4313 1.8421-4.8693 3.6738-7.3125 5.5-0.69029 0.52465-1.3806 1.0493-2.0918 1.5898-0.66709 0.49629-1.3342 0.99258-2.0215 1.5039-0.91906 0.69126-0.91906 0.69126-1.8567 1.3965-1.7175 1.0098-1.7175 1.0098-4.7175 1.0098v-8c1.7651-0.86605 3.5373-1.7175 5.3125-2.5625 0.98613-0.47566 1.9723-0.95133 2.9883-1.4414 2.6992-0.99609 2.6992-0.99609 5.6992 0.0039062z" fill="#F0CB00"/>
    <path transform="translate(71,108)" d="m0 0 2 1c0.41406 2.0664 0.41406 2.0664 0.625 4.5625 0.074766 0.82629 0.14953 1.6526 0.22656 2.5039 0.048984 0.63809 0.097969 1.2762 0.14844 1.9336h-1l-1 5-2-3-2 4-2-4-2 3v-5h-2l-1 2v-3h-2l-1 5c-0.625-1.8125-0.625-1.8125-1-4l2-3 2.5-0.4375c2.6682-0.29163 2.6682-0.29163 3.8125-2.625l0.6875-1.9375 1 4h4v-6z" fill="#786500"/>
    <path transform="translate(178,67)" d="m0 0 2 1c-0.5659 0.45891-1.1318 0.91781-1.7148 1.3906-0.73348 0.61359-1.467 1.2272-2.2227 1.8594-1.0963 0.90492-1.0963 0.90492-2.2148 1.8281-2.0069 2.0875-2.3207 3.1482-2.8477 5.9219l-2 3c0.99-0.33 1.98-0.66 3-1 0 4 0 4-1 6l-1-1c-2.3282-0.36761-4.6618-0.70242-7-1 1.3333-2.6667 2.6667-5.3333 4-8-1.98 0.33-3.96 0.66-6 1 3.625-3 3.625-3 7-3v-2c0.63809-0.34934 1.2762-0.69867 1.9336-1.0586 0.82629-0.45504 1.6526-0.91008 2.5039-1.3789 0.82371-0.45246 1.6474-0.90492 2.4961-1.3711 1.9895-1.028 1.9895-1.028 3.0664-2.1914z" fill="#705E00"/>
    <path transform="translate(137,62)" d="m0 0 2.5 0.4375c6.7184 1.1385 6.7184 1.1385 13.5 1.5625l-1 4c-5.625 1.125-5.625 1.125-9 0l-4 4-1.25-2.375c-1.7893-2.6839-2.7999-3.506-5.75-4.625v-1l5-1v-1z" fill="#5E5000"/>
    <path transform="translate(101,174)" d="m0 0c2.1889 4.2641 3.9114 8.653 5.625 13.125 0.32484 0.80438 0.64969 1.6088 0.98438 2.4375 2.2652 5.9582 2.8001 11.087 2.3906 17.438l-4 2c-0.95261-4.7631-1.0833-9.1667-1-14h1l1 6c-0.15809-4.6394-0.15809-4.6394-2.4727-8.3555-2.1905-2.3585-2.2273-4.4916-2.6523-7.6445-0.44273-3.169-0.86174-5.9602-1.875-9l1-2z" fill="#120F00"/>
    <path transform="translate(85,160)" d="m0 0v1l-2.9375 0.75c-1.0106 0.4125-2.0212 0.825-3.0625 1.25-0.96877 2.0324-0.96877 2.0324-1 4 2.0755 0.55348 3.8437 1 6 1-0.75 2.4375-0.75 2.4375-2 5-2.125 0.8125-2.125 0.8125-4 1 0.35062 0.78375 0.70125 1.5675 1.0625 2.375l0.9375 2.625-1 2c-2.267 0.15573-4.5403 0.22237-6.8125 0.25-6.9397 0.22512-11.841 2.0246-17.895 5.5703-1.135 0.58395-1.135 0.58395-2.293 1.1797l-2-1c1.6245-0.98007 3.2496-1.959 4.875-2.9375 0.90492-0.54527 1.8098-1.0905 2.7422-1.6523 4.2973-2.5431 7.5994-2.5278 12.508-2.4727 0.7541 0.0045117 1.5082 0.0090234 2.2852 0.013672 1.8633 0.011793 3.7266 0.029729 5.5898 0.048828l-1-1.8125c-1-2.1875-1-2.1875-1-5.1875l4-2-4-2c-0.36-5.4-0.36-5.4 1.125-7.875 2.6553-1.5932 4.8429-1.3271 7.875-1.125z" fill="#080700"/>
    <path transform="translate(93,107)" d="m0 0c2.31 0.33 4.62 0.66 7 1-0.034805 0.58008-0.069609 1.1602-0.10547 1.7578-0.18691 5.3936 0.53918 8.4176 3.1055 13.242 0.23833 1.43 0.42433 2.8694 0.5625 4.3125l0.4375 3.6875 2 1-1 3c-2.7711-2.3459-3.5206-4.1478-4.1875-7.6875-0.23783-1.2124-0.23783-1.2124-0.48047-2.4492-0.10957-0.61488-0.21914-1.2298-0.33203-1.8633h-2c-3.4442-9.41-3.4442-9.41-3-14h-2v-2z" fill="#E7E7E7"/>
    <path transform="translate(141,51)" d="m0 0c5.75 0.75 5.75 0.75 8 3 0.125 3.125 0.125 3.125 0 6l-2 1-2-1c-4.2784-0.13801-7.8734-0.16581-12 1 0.40992-0.47051 0.81984-0.94102 1.2422-1.4258 0.53883-0.62262 1.0777-1.2452 1.6328-1.8867 0.53367-0.61488 1.0673-1.2298 1.6172-1.8633 1.6719-1.9592 1.6719-1.9592 3.5078-4.8242z" fill="#EAC500"/>
    <path transform="translate(59,51)" d="m0 0c1.9844 1.6797 1.9844 1.6797 3.75 3.875 0.59297 0.7193 1.1859 1.4386 1.7969 2.1797 1.4531 1.9453 1.4531 1.9453 2.4531 3.9453l-2-0.5c-3.7393-0.62322-7.2068-0.56118-11-0.5h-3c-0.3619-5.4286-0.3619-5.4286 1.1875-7.875 2.4728-1.5348 3.9368-1.4679 6.8125-1.125z" fill="#EAC500"/>
    <path transform="translate(156,20)" d="m0 0c1.2063 1.4671 2.4071 2.9407 3.5352 4.4688 2.617 2.7357 5.9118 3.4061 9.4648 4.5312 1 1 1 1 1.0625 4.0625l-0.0625 2.9375-2 1-1-6c-1.435-0.36402-2.8732-0.71587-4.3125-1.0625-0.80051-0.19723-1.601-0.39445-2.4258-0.59766-2.4213-0.5387-2.4213-0.5387-5.2617 0.66016l-2-2 1-2h4l-4-4-8 4v8c-2.6163-2.6163-2.7767-4.3527-3-8 1.125-1.6875 1.125-1.6875 3-3l2.375-1.6875c2.9915-1.4957 4.3496-2.0495 7.625-1.3125z" fill="#120F00"/>
    <path transform="translate(56,129)" d="m0 0h2l1 3 2-3c1 1 1 1 1.0977 3.5039-0.011602 1.0093-0.023203 2.0187-0.035156 3.0586-0.0090234 1.0119-0.018047 2.0238-0.027344 3.0664-0.011602 0.78246-0.023203 1.5649-0.035156 2.3711-2.3125 1.125-2.3125 1.125-5 2l-3-2c-0.36793-4.5623-0.61839-8.0724 2-12z" fill="#DCBA00"/>
    <path transform="translate(47,34)" d="m0 0h1l0.3125 3.375 0.6875 3.625 3 2v-3h2c0.43312 0.47438 0.86625 0.94875 1.3125 1.4375 2.1344 1.9763 3.8506 2.1791 6.6875 2.5625l-1 5h-2v2l-2.875 0.5625c-3.5087 1.1715-3.5087 1.1715-4.5 5.0625l-0.625 3.375-2-1c0.48691-6.4515 0.48691-6.4515 2.8125-8.9375 2.1875-1.0625 2.1875-1.0625 6.1875-1.0625v-2c-0.71027-0.19336-1.4205-0.38672-2.1523-0.58594-0.9191-0.26039-1.8382-0.52078-2.7852-0.78906-0.91652-0.25523-1.833-0.51047-2.7773-0.77344-2.2852-0.85156-2.2852-0.85156-3.2852-2.8516-0.13415-2.6724-0.043185-5.3225 0-8z" fill="#161200"/>
    <path transform="translate(139,121)" d="m0 0h1c0.625 3.375 0.625 3.375 1 7l-2 2c-0.24316 2.6695-0.24316 2.6695-0.125 5.625 0.02707 1.5043 0.02707 1.5043 0.054688 3.0391 0.023203 0.77086 0.046406 1.5417 0.070312 2.3359 3.0491 1.0111 3.0491 1.0111 6 0v-12c2 1 2 1 3 3.6172 0.33 1.0751 0.66 2.1502 1 3.2578 1.0822 3.5086 1.9528 6.0542 4 9.125-3.875-1.75-3.875-1.75-5-4l-6 4c-2.5-0.875-2.5-0.875-5-3-0.46087-3.3671-0.28527-6.6211 0-10l-5-2c2.0003-1.0002 3.8313-1.494 6-2l1-7z" fill="#141000"/>
    <path transform="translate(35,110)" d="m0 0 1 3c3.465-0.495 3.465-0.495 7-1l-1.4375 1.0625c-1.8875 1.9914-1.8875 1.9914-2 5.5l-0.5625 3.4375c-1.8125 1.1875-1.8125 1.1875-4 2-1.3709 1.2947-2.7134 2.6215-4 4l-2-1 8-9-2-2c-0.5543 0.30035-1.1086 0.6007-1.6797 0.91016-0.72445 0.38027-1.4489 0.76055-2.1953 1.1523-0.7193 0.38285-1.4386 0.7657-2.1797 1.1602-0.64195 0.25652-1.2839 0.51305-1.9453 0.77734l-2-1 6-4-1-2h-8c3.7429-3.7429 7.9023-3.098 13-3z" fill="#5F5000"/>
    <path transform="translate(115,108)" d="m0 0h2l2 10c-3 0-3 0-4.6875-1.5-0.43312-0.495-0.86625-0.99-1.3125-1.5l-1 3h2v4l-10-1-1-6 2.875 1c2.8956 1.1016 2.8956 1.1016 5.125 1l1-6h2l1-3z" fill="#E4E4E4"/>
    <path transform="translate(165.85 149.9)" d="m0 0c2.0508 0.032552 4.1016 0.065104 6.1523 0.097656v3c-0.99 0.33-1.98 0.66-3 1v-3h-2v3l-1 1c0.4093 2.054 0.4093 2.054 1 4-0.5543 0.31453-1.1086 0.62906-1.6797 0.95312-0.72445 0.42797-1.4489 0.85594-2.1953 1.2969-0.7193 0.41766-1.4386 0.83531-2.1797 1.2656-2.1541 1.6437-2.9367 3-3.9453 5.4844l2 2h-4v6c-2-3-2-3-1.8125-5.3125 1.4674-4.8536 2.5479-7.9188 7-10.625l2.8125-2.0625c0.41726-3.626 0.41726-3.626 0-7 1-1 1-1 2.8477-1.0977z" fill="#0D0B00"/>
    <path transform="translate(119,159)" d="m0 0c3.4928-0.39918 4.697-0.22908 7.5625 1.9375l2.4375 2.0625 4 1v10l-2-1c-0.625-2.0625-0.625-2.0625-1-4h-3c-1.7053 1.9401-1.7053 1.9401-3 4l-5-1c1-2 1-2 4-3v-8l-4-2z" fill="#E2BE00"/>
    <path transform="translate(160,120)" d="m0 0c0.495 0.63938 0.99 1.2788 1.5 1.9375l2.5 3.0625c0.61746 0.77086 1.2349 1.5417 1.8711 2.3359 0.68191 0.81727 1.3638 1.6345 2.0664 2.4766 0.6484 0.7902 1.2968 1.5804 1.9648 2.3945 1.9903 2.049 1.9903 2.049 4.8516 2.0547 0.74121-0.086367 1.4824-0.17273 2.2461-0.26172v-3h2l-1 6c-5.75 0.125-5.75 0.125-8-1l-2 5-5-1 4-4c-1.3493-3.8366-3.0775-6.6517-5.625-9.8125-0.63164-0.7902-1.2633-1.5804-1.9141-2.3945-0.48211-0.59168-0.96422-1.1834-1.4609-1.793l2-2z" fill="#332A00"/>
    <path transform="translate(90,161)" d="m0 0 3 2 2-1c4.4286 6.2857 4.4286 6.2857 5 10 0.28875-0.80438 0.5775-1.6088 0.875-2.4375 1.125-2.5625 1.125-2.5625 3.125-3.5625-0.55729 3.3437-1.3517 6.0331-3 9-3-1-3-1-4.6875-4.0625l-1.3125-2.9375 0.9375 3c0.45676 2.8635 0.20481 3.7858-1.4297 6.2461-1.7725 1.9967-3.5822 3.9051-5.5078 5.7539l-4-2 3.375-1.6875c2.3591-1.3838 3.6172-2.3024 5.3125-4.5 0.43354-3.9019-0.994-6.3799-2.7422-9.8242-0.94531-1.9883-0.94531-1.9883-0.94531-3.9883z" fill="#EAC500"/>
    <path transform="translate(78,159)" d="m0 0-2 1.5625c-2.6564 3.2375-2.3134 5.363-2 9.4375l4 2v-2c0.99 0.33 1.98 0.66 3 1-1 2-1 2-2.8477 2.6328-1.0963 0.24363-1.0963 0.24363-2.2148 0.49219-0.73348 0.16758-1.467 0.33516-2.2227 0.50781-0.5659 0.12117-1.1318 0.24234-1.7148 0.36719l-1-2-3 2v-13c6.625-4.125 6.625-4.125 10-3z" fill="#7D6900"/>
    <path transform="translate(139,129)" d="m0 0 2 4 2-4 2 1c0.41406 2.5039 0.41406 2.5039 0.625 5.5625 0.074766 1.0119 0.14953 2.0238 0.22656 3.0664 0.048984 0.78246 0.097969 1.5649 0.14844 2.3711-2.3125 1.125-2.3125 1.125-5 2l-3-2c-0.32812-2.5664-0.32812-2.5664-0.25-5.5625 0.015469-0.99129 0.030938-1.9826 0.046875-3.0039 0.20312-2.4336 0.20312-2.4336 1.2031-3.4336z" fill="#DDBA00"/>
    <path transform="translate(95,123)" d="m0 0 4 3-1-3h2l2 9h-2c-1.0283 2.7421-1.0283 2.7421-1 6 1.793 2.135 3.6784 3.3891 6 5-4.357 0-6.9204-2.0151-10-5-1.7706-4.8693-0.72763-9.9626 0-15z" fill="#BAB7B8"/>
    <path transform="translate(145,59)" d="m0 0-2 2 5 3-2 1-2.0625-1c-4.1374-1.4085-7.6869-0.68529-11.938 0v2l-3.0625-0.1875c-3.1577 0.3915-3.8775 1.1113-5.8906 3.668-1.2276 1.9936-2.4176 4.0108-3.5664 6.0508-1.4805 2.4688-1.4805 2.4688-3.4805 3.4688v-5h2c0.97162-1.4223 1.8783-2.8894 2.75-4.375 2.6944-4.1819 4.3006-5.5139 9.25-6.625l3.375-2.125c3.948-2.3847 7.0893-2.1933 11.625-1.875z" fill="#130F00"/>
    <path transform="translate(106,123)" d="m0 0c1.9995-0.042544 4.0004-0.040808 6 0l1 1-0.1875 3.1875c-0.13045 6.4869 2.2619 12.692 4.1875 18.812-0.99-0.33-1.98-0.66-3-1-0.84375-2.1445-0.84375-2.1445-1.5-4.8125-0.923-3.7195-1.8846-6.3349-4.5-9.1875-0.99-0.33-1.98-0.66-3-1l1-7z" fill="#ECECEC"/>
    <path transform="translate(179,40)" d="m0 0c0 4.1107-2.09 6.5218-4.3125 9.8125-2.8698 4.2887-5.4729 8.5074-7.6875 13.188l-2-1c-0.38672 0.5543-0.77344 1.1086-1.1719 1.6797-0.52078 0.72445-1.0416 1.4489-1.5781 2.1953-0.51047 0.7193-1.0209 1.4386-1.5469 2.1797-1.7782 2.031-3.2301 2.9239-5.7031 3.9453l-1-4c0.59812-0.073477 1.1962-0.14695 1.8125-0.22266 2.9704-1.0556 3.6071-2.5307 5.1875-5.2148 2.5858-4.3775 2.5858-4.3775 4.8984-5.4102 3.3181-1.8194 4.825-4.9957 6.7266-8.1523 4.1836-6.8086 4.1836-6.8086 6.375-9z" fill="#0C0A00"/>
    <path transform="translate(59,117)" d="m0 0c2.4375 0.375 2.4375 0.375 5 1l1 2 2-3c0.22175 1.4564 0.42699 2.9152 0.625 4.375 0.11602 0.81211 0.23203 1.6242 0.35156 2.4609 0.0077344 0.71414 0.015469 1.4283 0.023438 2.1641l-2 2c-2-0.1875-2-0.1875-4-1l-2-3-5 3-1-5 2-1v2h2l1-6z" fill="#F3CD00"/>
    <path transform="translate(87,105)" d="m0 0 2 4h6c-0.375 2.9375-0.375 2.9375-1 6-3.2145 1.6073-6.4361 1.0575-10 1-0.75-3.25-0.75-3.25-1-7 1.9375-2.4375 1.9375-2.4375 4-4z" fill="#094F98"/>
    <path transform="translate(166,178)" d="m0 0 5 5c0.99-0.33 1.98-0.66 3-1l-1 3h-2v2c-1.7695 0.10815-3.5409 0.18566-5.3125 0.25-0.98613 0.046406-1.9723 0.092812-2.9883 0.14062-2.6992-0.39062-2.6992-0.39062-4.5547-2.4062-0.56654-0.98227-0.56654-0.98227-1.1445-1.9844l2-4 5 4v-3h2v-2z" fill="#786500"/>
    <path transform="translate(149,125)" d="m0 0h5c1.3386 2.2887 2.671 4.5807 4 6.875 0.38156 0.65098 0.76312 1.302 1.1562 1.9727 2.8438 4.9258 2.8438 4.9258 2.8438 7.1523h6l1-5h2l-2 7-3.75-0.75c-2.1814-0.35039-2.1814-0.35039-4.25-0.25-2.2507 1.9167-2.2507 1.9167-4 4-2.25-0.25-2.25-0.25-4-1l4-2c-0.49519-5.8185-2.0109-10.939-5-16l-3-2z" fill="#181400"/>
    <path transform="translate(8,87)" d="m0 0 17 5v1c-1.2788-0.14438-2.5575-0.28875-3.875-0.4375-0.81469-0.088945-1.6294-0.17789-2.4688-0.26953-1.7926-0.19771-3.5842-0.40364-5.375-0.61719-1.3148-0.14889-1.3148-0.14889-2.6562-0.30078-1.2182-0.14309-1.2182-0.14309-2.4609-0.28906-2.3483-0.221-2.3483-0.221-5.1641 0.91406 1.0684 3.0983 1.9439 3.9663 4.8125 5.6875 2.7827 1.1458 5.2228 1.8765 8.1875 2.3125v1c-0.60328 0.13277-1.2066 0.26555-1.8281 0.40234-0.79922 0.1766-1.5984 0.3532-2.4219 0.53516-0.78891 0.17402-1.5778 0.34805-2.3906 0.52734-2.1282 0.48271-4.2447 0.99679-6.3594 1.5352l4-4-2.9375-2.1875c-2.3616-1.9449-2.9966-2.6008-3.9375-5.625l-0.125-2.1875c2.7088-1.3544 5.0093-1.065 8-1v-2z" fill="#120F00"/>
    <path transform="translate(74,55)" d="m0 0 2.3125 1c2.6782 1.1744 2.6782 1.1744 5.6875 1l1 5-2 1-1 2c-4.75-0.875-4.75-0.875-7-2v2c-2.4375-0.75-2.4375-0.75-5-2-0.8125-2.125-0.8125-2.125-1-4h4v-3l7 6-4-7z" fill="#977F00"/>
    <path transform="translate(106,35)" d="m0 0-1 2 2 1c-0.80824 0.01418-1.6165 0.028359-2.4492 0.042969-6.8306 0.1257-6.8306 0.1257-12.488 3.5195-0.68062 0.80438-1.3612 1.6088-2.0625 2.4375-2.8125 0.3125-2.8125 0.3125-5 0v-3c2.7203-2.5188 5.5356-3.7682 9-5 0.7309-0.28359 1.4618-0.56719 2.2148-0.85938 1.193-0.44086 1.193-0.44086 2.4102-0.89062 1.1331-0.42539 1.1331-0.42539 2.2891-0.85938 2.0859-0.39062 2.0859-0.39062 5.0859 1.6094z" fill="#988000"/>
    <path transform="translate(2,104)" d="m0 0h2c0.82758 0.9668 0.82758 0.9668 1.6719 1.9531 3.1674 2.7848 5.4165 2.6427 9.5781 2.7969 1.8949 0.085078 1.8949 0.085078 3.8281 0.17188 0.96422 0.025781 1.9284 0.051562 2.9219 0.078125v1c-1.0306 0.16436-1.0306 0.16436-2.082 0.33203-0.90105 0.15855-1.8021 0.31711-2.7305 0.48047-1.34 0.22623-1.34 0.22623-2.707 0.45703-2.6637 0.78442-3.7374 1.6167-5.4805 3.7305h2l1-2v5c-0.99-0.33-1.98-0.66-3-1l-1 2c0.99 0.33 1.98 0.66 3 1l-1 2h-2v-2h-2l-2 3-1-6h2c1.3894-1.9615 2.726-3.9617 4-6l-2.9375-1.8125c-3.0625-2.1875-3.0625-2.1875-4.0625-5.1875z" fill="#161200"/>
    <path transform="translate(67,61)" d="m0 0-1 2c-1.1344-0.061875-2.2688-0.12375-3.4375-0.1875-4.901-0.026302-9.0365 1.4274-13.562 3.1875h8v2c-6.2009 1.459-6.2009 1.459-9.9375-0.6875-2.0625-2.3125-2.0625-2.3125-2.0625-6.3125 2.97 0.495 2.97 0.495 6 1l-1-2c5.7399-1.9133 11.622-1.6888 17 1zm-12.812 0.5c-0.39188 0.495-0.78375 0.99-1.1875 1.5l8-2v-1c-3.7174-0.34901-3.7174-0.34901-6.8125 1.5z" fill="#0D0B00"/>
    <path transform="translate(95,133)" d="m0 0v5l1.75 0.75c2.5503 1.4168 4.2679 3.1263 6.25 5.25l-10-2-3 5-2-1c-0.4908-7.362-0.4908-7.362 1.875-10.438 3.485-2.5625 3.485-2.5625 5.125-2.5625z" fill="#B60606"/>
    <path transform="translate(104,121)" d="m0 0c7.4286-0.28571 7.4286-0.28571 11 2v4c3.465-0.495 3.465-0.495 7-1l-2 10h-4c0.30938-0.59812 0.61875-1.1962 0.9375-1.8125 1.1646-2.2771 1.1646-2.2771 2.0625-5.1875-2.31 0.33-4.62 0.66-7 1v-6c-2.97-0.495-2.97-0.495-6-1l1 4c-0.99-0.33-1.98-0.66-3-1v-5z" fill="#ACA3A4"/>
    <path transform="translate(134,32)" d="m0 0c4.875 1.875 4.875 1.875 6 3 0.040929 2.333 0.042417 4.6671 0 7-4.4966 2.2483-8.0787 2.1668-13 2l-1-2h3l1-2h3v-1c0.3276-2.3341 0.66073-4.6675 1-7z" fill="#9E8600"/>
    <path transform="translate(68,146)" d="m0 0 1 2c-4.322 2.8814-4.322 2.8814-7.5 3.4375-2.6579 0.36399-2.6579 0.36399-4.5 2.5625-0.38921 2.7928-0.38921 2.7928-0.5 5.9375-0.27851 5.7303-0.27851 5.7303-2.5 9.0625l4 1h-6l-2-4c0.99-0.33 1.98-0.66 3-1 0.025781-0.73605 0.051562-1.4721 0.078125-2.2305 0.4628-7.9622 0.4628-7.9622 2.7344-11.957 2.1875-1.8125 2.1875-1.8125 6.1875-1.8125v-2c1.98-0.33 3.96-0.66 6-1z" fill="#181400"/>
    <path transform="translate(134,110)" d="m0 0 2 4h3l2-3 1 4h3l-1 3v-2h-2l1 6-3-3v2h-2v-3h-2v5c-2-3-2-3-3-6-2.97-0.495-2.97-0.495-6-1v-2c2.97 0.495 2.97 0.495 6 1l1-5z" fill="#766300"/>
    <path transform="translate(112.31 104.19)" d="m0 0 1.6875 0.8125 1 6-3 2-1 3c-1.98-0.66-3.96-1.32-6-2-0.3125-2.1875-0.3125-2.1875 0-5 3.9779-5.0829 3.9779-5.0829 7.3125-4.8125z" fill="#F3F2F2"/>
    <path transform="translate(44,20)" d="m0 0c4.6846-0.083654 8.4129 0.94045 12 4 1.796 4.3315 0.71395 7.2051-0.9375 11.375-0.67347 1.5478-1.3565 3.0917-2.0625 4.625-1.1498-3.8032-0.51561-5.3447 1-9 0.66686-2.5433 0.66686-2.5433 0-5-3.5936-3.1197-3.5936-3.1197-8.125-4.0625-2.0788 1.0144-2.0788 1.0144-3.625 3.375-2.5748 3.0754-4.8202 4.1495-8.4453 5.6953-2.1409 0.9961-2.1409 0.9961-3.8047 3.9922 0-2.8125 0-2.8125 1-6 1.9358-0.99051 3.8631-1.5329 5.9492-2.1406 2.3953-1.0037 3.1621-1.9932 4.6133-4.1094 0.80438-0.9075 1.6088-1.815 2.4375-2.75z" fill="#0D0B00"/>
    <path transform="translate(71,33)" d="m0 0c2.97 0.495 2.97 0.495 6 1 1.1495 3.5529 1.0869 4.7998-0.4375 8.3125l-1.5625 2.6875c-4.0872 0.24042-7.1768-0.57741-11-2 3.625-3 3.625-3 7-3v2c0.99-0.33 1.98-0.66 3-1l-2-1c-0.40729-2.3216-0.74439-4.6569-1-7z" fill="#A38900"/>
    <path transform="translate(157,112)" d="m0 0 8 2-2 4c2.31 2.64 4.62 5.28 7 8l-1 2-7-7-5 2 1.5625 2.375c0.47438 0.86625 0.94875 1.7325 1.4375 2.625l-1 2c-3.959-4.2715-5.7488-7.3125-7-13 0.59812 0.33 1.1962 0.66 1.8125 1 2.2414 1.2079 2.2414 1.2079 5.1875 1 0.77242-1.837 0.77242-1.837 1-4-1.3544-1.7719-1.3544-1.7719-3-3z" fill="#534600"/>
    <path transform="translate(98,183)" d="m0 0h1v26c-0.99-0.33-1.98-0.66-3-1-1.8408-9.2041-0.73405-16.147 2-25z" fill="#F5CE00"/>
    <path transform="translate(133,116)" d="m0 0 2 4 1-2h2c1.1735 3.5206 1.2015 6.3065 1 10l-2 2c-2.625-0.375-2.625-0.375-5-1-0.026866-1.9791-0.046334-3.9583-0.0625-5.9375-0.011602-1.1021-0.023203-2.2043-0.035156-3.3398 0.097656-2.7227 0.097656-2.7227 1.0977-3.7227z" fill="#DCB900"/>
    <path transform="translate(113,62)" d="m0 0 2 4 4-4 1 5-5 2v2l2-1-1 14h-1l-1-8-2 4c-0.060586-0.69867-0.12117-1.3973-0.18359-2.1172-0.083789-0.91008-0.16758-1.8202-0.25391-2.7578-0.081211-0.90492-0.16242-1.8098-0.24609-2.7422-0.1863-2.3939-0.1863-2.3939-1.3164-4.3828 0.93447-2.0314 1.9322-4.0353 3-6z" fill="#EEC800"/>
    <path transform="translate(43,174)" d="m0 0c0.99 0.33 1.98 0.66 3 1 0.6875 2.0625 0.6875 2.0625 1 4l7 2c-0.3125 2.375-0.3125 2.375-1 5-3 2-3 2-6 2v-3c0.99-0.33 1.98-0.66 3-1l-5-1v-5h-2v3h-3c0.61278-2.9618 1.2537-4.3806 3-7z" fill="#E6C200"/>
    <path transform="translate(43,106)" d="m0 0 1 2-1 1 2 1c-5.4194 4.0645-5.4194 4.0645-8.25 3.75l-1.75-0.75h-2v-3c-1.8562 0.30938-1.8562 0.30938-3.75 0.625-3.3691 0.43607-5.3784 0.40904-8.25-1.625 2.541-1.2705 4.2278-1.0292 7.0625-0.9375 5.3015 0.062947 9.8197-0.72012 14.938-2.0625z" fill="#DAB800"/>
    <path transform="translate(106,72)" d="m0 0c1.434 2.8679 0.55024 4.882 0 8-0.036223 1.6663-0.048998 3.3341 0 5l-1-4h-2c-0.19574 1.4364-0.38128 2.8742-0.5625 4.3125-0.15662 1.2008-0.15662 1.2008-0.31641 2.4258-0.26865 2.4299-0.26865 2.4299 0.87891 5.2617h-2v3h-4c0.50604-2.1687 0.99984-3.9997 2-6l-0.5-2.875c-0.46419-2.9012-0.44078-4.4072 0.5-7.125h3l4-8z" fill="#553F00"/>
    <path transform="translate(192,47)" d="m0 0c2.0437 1.677 2.9235 2.5387 3.3633 5.1914-0.016758 0.78246-0.033516 1.5649-0.050781 2.3711-0.0038672 0.78504-0.0077344 1.5701-0.011719 2.3789-0.30078 2.0586-0.30078 2.0586-2.3008 4.0586l-1-10c-1.6256 1.4577-3.2505 2.9161-4.875 4.375-0.90492 0.81211-1.8098 1.6242-2.7422 2.4609-1.4918 1.3548-2.9579 2.7391-4.3828 4.1641-0.99-0.33-1.98-0.66-3-1 1.0925-1.5085 2.1994-3.0066 3.3125-4.5 0.61488-0.83531 1.2298-1.6706 1.8633-2.5312 0.60199-0.64969 1.204-1.2994 1.8242-1.9688h3c2.6877-2.4375 2.6877-2.4375 5-5z" fill="#0D0B00"/>
    <path transform="translate(94,177)" d="m0 0 1 2c-1.0828 1.4289-1.0828 1.4289-2.1875 2.8867-0.93812 1.2665-1.8756 2.5334-2.8125 3.8008-0.47695 0.62584-0.95391 1.2517-1.4453 1.8965-2.5938 3.5387-4.2555 5.8345-3.5547 10.416l-1-2c-2.0246-0.65213-2.0246-0.65213-4-1-0.4375-2.0742-0.4375-2.0742 0-5 2.0657-2.5675 4.5138-4.6599 7-6.8125 0.66773-0.59748 1.3355-1.195 2.0234-1.8105 1.6483-1.4717 3.3069-2.9296 4.9766-4.377zm-11.562 12.375c-1.6584 1.5131-1.6584 1.5131-1.4375 3.625h2l2-5c-1.2218-0.1101-1.2218-0.1101-2.5625 1.375z" fill="#0F0C00"/>
    <path transform="translate(115,53)" d="m0 0h8l-2 2h-3c-1.2546 2.8047-1.2546 2.8047-0.4375 4.875 0.59225 2.8766-0.3334 4.5222-1.5625 7.125-2-2-2-2-3-4-2.0246-0.65213-2.0246-0.65213-4-1l2-3-2-1 2.4375-1.375c2.6511-1.3723 2.6511-1.3723 3.5625-3.625z" fill="#937C00"/>
    <path transform="translate(136,156)" d="m0 0-1 2c-3.0625 0.625-3.0625 0.625-6 1l4 3 2-3 2 5-2 1v6h-2c-0.2475-0.5775-0.495-1.155-0.75-1.75-1.4262-2.5672-3.1473-4.211-5.25-6.25-1.0232-1.3156-2.0313-2.6438-3-4 4.0821-3.3532 6.8516-4.6548 12-3z" fill="#625200"/>
    <path transform="translate(66,151)" d="m0 0 1 4c-1.98 0.66-3.96 1.32-6 2v-3c-1.8618 1.8618-2.9389 3.2765-3.1641 5.9414 0.037199 2.0199 0.099959 4.0393 0.16406 6.0586l-1 3h-3l1-3c0.10017-1.9784 0.18148-3.9578 0.25-5.9375 0.43968-5.6746 0.43968-5.6746 3-8.875 3.1458-1.3584 4.5487-1.2851 7.75-0.1875z" fill="#EEC900"/>
    <path transform="translate(15,110)" d="m0 0h10l-1 2h8c-2.463 2.463-4.2736 2.7677-7.625 3.625-1.0029 0.26039-2.0058 0.52078-3.0391 0.78906-0.77086 0.19336-1.5417 0.38672-2.3359 0.58594-0.43312-0.495-0.86625-0.99-1.3125-1.5-1.6849-1.8322-1.6849-1.8322-4.6875-1.5l2-4z" fill="#EBC600"/>
    <path transform="translate(183,31)" d="m0 0c1.875 0.3125 1.875 0.3125 4 1 2.9709 4.4564 2.514 8.7709 2 14-1.5 3.6875-1.5 3.6875-3 6l-2-1 1-1.875c1.3714-4.2858 1.7342-8.6642 1-13.125l-3-2-2 6h-2c1.0588-3.4031 2.009-6.0135 4-9z" fill="#0D0B00"/>
</svg>
