<svg xmlns="http://www.w3.org/2000/svg" xml:space="preserve" viewBox="0 0 292.2 146.3"><path fill="#e13a3e" d="M54 46h-3l2 10h3l-1-4h5l1 4h2l-2-10h-3l1 4h-4zM66 46h-3l3 10h2zM67 46l3 10h2l-2-7 8 7h3l-3-10h-2l1 7-7-7zM115 46l2 10h2l-1-7 7 7h3l-2-10h-3l2 7-7-7zM109 55q-3 0-5-4v-1q0-2 3-2 4 0 5 4v1q0 2-3 2m-2-9-4 1-2 3 1 2q1 5 7 5l4-1 2-3v-2q-2-5-8-5M92 48h3l2 8h3l-2-8h2v-2h-8z"/><path fill="#e13a3e" d="M87 51zl1 1h3v2h-3q-3 0-5-4v-1q0-2 3-2l4 1h2v-1l-6-2-4 1-1 3v2q2 5 7 5l3-1v1h3l-1-6zM32 52l1-3 2 3zm-1-6zl-3 10h3l1-3h4l2 3h3l-7-11zM18 53l-4-7h-3l6 10h3v-7l4 7h2l2-10h-3v7l-4-7h-3zM47 50l-4-1v-1h2l2 1h3v-1l-6-2-3 1-1 2q1 2 5 3l4 2-1 1h-1l-3-1h-4l1 1 6 2 3-1q2 0 1-2 0-3-4-4M190 125c-11 0-14-10-14-10L153 11h-9l23 104s5 23 23 23h30l-2-13z"/><path fill="#003876" d="M134 55h10l-2-8h-10zM149 47h-4l1 8h5zM168 47h-5l1 8h6zM241 125h-14l2 6h13zM36 85c0 4 2 11-8 11q-7 1-10-6l-3-18c0-7 4-6 9-6q8 0 9 7h11c-1-7-4-12-21-12-11 0-20 2-18 12l3 19q3 10 22 9c20 0 17-8 16-16zM70 98q-12-2-8-11c3-5 12-4 16-7l2 13s-3 5-10 5m-3-37c-15 1-18 2-18 12h10c0-3 0-8 9-8q8 1 9 8c-1 5-14 4-21 7s-7 10-6 12c0 1 1 12 18 11q10 0 14-5v3h11l-7-32c0-2-2-8-19-8M197 98q-12-2-8-11c3-5 12-4 16-7l2 13s-3 5-10 5m-3-37c-15 1-18 2-18 12h10c0-3 0-8 9-8q8 1 9 8c-1 5-14 4-21 7-6 3-6 10-6 12 0 1 2 12 18 11q10 0 14-5l1 3h10l-6-32c-1-2-2-8-20-8M126 90q0 8-9 6-8 1-12-14t7-17q5-2 11 7zm5-22q-4-8-18-7c-9 0-11 4-11 4l-1-4H91l11 57h11l-4-20s3 4 12 4c17 0 14-10 14-10s0-13-4-24M145 60h-10l8 41h9zM227 101h10l-10-53h-10zM253 74l-2-5q1-3 7-3 8 0 9 7h10s2-12-20-12c-15 0-17 4-16 8l1 6c4 7 24 7 27 12l2 7q-2 4-9 3-10 1-10-11h-10c0 6 0 16 21 16q16 0 17-7 0-9-1-10c-3-8-22-5-26-11M283 101v-3h2v-1h-3v1h1zM285 97v4-3l1 3h1l1-3v3-4l-1 3-1-3z"/></svg>