<?xml version="1.0" encoding="UTF-8"?>
<svg version="1.1" viewBox="0 0 292.21 146.27" xml:space="preserve" xmlns="http://www.w3.org/2000/svg" xmlns:cc="http://creativecommons.org/ns#" xmlns:dc="http://purl.org/dc/elements/1.1/" xmlns:rdf="http://www.w3.org/1999/02/22-rdf-syntax-ns#"><metadata><rdf:RDF><cc:Work rdf:about=""><dc:format>image/svg+xml</dc:format><dc:type rdf:resource="http://purl.org/dc/dcmitype/StillImage"/><dc:title/></cc:Work></rdf:RDF></metadata>

	<polygon transform="translate(-3.8839 -8.5445)" points="57.622 54.87 55.155 54.87 57.48 65.182 59.954 65.182 58.932 60.672 63.737 60.672 64.752 65.182 67.225 65.182 64.886 54.87 62.427 54.87 63.357 59.002 58.551 59.002" fill="#e13a3e"/>
	<polygon transform="translate(-3.8839 -8.5445)" points="69.712 54.87 67.246 54.87 69.578 65.182 72.044 65.182" fill="#e13a3e"/>
	<polygon transform="translate(-3.8839 -8.5445)" points="71.27 54.87 73.595 65.182 76.068 65.182 74.384 57.741 81.507 65.182 84.551 65.182 82.219 54.87 79.76 54.87 81.43 62.314 74.32 54.87" fill="#e13a3e"/>
	<polygon transform="translate(-3.8839 -8.5445)" points="118.65 54.87 120.98 65.182 123.45 65.182 121.75 57.741 128.88 65.182 131.93 65.182 129.6 54.87 127.13 54.87 128.81 62.314 121.69 54.87" fill="#e13a3e"/>
	<path d="m109.1 55.189c-2.17-0.025-4.453-1.075-5.059-3.794-0.084-0.37-0.127-0.701-0.127-1.004 0.014-1.856 1.423-2.575 3.34-2.604 2.177 7e-3 4.453 1.064 5.059 3.787 0.091 0.359 0.12 0.698 0.12 0.994-7e-3 1.864-1.423 2.582-3.333 2.621m-2.036-9.051c-1.543 0-2.91 0.296-3.938 0.969-1.036 0.662-1.67 1.754-1.663 3.16 0 0.412 0.042 0.838 0.155 1.307 0.817 3.643 4.136 5.246 7.624 5.246h0.057c1.536 0 2.91-0.282 3.938-0.961 1.021-0.669 1.67-1.758 1.663-3.167 0-0.395-0.057-0.838-0.155-1.296-0.825-3.662-4.165-5.272-7.681-5.258" fill="#e13a3e"/>
	<polygon transform="translate(-3.8839 -8.5445)" points="96.444 56.508 99.228 56.508 101.19 65.182 103.65 65.182 101.69 56.508 104.48 56.508 104.11 54.87 103.79 54.87 96.071 54.87" fill="#e13a3e"/>
	<path d="m87.29 51.271 0.112 0.497 0.19 0.832 0.063 0.31h3.001l0.388 1.747c-0.684 0.332-1.642 0.532-2.804 0.532-2.177-0.021-4.453-1.075-5.066-3.794-0.084-0.37-0.12-0.701-0.12-1.004 7e-3 -1.86 1.43-2.575 3.333-2.604 1.338 0 2.515 0.409 3.382 1.356l0.155 0.159 2.431-0.44-0.486-0.536c-1.346-1.515-3.368-2.184-5.672-2.184-1.543 0-2.91 0.296-3.939 0.965-1.028 0.666-1.669 1.754-1.663 3.153 0 0.412 0.049 0.846 0.155 1.314 0.817 3.643 4.129 5.246 7.631 5.246h0.049c1.106 0 2.128-0.151 3.001-0.482l0.063 0.296h2.466l-1.212-5.362h-5.458z" fill="#e13a3e"/>
	<path d="m31.853 52.102 0.768-3.568 2.381 3.568h-3.149zm-0.987-5.777-0.078 0.303-2.628 10.009h2.727l0.613-2.868h4.608l1.909 2.868h2.882l-7.37-10.312h-2.663z" fill="#e13a3e"/>
	<polygon transform="translate(-3.8839 -8.5445)" points="21.99 62.479 17.939 54.867 15.494 54.867 21.405 65.178 23.893 65.178 24.245 57.903 27.874 65.178 30.354 65.178 31.615 54.867 29.283 54.867 28.663 62.487 24.794 54.867 22.427 54.867" fill="#e13a3e"/>
	<path d="m46.586 50.408c-2.1-0.465-3.988-0.983-4.059-1.769-7e-3 -0.042-0.014-0.074-0.014-0.102-7e-3 -0.145 0.12-0.324 0.535-0.504 0.374-0.159 0.937-0.253 1.473-0.247 1.529 0 2.276 0.563 2.678 0.983l0.12 0.137 2.987-0.116-0.416-0.592c-0.824-1.198-2.635-2.057-5.545-2.057-1.148 0-2.198 0.13-3.016 0.468-0.803 0.324-1.437 0.99-1.423 1.899 0 0.18 0.014 0.37 0.063 0.557 0.479 1.875 2.783 2.424 4.869 3.001 2.135 0.504 4.101 1.138 4.186 1.941 7e-3 0.049 0.014 0.091 0.014 0.134 7e-3 0.254-0.211 0.514-0.684 0.722-0.458 0.218-1.092 0.317-1.6 0.317-1.642 0-2.6-0.606-3.107-1.103l-0.12-0.13-3.037 0.138 0.444 0.613c0.923 1.265 2.812 2.121 6.039 2.121 1.015 0 2.071-0.105 2.938-0.468 0.874-0.331 1.592-1.046 1.578-2.093 0-0.215-0.028-0.433-0.077-0.662-0.507-2.057-2.79-2.67-4.826-3.188" fill="#e13a3e"/>
	<path d="m189.51 125.17c-10.872 0-13.338-10.259-13.338-10.259l-23.638-103.46h-8.096l22.878 103.46s5.059 22.814 22.194 22.814h30.813l-2.783-12.556h-28.03z" fill="#e13a3e"/>



	<polygon transform="translate(-3.8839 -8.5445)" points="138.02 64.016 147.72 64.016 145.95 56.036 136.24 56.036" fill="#003876"/>
	<polygon transform="translate(-3.8839 -8.5445)" points="153.01 56.04 148.64 56.04 150.4 64.012 154.77 64.012" fill="#003876"/>
	<polygon transform="translate(-3.8839 -8.5445)" points="172.05 56.036 166.53 56.036 168.3 64.016 173.83 64.016" fill="#003876"/>
	<polygon transform="translate(-3.8839 -8.5445)" points="244.89 133.71 231.15 133.71 232.56 140.12 246.32 140.12" fill="#003876"/>
	<path d="m35.524 85.3c0.613 3.688 2.079 10.555-7.821 10.555-5.102-0.187-7.624-1.311-9.801-6.024-1.374-2.977-3.037-16.234-3.016-17.4 0.113-7.159 4.523-6.782 8.695-6.782 5.581 0 8.589 2.315 9.329 7.494h10.78c-1.071-7.518-3.487-12.158-21.088-12.158-10.872-0.237-19.497 1.718-18.003 12.217 0.571 4.034 1.142 12.133 3.875 18.629 2.804 6.673 7.969 9.467 21.441 9.467 19.735 0 16.938-8.473 15.86-15.977-1.719 0-8.567-0.021-10.251-0.021" fill="#003876"/>
	<path d="m69.633 98.165c-7.553 0.067-10.463-6.464-7.363-11.499 2.72-4.432 11.767-3.819 15.445-6.278l2.473 12.849s-2.875 4.858-10.555 4.928m-2.48-37.191c-14.775 0.546-17.812 1.839-17.812 12.2h9.505c0-3.516-0.134-7.814 8.822-7.698 6.426-0.081 8.244 3.259 8.85 7.035-0.684 5.482-13.155 4.531-20.68 7.849-6.376 2.54-6.426 9.53-5.975 11.387 0.247 1.324 1.536 11.925 17.664 11.009 6.158-0.226 12.091-1.892 14.24-4.309l0.691 2.808h10.258s-5.743-30.512-6.271-32.527c-0.536-2.005-1.959-7.754-19.292-7.754" fill="#003876"/>
	<path d="m196.76 98.165c-7.56 0.067-10.463-6.464-7.377-11.499 2.713-4.432 11.781-3.819 15.452-6.278l2.473 12.849s-2.882 4.858-10.548 4.928m-2.479-37.191c-14.782 0.546-17.826 1.839-17.826 12.2h9.505c0-3.516-0.134-7.814 8.821-7.698 6.426-0.081 8.251 3.259 8.864 7.035-0.691 5.482-13.162 4.531-20.681 7.849-6.376 2.54-6.433 9.53-5.975 11.387 0.239 1.324 1.529 11.925 17.664 11.009 6.145-0.226 12.084-1.892 14.233-4.309l0.69 2.808h10.259s-5.743-30.512-6.278-32.527c-0.527-2.005-1.95-7.754-19.276-7.754" fill="#003876"/>
	<path d="m126.06 90.031c-0.451 5.468-3.558 6.527-8.829 6.341-5.707-0.193-9.878-3.382-12.098-14.828-1.797-9.184-0.684-15.74 6.37-16.096 2.621-0.18 8.99-0.532 11.288 6.338 1.373 4.09 3.523 15.064 3.269 18.245m4.453-21.596c-2.311-5.989-7.807-7.546-17.432-7.458-9.392 0.078-10.879 3.657-10.879 3.657l-0.803-3.628h-10.238l11.133 56.769h10.52l-3.981-19.75s2.769 3.516 11.773 3.664c16.903 0.377 14.783-9.991 14.783-9.991s-0.712-12.497-4.876-23.263" fill="#003876"/>
	<polygon transform="translate(-3.8839 -8.5445)" points="148.59 69.455 138.9 69.455 146.63 109.79 156.23 109.79" fill="#003876"/>
	<polygon transform="translate(-3.8839 -8.5445)" points="231.23 109.8 240.83 109.8 231.18 57.16 221.49 57.16" fill="#003876"/>
	<path d="m252.5 74.125c-0.817-1.307-1.135-4.661-1.015-5.433 0.274-1.941 2.254-3.051 6.608-3.051 6.158 0 7.469 1.998 8.483 6.968h10.922s1.465-11.64-20.053-11.64c-15.022 0-17.192 3.558-16.833 8.018 0.077 0.958 0.93 5.006 1.6 5.943 3.375 7.405 23.646 7.215 26.479 11.805 1.797 2.438 2.043 5.217 1.824 7.022-0.345 2.797-4.559 3.339-8.124 3.339-7.8 0-9.279-2.3-10.005-10.751h-10.216c0.19 6.063 0.304 15.737 21.089 15.585 10.336-0.088 15.987-3.16 16.586-6.926 0.761-4.718-1.275-9.611-1.275-9.611-2.29-8.454-22.004-5.483-26.07-11.268" fill="#003876"/>



	<polygon transform="translate(-3.8839 -8.5445)" points="287.02 109.79 287.42 109.79 287.42 106.53 288.55 106.53 288.55 106.14 285.95 106.14 285.95 106.53 287.02 106.53" fill="#003876"/>
	<polygon transform="translate(-3.8839 -8.5445)" points="289.08 106.14 289.08 109.79 289.47 109.79 289.47 106.7 290.45 109.79 290.83 109.79 291.81 106.7 291.81 109.79 292.21 109.79 292.21 106.14 291.58 106.14 290.64 109.11 289.71 106.14" fill="#003876"/>
</svg>
