<?xml version='1.0' encoding='utf-8'?>
<svg xmlns="http://www.w3.org/2000/svg" width="201.02707mm" height="294.22626mm" viewBox="0 0 201.02707 294.22626" version="1.1" id="svg5" xml:space="preserve"><defs id="defs2" /><g id="layer1"><path style="fill:#000000" d="m 94.70669999999882 294.07810000000063 c -8.937,-0.9352 -17.035,-4.2052 -24.747,-9.9934 -9.312,-6.9879 -16.797,-15.9364 -24.387,-29.1541 -3.015,-5.25 -11.821,-22.6198 -14.755,-29.1041 -0.889,-1.9646 -2.919,-6.4294 -4.51,-9.9219 -4.269,-9.3654 -9.197,-22.088 -12.05,-31.1079 -5.535,-17.499 -7.851,-29.2777 -13.029,-66.2588 -1.776,-12.6897 -1.731,-13.5927 0.823,-16.2697 l 1.392,-1.4595 0.285,-2.5125 c 0.158,-1.3818 0.354,-3.1078 0.438,-3.8354 0.149,-1.2958 0.132,-1.3354 -0.813,-1.9336 -1.158,-0.7335 -1.969,-2.3657 -1.977,-3.9807 0,-0.6336 0.712,-4.384 1.59,-8.3344 3.055,-13.7443 3.717,-15.7574 5.674,-17.25 0.992,-0.7571 2.929,-1.4295 4.215,-1.4636 0.795,-0.021 0.891,-0.1694 3.387,-5.2255 2.945,-5.9637 5.024,-9.5087 8.555,-14.5864 9.148,-13.158 21.418,-23.4428 35.31,-29.5982 6.369,-2.822 11.839,-4.4336 19.447,-5.7303 5.339,-0.9098 5.16,-0.8592 5.16,-1.4584 0,-0.972 0.852,-2.6516 1.623,-3.2013 2.434,-1.7331 19.723,-2.3166 27.058,-0.9133 2.991,0.5722 3.627,1.0601 4.413,3.3861 l 0.47,1.3896 1.408,0.1931 c 3.271,0.4487 6.855,1.0679 9.081,1.5691 11.676,2.6294 22.995,8.0318 32.214,15.3764 2.258,1.7983 3.769,3.1343 7.25,6.4093 3.32,3.1233 8.931,10.0887 12.042,14.949 3.139,4.9044 6.364,10.9505 8.626,16.1722 0.523,1.2078 0.551,1.2271 2.213,1.519 1.95,0.3425 3.431,1.2664 4.525,2.8228 0.894,1.2712 1.752,4.5765 3.777,14.5414 1.615,7.9454 1.784,10.0868 0.93,11.7614 -0.562,1.101 -1.687,2.1311 -2.327,2.1311 -0.311,0 -0.359,0.2118 -0.225,0.9922 0.09,0.5457 0.248,2.3527 0.342,4.0156 0.166,2.9223 0.2,3.0549 1.019,3.9687 0.466,0.52 1.057,1.3567 1.314,1.8595 0.968,1.8906 0.846,3.2644 -1.701,19.1942 -6.774,42.3667 -8.671,50.0393 -18.279,73.9511 -9.18,22.8451 -20.347,46.431 -28.249,59.6635 -13.123,21.9746 -29.103,34.8255 -46.211,37.1606 -3.039,0.4148 -8.645,0.5471 -11.321,0.2671 z m 7.402,-25.6775 c 1.772,-0.8597 2.744,-2.0957 3.079,-3.9147 0.552,-2.9987 -2.671,-6.1157 -6.324,-6.1157 -1.239,0 -3.216,0.6624 -4.376,1.4666 -2.973,2.0603 -2.736,6.624 0.442,8.4861 2.351,1.3781 4.451,1.4009 7.179,0.078 z m -35.91,-5.272 c 1.105,-0.7864 1.655,-2.144 1.631,-4.0248 -0.02,-1.9204 -0.788,-3.6852 -2.244,-5.1872 -1.484,-1.5297 -2.907,-2.2331 -4.549,-2.2482 -1.856,-0.017 -2.966,0.6337 -3.627,2.1281 -0.713,1.6116 -0.481,3.3227 0.772,5.708 1.984,3.7754 5.545,5.3849 8.017,3.6241 z m 69.572,0.01 c 1.307,-0.6667 3.001,-2.6111 3.863,-4.4338 1.824,-3.8538 0.514,-7.072 -2.869,-7.053 -1.69,0.01 -3.08,0.6857 -4.627,2.2507 -1.718,1.7377 -2.312,3.1587 -2.312,5.5278 0,1.6258 0.106,2.1331 0.587,2.8072 1.224,1.7155 3.133,2.0365 5.358,0.9011 z m -26.583,-11.1312 c 13.472,-1.1613 24.649,-4.5216 34.286,-10.3074 7.567,-4.5433 14.335,-11.0253 19.481,-18.658 3.623,-5.3745 8.216,-14.3139 13.665,-26.5967 2.777,-6.2588 3.357,-7.7862 3.382,-8.904 0.04,-1.6926 -0.794,-3.294 -2.312,-4.4507 l -1.085,-0.826 1.911,-4.4781 c 4.728,-11.0832 7.944,-23.1393 11.499,-43.1072 1.599,-8.9835 4.502,-26.8119 4.502,-27.6529 0,-0.6409 -0.367,-1.0285 -2.472,-2.61 -8.958,-6.7333 -17.901,-10.1691 -32.718,-12.5697 -5.528,-0.8958 -10.799,-1.3883 -20.108,-1.8793 -4.293,-0.2264 -9.83,-0.5346 -12.303,-0.6849 -7.328,-0.4453 -36.198,-0.6107 -46.699,-0.2676 -14.957,0.4888 -30.195,1.4409 -36.777,2.298 -7.201,0.9376 -16.345,3.1777 -21.564,5.2828 -4.681,1.8882 -10.601,5.2941 -14.575,8.3858 l -1.443,1.1228 0.146,1.4552 c 0.45,4.4787 4.89,32.9781 6.363,40.8478 2.145,11.4534 5.842,23.9974 9.365,31.7728 0.793,1.7502 0.811,1.8618 0.358,2.1848 -0.961,0.6839 -2.259,2.0671 -2.67,2.8454 -0.904,1.7117 -0.613,2.9106 2.701,11.1171 4.62,11.44 9.595,21.2833 14.321,28.3338 6.557,9.7819 14.92,16.6667 25.783,21.225 7.543,3.1653 16.911,5.3843 25.797,6.1102 3.908,0.3192 17.509,0.3263 21.166,0.011 z m -7.695,-4.9904 c -0.06,-0.061 -0.11,-2.5862 -0.11,-5.6122 v -5.502 l 1.125,-0.2964 c 2.013,-0.5307 3.185,-1.4553 9.342,-7.372 3.338,-3.2082 6.22,-5.8359 6.404,-5.8394 0.789,-0.015 7.663,6.7927 11.482,11.3708 1.966,2.3576 4.985,6.3897 4.985,6.6591 0,0.562 -6.121,2.8118 -10.98,4.0364 -5.817,1.4656 -11.239,2.2281 -17.684,2.487 -2.45,0.098 -4.503,0.1293 -4.564,0.069 z m -16.382,-0.4282 c -5.815,-0.6359 -12.335,-2.1596 -17.859,-4.1741 -4.424,-1.6134 -5.027,-1.8775 -5.027,-2.2034 0,-0.4576 3.677,-5.1176 6.805,-8.624 3.039,-3.4074 8.66,-8.934 9.086,-8.934 0.156,0 2.806,2.4606 5.888,5.468 6.037,5.8893 7.874,7.2982 10.121,7.7648 l 1.437,0.2984 v 5.4052 5.4052 l -3.638,-0.029 c -2,-0.016 -5.066,-0.1857 -6.813,-0.3767 z m 52.357,-11.4364 c -4.346,-5.8534 -10.348,-12.5748 -13.969,-15.6413 l -1.299,-1.1007 5.409,-5.4853 c 4.869,-4.9379 8.552,-8.985 11.072,-12.1661 0.49,-0.6185 1.02,-1.1235 1.177,-1.1223 0.733,0.01 15.504,24.011 15.499,25.1877 0,0.4379 -3.278,4.0762 -5.709,6.3394 -2.3,2.1416 -6.89,5.5835 -8.604,6.452 l -1.269,0.6431 z m -82.822,1.0966 c -2.864,-2.0473 -5.16,-3.9496 -7.523,-6.2337 -2.247,-2.1727 -5.006,-5.4439 -5.006,-5.9358 0,-1.0286 12.853,-22.477 14.535,-24.2559 0.424,-0.4485 0.621,-0.2552 3.904,3.8365 3.43,4.2753 11.329,12.9114 13.067,14.2848 l 0.905,0.7155 -1.587,1.3705 c -4.156,3.5872 -11.574,11.9154 -14.651,16.4468 -0.469,0.6913 -1.013,1.2568 -1.209,1.2568 -0.196,0 -1.292,-0.6685 -2.435,-1.4855 z m 38.751,-6.8396 c -1.798,-1.4116 -10.27,-9.3764 -10.27,-9.6554 0,-0.2955 2.513,-1.0457 4.476,-1.3361 0.958,-0.1417 3.111,-0.2885 4.784,-0.3263 l 3.043,-0.069 0.07,6.2839 c 0.06,4.9359 0,6.2838 -0.265,6.2837 -0.184,-10e-5 -1.012,-0.5316 -1.839,-1.1812 z m 7.986,-5.3009 v -6.2177 l 1.389,0.01 c 2.499,0.016 6.86,0.496 8.24,0.9068 2.369,0.7054 2.373,0.7421 0.258,2.7322 -6.279,5.9105 -9.438,8.7875 -9.648,8.7875 -0.135,0 -0.239,-2.6958 -0.239,-6.2177 z m 55.669,-6.4162 c -2.782,-4.8298 -2.659,-4.4847 -1.892,-5.3123 0.36,-0.3888 2.178,-2.7162 4.04,-5.1719 l 3.386,-4.4649 1.682,3.5207 1.682,3.5206 -1.508,2.5318 c -1.863,3.1285 -5.324,8.4849 -5.483,8.4849 -0.06,0 -0.923,-1.399 -1.907,-3.1089 z m -119.062,1.5748 c -1.753,-3.099 -3.971,-6.9632 -4.611,-8.0352 l -0.738,-1.2348 1.317,-2.9985 c 0.725,-1.6492 1.425,-3.2664 1.557,-3.5938 0.131,-0.3274 0.298,-0.5953 0.371,-0.5953 0.07,0 0.871,1.1013 1.775,2.4474 0.903,1.3461 2.395,3.4882 3.314,4.7604 0.919,1.2721 1.671,2.4449 1.671,2.6061 0,0.2798 -3.581,7.0506 -3.933,7.4375 -0.09,0.1022 -0.419,-0.255 -0.723,-0.7938 z m 38.598,-6.205 c -7.192,-7.042 -10.922,-11.1589 -15.82,-17.4594 -2.695,-3.4663 -9.494,-13.1515 -9.34,-13.305 0.06,-0.061 0.877,0.4042 1.815,1.0329 2.438,1.634 8.158,4.7191 11.666,6.2924 9.666,4.3348 19.101,7.005 27.148,7.6829 l 3.505,0.2953 v 7.3616 7.3616 l -0.595,0.1233 c -0.327,0.068 -2.322,0.1783 -4.432,0.2456 -4.311,0.1376 -6.956,0.696 -9.557,2.0179 -0.864,0.4391 -1.643,0.7983 -1.731,0.7983 -0.09,0 -1.285,-1.1013 -2.659,-2.4474 z m 38.452,1.4747 c -2.018,-1.0359 -5.769,-1.9287 -8.127,-1.9342 -0.814,0 -2.392,-0.081 -3.505,-0.1746 l -2.025,-0.1711 v -7.3241 -7.324 l 3.374,-0.3022 c 11.499,-1.0304 23.712,-5.0442 34.991,-11.4995 1.528,-0.8745 3.53,-2.1215 4.45,-2.771 0.919,-0.6496 1.733,-1.1196 1.808,-1.0445 0.153,0.1531 -3.242,5.0834 -6.135,8.9117 -3.17,4.1927 -6.813,8.6078 -10.099,12.2395 -3.012,3.3278 -12.347,12.3861 -12.725,12.3481 -0.102,-0.01 -1.005,-0.4396 -2.007,-0.9541 z m 36.976,-5.4091 c -0.438,-0.5531 -8.265,-13.3272 -8.426,-13.7526 -0.08,-0.2069 1.595,-2.9741 3.786,-6.2601 4.386,-6.5777 3.923,-6.2596 5.487,-3.768 1.808,2.8783 7.521,13.1341 7.517,13.4938 0,0.4305 -5.059,7.263 -6.926,9.3608 -0.928,1.0423 -1.205,1.2208 -1.438,0.9261 z m -108.525,-2.3558 c -2.484,-3.2583 -5.608,-7.7356 -5.608,-8.0372 0,-0.7154 8.015,-14.9808 8.411,-14.9701 0.103,0 0.653,0.8064 1.22,1.7859 0.568,0.9795 2.143,3.518 3.5,5.6412 l 2.468,3.8602 -1.648,2.5222 c -0.906,1.3872 -2.779,4.4384 -4.161,6.7804 -1.383,2.3421 -2.573,4.2583 -2.646,4.2582 -0.07,0 -0.764,-0.8284 -1.536,-1.8408 z m -16.921,-9.5012 c -1.783,-4.2041 -3.317,-8.0167 -3.408,-8.4723 -0.131,-0.6512 -0.03,-0.9727 0.465,-1.5028 1.347,-1.4403 1.345,-1.4417 3.439,2.3547 1.062,1.9261 2.577,4.5735 3.366,5.8832 0.79,1.3096 1.624,2.6965 1.853,3.0819 0.401,0.6733 0.367,0.8106 -0.866,3.5058 -0.705,1.5427 -1.355,2.8024 -1.444,2.7992 -0.09,0 -1.621,-3.4455 -3.405,-7.6497 z m 140.58,5.0164 c -0.665,-1.306 -1.208,-2.5399 -1.208,-2.7421 0,-0.2022 0.922,-1.8437 2.05,-3.6477 1.128,-1.8041 2.884,-4.7372 3.903,-6.5181 1.018,-1.7808 1.937,-3.238 2.041,-3.2382 0.104,-1e-4 0.621,0.3785 1.148,0.8415 1.183,1.0385 1.159,1.2259 -0.707,5.4644 -1.798,4.0836 -5.715,12.2147 -5.885,12.2147 -0.07,0 -0.677,-1.0685 -1.342,-2.3745 z m -6.192,-12.3466 c -1.501,-2.7047 -3.733,-6.6294 -4.958,-8.7214 -1.226,-2.092 -2.229,-3.9258 -2.229,-4.0751 0,-0.1493 2.426,-2.6807 5.391,-5.6253 7.452,-7.4011 11.78,-13.0748 15.183,-19.9061 2.81,-5.6403 4.698,-13.609 5.654,-23.8752 0.18,-1.9263 0.41,-3.6368 0.512,-3.8012 0.231,-0.3741 1.242,0.3065 4.166,2.8036 1.192,1.0175 2.167,2.0426 2.167,2.278 0,0.8961 -2.975,16.6888 -3.857,20.4782 -3.638,15.6227 -6.753,24.4072 -11.963,33.7343 -1.97,3.5271 -6.41,10.6757 -7.021,11.304 -0.246,0.2524 -0.917,-0.7608 -3.045,-4.5938 z m -127.209,3.6725 c -0.31,-0.5445 -1.601,-2.7759 -2.87,-4.9587 -5.801,-9.9833 -9.425,-18.9584 -12.285,-30.4271 -1.117,-4.4838 -3.291,-15.6274 -4.385,-22.4896 -0.511,-3.2014 -0.984,-6.1394 -1.052,-6.5287 -0.108,-0.6194 0.148,-0.9365 2.049,-2.5341 2.23,-1.8752 3.355,-2.7111 3.646,-2.7111 0.09,0 0.249,1.4585 0.349,3.2411 0.249,4.4287 1.095,10.821 1.916,14.486 2.679,11.9567 8.638,21.8479 19.461,32.2996 l 3.446,3.3277 -1.433,2.4931 c -0.787,1.3712 -2.901,5.2613 -4.696,8.6447 -1.795,3.3833 -3.336,6.1505 -3.424,6.1493 -0.09,0 -0.413,-0.4476 -0.722,-0.9922 z m 58.459,-1.6757 c -13.825,-0.9971 -33.131,-9.286 -45.329,-19.461 -9.38,-7.8248 -16.141,-16.8885 -19.708,-26.4199 -1.337,-3.5723 -2.155,-6.8765 -2.916,-11.774 -0.663,-4.2717 -1.344,-12.4412 -1.092,-13.0976 0.222,-0.5808 3.939,-2.342 7.18,-3.4021 8.533,-2.7919 16.082,-3.7447 32.014,-4.0406 l 8.731,-0.1622 3.44,0.8152 c 9.066,2.1486 13.065,2.5586 24.871,2.5498 10.937,-0.01 12.951,-0.1922 20.77,-1.899 2.401,-0.5241 5.08,-1.1083 5.953,-1.2981 2.623,-0.5704 21.152,0.1474 28.707,1.112 8.445,1.0782 14.04,2.4801 19.065,4.7772 l 2.179,0.9962 -0.167,3.7158 c -0.294,6.5502 -1.744,14.6778 -3.54,19.8553 -4.909,14.1503 -19.802,29.1247 -38.571,38.7817 -10.477,5.3905 -20.386,8.3123 -30.758,9.0693 l -1.654,0.1207 v -11.2115 -11.2115 l -1.344,-2.0588 c -0.739,-1.1322 -1.423,-2.0263 -1.521,-1.9867 -0.1,0.04 -0.803,0.9302 -1.567,1.9791 l -1.389,1.907 v 11.3163 c 0,6.2239 -0.09,11.2993 -0.198,11.2785 -0.109,-0.021 -1.529,-0.1338 -3.156,-0.2511 z m -30.115,-25.9398 c 1.164,-0.2891 3.307,-1.0017 4.762,-1.5835 5.078,-2.0308 15.969,-8.3438 17.602,-10.2039 3.049,-3.473 3.01,-10.253 -0.08,-14.576 -1.278,-1.7855 -8.158,-7.1991 -12.833,-10.0971 -11.296,-7.0035 -21.036,-8.5551 -32.289,-5.1441 -5.761,1.7462 -8.96,3.7306 -10.115,6.2732 -0.965,2.1259 -0.528,6.5601 1.047,10.6278 2.326,6.0063 5.808,11.3818 10.609,16.3775 7.671,7.984 13.502,10.2631 21.302,8.3261 z m 82.864,0.1923 c 7.498,-1.9962 17.042,-11.344 22.177,-21.7209 2.863,-5.7859 3.956,-10.7869 2.94,-13.4473 -1.213,-3.1766 -5.66,-5.5785 -13.887,-7.4994 -2.653,-0.6196 -3.661,-0.7202 -7.311,-0.7294 -6.259,-0.016 -9.875,0.9 -16.669,4.2221 -5.228,2.5565 -13.312,8.0939 -16.645,11.4016 -2.409,2.3901 -3.795,6.3467 -3.511,10.0211 0.347,4.4951 1.753,6.3234 7.464,9.7052 6.943,4.1115 12.832,6.9048 16.623,7.8848 2.326,0.6012 6.857,0.6846 8.819,0.1622 z m 41.285,-44.4723 c -0.84,-0.7652 -2.476,-2.0908 -3.636,-2.946 l -2.109,-1.5547 v -7.0776 c 0,-3.8927 0.06,-7.0776 0.14,-7.0776 0.806,0 9.044,5.3166 9.309,6.0084 0.146,0.3812 -1.567,11.8078 -2.021,13.474 -0.141,0.5209 -0.272,0.4568 -1.681,-0.8265 z m -174.134,0.6039 c -0.496,-2.379 -1.741,-11.4415 -1.741,-12.672 0,-0.9063 0.132,-1.0795 1.653,-2.1639 1.731,-1.2338 6.243,-3.8947 6.604,-3.8947 0.115,0 0.209,3.1439 0.209,6.9866 v 6.9866 l -1.272,0.9139 c -0.699,0.5027 -2.184,1.7096 -3.299,2.6821 -1.888,1.6461 -2.036,1.7262 -2.154,1.1614 z m 11.02,-13.8863 0.07,-6.7972 1.587,-0.6235 c 3.719,-1.4607 9.846,-2.9512 16.071,-3.9093 l 2.841,-0.4374 0.887,0.7496 c 0.488,0.4122 1.764,1.5118 2.835,2.4435 2.597,2.2584 6.186,4.901 9.193,6.7683 1.352,0.8395 2.408,1.5771 2.346,1.6391 -0.06,0.062 -2.002,0.2271 -4.311,0.3668 -13.628,0.8246 -22.47,2.5359 -29.385,5.6871 -1.099,0.5007 -2.045,0.9103 -2.102,0.9103 -0.06,0 -0.07,-3.0588 -0.03,-6.7973 z m 150.936,5.7188 c -6.68,-2.8089 -14.44,-4.3542 -27.122,-5.4008 -2.665,-0.2199 -5.485,-0.3998 -6.268,-0.3998 -0.783,0 -1.485,-0.098 -1.559,-0.2178 -0.07,-0.1198 1.136,-0.9825 2.689,-1.9173 3.531,-2.1252 7.754,-5.1933 10.508,-7.634 2.522,-2.235 2.179,-2.1913 8.651,-1.1003 5.098,0.8594 8.919,1.7595 12.585,2.9647 l 2.448,0.8045 v 6.8574 c 0,3.7715 -0.03,6.8445 -0.07,6.8289 -0.04,-0.016 -0.877,-0.3691 -1.866,-0.7855 z m -81.941,-2.5365 c -8.176,-0.5697 -15.501,-2.0962 -22.77,-4.7455 -5.484,-1.9986 -13.062,-6.3179 -16.497,-9.4031 l -1.564,-1.4047 0.902,-0.1862 c 1.046,-0.2157 12.336,-0.8929 21.54,-1.292 10.86,-0.471 34.899,-0.6214 44.979,-0.2815 15.043,0.5071 27.397,1.2085 28.123,1.5966 0.444,0.2368 -4.459,3.9017 -7.973,5.9601 -11.76,6.888 -24.629,10.0272 -40.522,9.8844 -2.765,-0.025 -5.563,-0.082 -6.218,-0.1281 z m -71.505,-21.9274 c 2.577,-1.0765 2.672,-1.3344 6.3,-17.0555 0.777,-3.3663 0.806,-4.6298 0.131,-5.7378 -0.919,-1.5062 -1.112,-1.5411 -8.348,-1.5075 -7.394,0.034 -8.22,0.1886 -8.991,1.6793 -0.599,1.1587 -4.489,17.8289 -4.806,20.5957 -0.117,1.0256 -0.04,1.346 0.422,1.8375 0.556,0.5876 0.652,0.5953 7.441,0.5953 5.59,0 7.059,-0.076 7.851,-0.407 z m -11.5,-2.9404 c -0.959,-0.3888 -0.429,-3.9473 0.746,-5.0109 1.332,-1.2056 2.136,1.6957 1.056,3.8122 -0.422,0.8283 -1.129,1.4936 -1.435,1.3502 -0.02,-0.012 -0.189,-0.08 -0.367,-0.1515 z m 8.301,-5.3385 c -1.186,-1.3111 0.2,-5.0724 1.87,-5.0724 0.713,0 1.396,1.0422 1.396,2.1298 0,2.4168 -2.061,4.2739 -3.266,2.9426 z m -5.553,-7.1009 c -0.325,-0.3245 -0.153,-2.3244 0.301,-3.5002 0.852,-2.2101 2.169,-2.0866 2.167,0.2033 0,1.9953 -1.615,4.1503 -2.468,3.2969 z m 8.343,-1.1994 c -0.463,-0.463 -0.388,-2.524 0.123,-3.3895 1.029,-1.7416 2.999,-1.4664 2.999,0.4189 0,2.1204 -2.035,4.0571 -3.122,2.9706 z m 176.833,16.3368 c 0.847,-0.8472 0.833,-1.5465 -0.13,-6.2546 -1.062,-5.1974 -3.138,-14.2026 -3.517,-15.257 -0.17,-0.4742 -0.646,-1.1845 -1.057,-1.5786 -0.701,-0.672 -0.949,-0.7281 -3.981,-0.9023 -1.778,-0.1022 -5.019,-0.1953 -7.202,-0.207 -4.508,-0.024 -5.416,0.2346 -6.32,1.8007 -0.724,1.2527 -0.623,2.8777 0.478,7.7321 0.509,2.2392 1.237,5.5596 1.62,7.3786 0.793,3.7697 1.44,5.4654 2.455,6.4345 1.547,1.4753 1.703,1.4996 9.651,1.5014 h 7.354 z m -5.444,-3.4602 c -0.489,-0.5211 -0.653,-1.0381 -0.735,-2.3262 -0.112,-1.7678 0.236,-2.432 1.179,-2.2503 1.303,0.2509 2.116,4.0794 1.035,4.8707 -0.681,0.4985 -0.746,0.4856 -1.479,-0.2942 z m -8.791,-4.3793 c -0.606,-0.3527 -1.52,-2.1554 -1.52,-2.9975 0,-1.6481 1.172,-2.6547 2.354,-2.022 1.332,0.7125 1.853,3.7456 0.821,4.7772 -0.588,0.5883 -0.966,0.6436 -1.655,0.2423 z m 6.625,-7.5845 c -1.05,-1.2038 -1.504,-3.9017 -0.78,-4.6266 0.744,-0.7434 2.181,1.0516 2.363,2.9518 0.182,1.895 -0.636,2.7605 -1.583,1.6748 z m -9.733,-1.3493 c -1.353,-1.3535 -1.366,-4.0387 -0.02,-4.2306 1.964,-0.28 3.556,3.0371 2.138,4.4554 -0.72,0.7195 -1.228,0.6656 -2.118,-0.2248 z m -116.476,13.4628 c 5.525,-0.7477 25.217,-1.59 37.234,-1.5927 11.362,0 30.619,0.8174 37.836,1.6109 4.786,0.5263 6.695,0.5875 7.531,0.2415 1.206,-0.4998 2.323,-1.9397 2.814,-3.6285 0.601,-2.0681 0.381,-7.1345 -0.422,-9.6886 -0.667,-2.1233 -2.057,-3.7061 -3.626,-4.1268 -2.596,-0.6967 -22.676,-1.339 -41.974,-1.3428 -19.554,0 -40.968,0.6602 -43.731,1.356 -1.612,0.4061 -3.094,2.1175 -3.839,4.4348 -0.698,2.172 -0.982,7.3273 -0.507,9.2174 0.368,1.4606 1.309,2.8027 2.491,3.5504 0.887,0.5609 1.851,0.5559 6.193,-0.032 z m 79.058,-1.4206 c -1.105,-1.1044 -0.789,-2.5794 0.685,-3.199 1.048,-0.4408 2.009,-0.232 2.52,0.5477 0.93,1.4201 0.206,2.8893 -1.567,3.1769 -0.794,0.1288 -1.073,0.039 -1.638,-0.5256 z m -84.24,-0.1861 c -0.839,-0.7821 -0.782,-2.1724 0.119,-2.8809 0.902,-0.71 1.749,-0.6948 2.611,0.047 0.921,0.7924 0.991,2.2011 0.143,2.8876 -0.798,0.6462 -2.148,0.621 -2.873,-0.054 z m 7.773,-5.3015 c -1.55,-1.3615 -1.601,-3.7101 -0.116,-5.4012 1.45,-1.6522 3.643,-1.4959 4.778,0.3406 2.113,3.419 -1.752,7.6151 -4.662,5.0606 z m 66.002,0.3648 c -1.176,-0.609 -2.122,-2.0225 -2.122,-3.1704 0,-2.9477 2.838,-4.7181 5.228,-3.2611 2.156,1.3146 2.533,4.0055 0.803,5.7349 -1.147,1.1474 -2.555,1.3982 -3.909,0.6966 z m -74.233,-0.4649 c -0.911,-0.9104 -0.889,-2.299 0.05,-3.0355 2.086,-1.6403 4.502,1.1564 2.623,3.0355 -0.358,0.3572 -0.958,0.6495 -1.335,0.6495 -0.377,0 -0.978,-0.2923 -1.335,-0.6495 z m 18.479,0.131 c -2.958,-1.8038 -1.673,-6.8851 1.742,-6.8889 2.053,0 3.689,2.0669 3.391,4.2886 -0.118,0.8775 -0.392,1.3567 -1.216,2.1258 -1.247,1.1633 -2.532,1.3189 -3.917,0.4745 z m 10.319,0 c -1.243,-0.758 -1.75,-1.9163 -1.604,-3.6695 0.105,-1.2623 0.248,-1.5726 1.083,-2.3379 2.987,-2.7372 7.587,1.1392 5.471,4.61 -1.096,1.7968 -3.283,2.4141 -4.95,1.3974 z m 11.114,9e-4 c -1.763,-1.075 -2.314,-2.9089 -1.457,-4.847 1.457,-3.2947 6.276,-2.5941 6.813,0.9907 0.46,3.0672 -2.8,5.4146 -5.356,3.8563 z m 10.888,0.025 c -1.67,-1.0184 -2.297,-2.9201 -1.565,-4.7484 0.603,-1.507 1.679,-2.24 3.243,-2.2086 1.379,0.028 2.248,0.547 3.162,1.891 2.015,2.96 -1.78,6.932 -4.84,5.066 z m 11.6,-0.026 c -1.121,-0.6833 -1.666,-1.8061 -1.666,-3.428 0,-1.1066 0.136,-1.4819 0.82,-2.2614 1.774,-2.0206 4.639,-1.5541 5.952,0.9692 0.845,1.624 0.107,4.0209 -1.493,4.8482 -1.047,0.5414 -2.606,0.4862 -3.613,-0.128 z m 23.552,0.2577 c -1.211,-0.5002 -1.579,-2.7007 -0.599,-3.5876 0.753,-0.6815 2.232,-0.6388 2.956,0.085 1.6,1.5996 -0.262,4.3667 -2.357,3.5022 z m -85.524,-5.9926 c -0.768,-0.9756 -0.709,-2.0487 0.149,-2.7233 2.026,-1.594 4.331,0.5728 2.912,2.7381 -0.641,0.9782 -2.286,0.9702 -3.061,-0.015 z m 84.295,0.2167 c -0.24,-0.2642 -0.509,-0.8516 -0.6,-1.3054 -0.133,-0.6631 -0.03,-0.9582 0.514,-1.5039 0.889,-0.8892 2.092,-0.9012 2.964,-0.03 0.794,0.7937 0.828,1.6974 0.101,2.6222 -0.676,0.8587 -2.292,0.9763 -2.979,0.2167 z m -121.835,-12.6826 c 0.218,-0.2547 0.791,-1.1774 1.272,-2.0505 7.412,-13.4452 15.805,-24.2047 24.607,-31.5457 9.027,-7.529 17.627,-11.6552 32.147,-15.4237 2.328,-0.6043 4.352,-1.2227 4.498,-1.3743 0.689,-0.7177 -7.56,0.7869 -12.436,2.2684 -18.915,5.7471 -32.968,17.5154 -45.7,38.2701 -1.213,1.9773 -5.761,10.0507 -5.761,10.2263 0,0.2986 1.04,0.018 1.373,-0.3706 z m 161.841,-2.5141 c -9.067,-18.069 -19.35,-30.1491 -32.414,-38.0782 -7.143,-4.3357 -15.386,-7.5884 -23.326,-9.2039 -6.098,-1.2408 -7.731,-0.8964 -2.368,0.4997 9.146,2.3815 14.27,4.2293 20.244,7.301 4.82,2.4779 9.695,5.7394 13.556,9.0682 8.847,7.6279 14.922,15.6359 22.763,30.0083 1.527,2.7995 2.111,3.4893 2.699,3.1901 0.107,-0.054 -0.412,-1.3077 -1.154,-2.7852 z m -137.417,-8.5014 c 2.288,-1.0817 3.834,-3.2054 3.835,-5.2695 0,-4.2536 -4.327,-5.2937 -7.485,-1.7979 -1.352,1.4961 -1.84,2.7709 -1.707,4.4589 0.225,2.8628 2.488,3.9648 5.357,2.6085 z m 117.466,0.2546 c 1.548,-0.647 2.229,-2.6463 1.617,-4.7497 -0.958,-3.2973 -4.694,-5.6807 -7.013,-4.4743 -2.029,1.055 -2.612,3.0936 -1.547,5.4067 0.768,1.6694 2.043,3.0089 3.512,3.6906 1.277,0.5926 2.231,0.6278 3.431,0.1267 z m -103.112,-14.9417 c 2.132,-1.0989 3.505,-3.191 3.505,-5.3416 0,-1.2293 -0.1,-1.463 -0.945,-2.2621 -0.835,-0.7879 -1.112,-0.8911 -2.392,-0.8911 -1.831,0 -3.138,0.6508 -4.568,2.2749 -1.314,1.4927 -1.752,2.8649 -1.37,4.2861 0.26,0.9644 1.297,2.1945 2.131,2.527 0.661,0.2633 2.586,-0.051 3.639,-0.5932 z m 89.369,0.1243 c 2.852,-1.8688 1.408,-6.6525 -2.501,-8.2867 -4.106,-1.7166 -6.956,1.7089 -4.669,5.6117 1.615,2.7554 5.076,4.0468 7.17,2.675 z m -39.305,-19.5953 c 0.418,-0.2161 0.993,-0.7221 1.277,-1.1245 0.757,-1.0701 3.816,-8.6998 3.71,-9.2522 -0.145,-0.7534 -1.187,-1.064 -4.715,-1.4058 -6.606,-0.6401 -18.988,-0.2698 -20.902,0.6252 -0.412,0.1925 -0.692,0.5702 -0.742,1.0006 -0.08,0.7127 2.191,6.9824 3.154,8.6948 1.032,1.8357 1.053,1.8399 9.706,1.8477 6.349,0.01 7.89,-0.064 8.512,-0.3858 z" id="path27" /></g></svg>