<svg xmlns="http://www.w3.org/2000/svg" width="332" height="604" viewBox="0 0 249 453"><path fill="#c8102e" d="M90 8q-10 8-18 26l-2 5-3 12-3 12a347 347 0 0 0-8 59l-2 16-1 72a610 610 0 0 0 5 108v22l-2 14-2 19-7 42c-3 13-4 15-5 15-2 0-8-5-10-9l-2-9-7-24-11-85 2 5 3 11 2 10q6 21 16 23 6 0 1-4c-3-2-7-9-7-12l-1-3-4-15-8-23q-3-3-5-3-4 0-5 3-4 7 0 31a227 227 0 0 1 6 43l2 9 2 9v4l1 2 3 9q5 18 9 24c3 4 11 9 14 9 7 0 10-6 15-27l7-49 3 12 3 13 12 37 3 2 4 2q10 2 13-12l1-7 1-4q1-3 3 0l5 1 3-1v12l2 11 3 18q2 7 5 6h3l1-12 3-28 3-21 4-40 9-45 4-17 23-95 3-9 7-22 7-22 15-35c0-4 8-20 14-28q10-13 13-14c2 0-1 16-5 27l-2 5-4 11-1 3-1 2-1 1v3l-2 6-4 15-7 21a476 476 0 0 0-17 105l-8 57q-4 3-13 5-5 3-5-12 1-9 3-16 7-16 10-18l3-4 2-3-3-1q-1-3-7 4c-5 5-8 9-12 20q-6 16-4 24 1 9 6 11 6 2 14-1l6-1-1 8c-2 9-2 37 0 38l3 1c2-1 3-4 3-20l2-24c0-7-1-6 13-14l18-9c5-1 5 8 0 19a346 346 0 0 1-28 45l-21 39-2 6q-3 8-2 9 3 3 7-3l2-3 1-2 1-2 1-3 1-2 1-1q-1-2 5-12l44-75 2-9q1-6-3-9-7-6-26 3l-8 5q-5 4-4-1l1-6 1-8 2-9 5-46 1-11a311 311 0 0 1 9-51 142 142 0 0 1 9-34l1-5 2-5 1-4 3-8 3-10c14-35 17-50 13-55q-3-3-11-2c-5 2-17 15-23 27l-3 5-13 28a336 336 0 0 0-24 74l-7 26-6 24-11 47-6 26-1 6-1 7-6 35-4 29-3 22-1-11q-1-17 2-29l1-11 5-32 1-12 9-61 5-40 9-71c2-11 1-37-1-42q0-5-6-4-3-1-7 4l-7 12-4 8c-3 5-7 20-8 29l-8 43-1 9-1 9-1 16-1 10v1a1095 1095 0 0 1 1 116l2 18q2 21-1 21t-4-15q1-13-6-12l-2-1-1-1-1 17-3 27q-1 9-4 11c-1 0-4-10-5-17l-3-15-2-25c0-17-1-23-2-28q-1-4-5-3l-5 1q-1 2-1-3l1-7 2-12a793 793 0 0 0 12-81l7-42 11-69 3-20 3-15 2-15c6-28 7-50 3-57s-5-8-12-8q-6-1-10 4m15 5q2 4 1 14a276 276 0 0 1-7 55l-1 9-4 21-2 11-1 7-1 4-2 20-2 8-2 15-3 14-4 27-4 30-3 18-2 10v10l-3 13q-2 9-2-8a3260 3260 0 0 1 1-166l2-16q6-56 17-80l10-16q4-5 8-5 2 0 4 5m43 123-3 32-3 19-5 36-2 12-6 57-3 18-2 11-1 10-2 7-1 2v13l-1-6V232l2-22c0-10 1-15 4-32l2-14a168 168 0 0 1 18-57l3-3v33"/></svg>