<svg xmlns="http://www.w3.org/2000/svg" width="122.1" height="88.8" aria-hidden="true" class="iconify iconify--noto" style="max-height:500px" viewBox="2.8 20.7 122.1 88.8"><path fill="#b7cbd3" d="m36 99-1-24V44l-3-5-5-9 2-1 4 9 4 5v32l1 23zM49 100l-2-1v-6l-1-4-1-24 1-21-3-6-2-9h2l2 8 3 7-1 21 1 24 1 4zM57 98V43l-2-8v-6h2v6l2 8v55zM69 98V44l1-7 1-8h2l-1 8-1 7v54zM83 99h-2V44l1-6 3-9 1 1-2 9-1 6zM92 97l-1-52 5-9 4-7 2 1-4 6-5 9 1 52zM18 104l-2-1 2-6v-8l-1-26 1-25h2l-1 25 1 26v8zM108 101V74l1-37h2l-1 29v35z"/><path fill="#b7cbd3" d="M60 55c-25 0-34-2-35-3l-7-3-8-5 1-1 8 4 7 4q0 2 38 2 37-1 39-2l12-8 1 1-12 9q0 1-40 2zM65 64c-29 0-39-3-40-3H11v-2h14v-1 1c1 0 9 3 40 3 30 0 38-2 38-2l14-4v2l-13 4c-1 0-9 2-39 2M59 74c-25 0-32-2-34-3l-6 1-9 2v-2l8-1 7-2h1s5 3 38 3c33-1 38-3 39-3h15v2h-15c-1 0-9 2-39 3zM12 84l-1-2 7-1 7-2h1q-1 1 38 2 40-2 39-3h1l6 2 8 2-1 2-8-2-6-2a342 342 0 0 1-77 1l-7 2zM117 97l-9-4-4-3-1 1H25l-13 5v-2l13-5 39 1 38-1 2-1 5 3 9 4zM70 36l-53-2v-2l47 2c35 0 47-2 47-2l1 2c-1 0-11 2-42 2M71 40h-7l-43-1v-2l43 1h43v1z"/><path fill="#9a9a9a" d="M105 96V46l11-13-2-4-13 14-75-1-14-16-4 4 16 16v52l-12 4v6l15-6 77-1 12 7v-5zm-4 0H28V47l73 1v48"/><path fill="#df0a2b" d="m6 106 3 3h2l2-2V35q0-3 2-3l97-1q2 0 3 3v73l2 2h4l1-11-1-72L9 25l-4 6z"/><path fill="#ff180a" d="M6 25q-3 3-2 15v66q0 2 2 3h3V31q0-2 2-4c2-2 103 1 104 1s3 1 3 2l1 79q2 1 5-2V28q0-3-6-5c-6-2-105-1-107-1z"/></svg>