<svg xmlns="http://www.w3.org/2000/svg" xml:space="preserve" viewBox="0 0 128 128"><path d="m118 112-2-19H12l-2 19c-1 3 5 12 54 12s55-9 54-12" style="fill:#82aec0"/><path d="M12 94c0-6 23-11 52-11s52 5 52 11-23 12-52 12-52-6-52-12" style="fill:#e0e0e0"/><path d="M98 16Q95 3 64 4C33 5 33 7 30 16c-6 19-11 76-11 76s5 8 45 8 45-8 45-8-5-57-11-76" style="fill:#f44336"/><path d="M19 92c0-4 20-8 45-8s45 4 45 8-20 9-45 9-45-4-45-9" style="opacity:.9;fill:#c62828"/><radialGradient id="a" cx="64" cy="52.9" r="44" gradientTransform="translate(1 1)" gradientUnits="userSpaceOnUse"><stop offset=".6" style="stop-color:#ff6e40"/><stop offset=".8" style="stop-color:#ff7046;stop-opacity:.5414"/><stop offset="1" style="stop-color:#ff7555;stop-opacity:0"/></radialGradient><path d="m73 36 21-23 1 1-16 26q-2 4 3 4h20l1 1-19 7q-4 2-1 6l23 17q1 1 0 0L79 64q-4 0-3 4l8 29h-1L69 71q-3-4-5 0L50 97h-1l7-29q0-3-3-2L22 82v-1l25-21q3-3-1-5l-21-8v-1l21 1q5-1 3-6L32 17h1l22 19q3 3 5-1l3-26h1l4 25q0 5 5 2" style="fill:url(#a)"/><path d="m66 34 9-17h1l-3 19q0 5 4 3l18-6 1 1-14 12q-4 4 0 6l19 6v1H81q-4 0-2 4l10 17-1 1-15-12q-3-3-4 1l-4 20h-1l-3-20q-1-3-5-1L42 82h-1l9-17q3-5-2-5l-20 1v-1l17-7q4-2 1-6L31 35v-1l18 6q5 2 4-3l-3-19h1l10 16q2 3 5 0" style="fill:#ffd5ca"/></svg>