<svg xmlns="http://www.w3.org/2000/svg" viewBox="0 0 960 640"><path fill="#041e42" d="M924 387a15 15 0 1 0 0 30 15 15 0 0 0 0-30m0 27a12 12 0 0 1-12-12 12 12 0 1 1 12 12m6-16a5 5 0 0 0-5-5h-7v17h3v-6h2l4 6h3l-3-7zm-5 2h-4v-3h4l2 1z"/><path fill="#fff" d="M205 416h69l-23 56h57l23-56h170l-5 12c-11 27-10 62 2 80l65 105 51-74h83l45-55H637l-32 39-63-53q-3-3 0-14l29-70s6 30 44 30h228c11 0 44 0 57-31 11-28-6-43-6-43h18l21-50H821q-21 0-37 9l53-127h-58l-58 140s-10-22-44-22h-67L719 27h-57L552 292H411c-36 0-70 15-94 41 0 0-1-41-50-41H142c-50 0-102 30-117 68-12 27 4 56 40 56h49c20 0 41-14 51-20 0 0 10 20 40 20"/><path fill="#c8102e" d="m644 498-23 28h69l23-28zM260 220l20-15 20 15-8-24 20-14h-25l-7-23-8 23h-24l20 14zm129 0 20-15 20 15-8-24 20-14h-24l-8-23-8 23h-24l20 14zm157-38-8-23-8 23h-24l20 14-8 24 20-15 20 15-8-24 20-14zm-335 69-2 23h8l23-29h-7l-17 23 2-23h-8l-17 23 1-23h-7l-1 29h7zm46 17 1 6h7l-2-29h-9l-26 29h7l5-6zm-1-18 1 13h-12zm17 15q-4 10 10 10t19-10c5-13-19-5-16-13q3-3 7-4 8 0 5 6h7q3-9-9-10-12 0-17 10c-5 11 18 6 15 12q0 4-9 4-8 0-6-5zm38 9 5-12h16l-5 12h7l12-29h-7l-5 12h-16l5-12h-6l-12 29zm38 0 12-29h-6l-13 29zm15 0 9-23 8 23h9l12-29h-6l-9 22h-1l-7-22h-9l-12 29zm74-20q3-9-11-10-18 1-24 15-5 16 12 16 7 0 16-3l5-13h-15l-2 4h9l-2 6-9 1q-12-1-7-11 6-10 16-10 6-1 5 5zm8 20h7l10-24h11l2-5h-29l-2 5h11zm38 1q17 0 23-16 7-15-10-15t-23 15q-7 16 10 16m-4-16q5-9 15-10 10 0 6 10-5 11-15 11t-6-11m57 8-7-22h-9l-12 29h6l9-23 8 23h8l12-29h-5z"/><g fill="#041e42"><path d="M134 328h36l10-22h-38c-44 0-91 26-105 59-8 20 4 37 28 37h49c21 0 47-20 47-20l-23-10s-11 8-22 8H69q-8-1-5-13c9-22 40-39 70-39m71 74h28c11 0 19-6 19-6l-2 6h27l23-54c10-24-5-42-33-42h-71l-9 22h77c17 0 12 12 12 12h-56q-35 2-44 23c-9 21 4 39 29 39m-5-31q5-8 12-9h39q15-2 17-3l-5 11c-2 5-10 10-16 10h-42q-8-1-5-9m396-65-9 22h87c16 0 11 12 11 12h-55q-35 2-44 23c-9 21 4 39 29 39h28c10 0 19-6 19-6l-2 6h27l23-54c9-24-5-42-33-42zm77 64c-2 5-10 10-16 10h-42q-8-1-5-9 4-8 12-9h39q15-2 16-3zm54 32 89-214h-28l-88 214zm-209-96h-27l-9 22h27zm-40 96 26-62h-27l-26 62zm300-74c-9 20 2 37 24 37h56q6 1 5 7-4 7-11 8H750l-9 22h102c19 0 37-4 44-22 8-21-3-37-25-37h-56q-6-1-4-8 3-6 11-7h90l9-22h-91c-19 0-38 8-43 22M299 458l32-77c12-29 39-53 81-53h28l-18 42q-4 9-14 10h-63l-10 22h77q21 2 35-25l29-71h-65c-51 0-90 31-106 71l-34 81z"/><path d="M509 433c-9 22-9 52 0 68l55 87 35-52-66-55c-7-6-9-20-4-31L699 41h-28L561 306h-32l-9 22h32z"/></g></svg>