<svg xmlns="http://www.w3.org/2000/svg" viewBox="0 0 960 640"><path fill="#fff" d="M818 595v12h-3v-12h-4v-3h10v3zm16 12v-9l-3 6h-3l-2-6v9h-3v-15h3l4 8 4-8h3v15zm-222-89-24-29h-54l21 6c38 12 36 33 36 33l-3 32-2 26q0 11-12 25c-22 21-70 29-108 29s-87-8-108-29q-13-14-12-25l-6-59s-1-18 37-32l21-7h-54l-20 27-34 42s-48 22-118 63q-4 3-9 1l-27-11c-3-1-3-6-3-4l-1-62c0-6-1-11 5-12 0 0 54-26 130-40l3-4H166a8 8 0 0 1-8-8q-1-11-24-8-6 0-7-8V309q-2-9 6-9h140l-31-28-41 19q-5 3-8 1l-24-9q-5-2-4-8l13-62-49-55q-8-8-5-12 1-2 9-2l60 12 19-64c1-3 5-7 12-3l27 18 3 4 23 63 44 10 11 6 9 8 8-13L247 56h-1q-5 1-7-3l-14-20q-4-7 0-11l18-19q2-4 7-3h26q6 1 7 4l13 17q5 6 2 9l-2 2 91 112 25-15 1-3v-2l1-2q5-6 12-8l2-7-1-1-1-2V78l3-3 4-3 1-15v-1l4-7 1-4v-2l1-6 3-1a11 11 0 0 1 6-7c3-8 10-18 19-17 7 1 14 10 17 16a11 11 0 0 1 6 8l3 1 1 6v2l1 4q2 3 3 7l1 1 1 15 4 3 3 3v26l-1 2-1 1 2 7q7 2 12 8l1 2v5q16 8 26 15l91-112-1-2q-4-3 1-9l13-17q1-3 7-4h26q5-1 7 3l18 19q4 4 0 10l-14 21q-2 4-7 3h-1L585 185l8 13 21-14 44-10 23-62q0-3 3-5l28-19q7-3 10 4l19 64 60-12q10 0 10 2 2 5-6 12l-49 55 13 62q2 6-4 8l-23 9q-4 2-8-1l-41-19-31 28h140q7 0 6 9v155q0 8-8 8-21-4-23 8 0 8-8 8H664l3 4c80 15 130 40 130 40 6 1 5 6 5 12l-1 62c0-2 0 3-3 4l-27 11q-5 2-9-1c-70-41-118-63-118-63z"/><g fill="#010101"><path d="M581 533v2l-6 50q0 8-7 15c-16 16-56 26-102 26-47 0-87-10-103-26q-7-7-7-15l-5-50-1-2v-1c0-27 60-41 116-41 49 0 92 11 108 27q7 6 7 14z"/><path d="M800 464V308H642l50-45 46 23 25-10-14-65 54-60-67 13-20-70-28 19-25 67-50 12-17 13 45 30-19 49-5-2v-18c-2-3-8-4-8-4v-14c-2-4-8-2-11-5q-3-28-23-56L683 48h5l14-20-17-20-27 1-13 17 5 5-102 125q-12-12-35-21v-8c-3-4-10-7-13-7v-6c0-2-5-4-7-5v-3q7-3 7-5V82l-7-5-2-19q0-4-4-4 1-4-1-9c-7-1 0-9-7-9-1-4-8-15-12-16-4 0-11 12-12 16-8 0 0 8-8 9v9q-4 0-4 4l-2 19-7 5v19s2 4 6 5v3c-1 1-6 3-6 5v6c-3 0-11 3-13 7v8q-23 9-35 21L284 31l5-5-13-17-27-1-17 20 14 20h5l108 137q-20 28-24 56c-2 3-8 1-10 5v14s-6 1-8 4v18l-4 2-19-49 45-30-17-13-51-12-24-67-28-19-21 70-66-13 54 60-14 65 24 10 47-23 50 45H136l-1 156q29-6 33 16h117l-17 21c-46 7-79 17-126 38l-2 1 2 63 24 10 2-1c71-41 116-61 117-62l56-70h252l56 70c1 1 46 21 117 62l2 1 24-10 2-63-2-1c-47-21-80-31-126-38l-17-21h120c2-16 17-18 31-16"/></g><g fill="#8f654d"><path stroke="#9e6f53" stroke-width=".4" d="m715 116-23 65-62 14 45 30-27 69 57-52 48 22-12-55 42-47-51 10zM273 16l5 8h-20l-5-8zm469 524s-34-14-67-21l-1 33s52 25 67 34zM220 116l23 65 61 14-44 30 27 69-58-52-47 22 12-55-43-47 52 10zM661 16l-5 8h20l5-8zM193 540s33-14 66-21l1 33s-51 25-67 34z"/><ellipse cx="466.8" cy="525.2" rx="61.1" ry="14"/><path d="M264 333h31v1h-1l-2 2-3 4 5 9 7-13q1-2-2-2h-2v-1h9v1h-1q-2 0-3 2l-10 21h-1l-6-10-5 10h-2l-12-23h-2zm25 6 2-5h-5zm-7 11 3-5-6-11h-5zm29 6v-1l4-1 11-21h2l11 22h3v1h-15v-1h4l-3-5h-9l-1 2-1 2 4 1v1zm9-7h8l-4-9zm52-16h2v6h-2q-2-5-8-5-4 0-6 3 1 2 4 3l9 2q4 1 5 6 0 8-11 9l-7-2-2 1h-2v-6h2q1 5 9 5 7 0 7-4-1-4-9-4-7 0-8-8 1-6 9-6l6 1zm17 23v-1h4v-21h-4v-1h15v1h-3v10h10v-10h-4v-1h15v1h-4v21h4v1h-15v-1h4v-10h-10v10h3v1zm46 0v-1h4v-21h-4v-1h15v1h-3v21h3v1zm55 1h-1l-20-21v18l2 1h3v1h-11v-1h3l1-2v-17q1-2-2-2h-2v-1h13l12 14v-12l-3-1h-1v-1h10v1h-2l-2 1zm42-24h1v7h-1q-3-6-9-6-4 0-6 3v11l1 6 4 1q5 0 5-2v-5h-4v-1h15v1h-3v4l-3 2q-2 3-10 3-13-1-14-12 2-11 15-12l7 1zm18 0h28l1 7h-2q-1-6-9-6v21h4v1h-15v-1h3v-21q-8 0-9 6h-1zm73 11q-1 12-15 13-15-1-16-13c0-8 10-11 16-11s15 3 15 11m-22 3q-2 9 7 8 8 1 6-8v-6q1-8-6-7-7-1-7 7zm63 10h-2l-19-21v18l2 1h2v1h-10v-1h2q3 0 2-2v-17q1-2-2-2h-2v-1h12l13 14v-12l-3-1h-1v-1h10v1h-2l-2 1z"/></g><path fill="#236192" d="M728 526c35 13 40 18 40 18v56l14-6 1-47q-30-14-55-21M375 166l3-3L271 32h-8l110 136zm250 314 15 19 11 1-17-20zm-459 64s5-5 41-18q-26 8-56 21l1 47 14 6zm134-64-17 20 11-1 15-19zm259-314 2 2L671 32h-8L556 164zM363 547c9 6 43 22 99 22l-36 14 18 4-29 12 18 6-15 5s-29-2-50-22zm202 41c-25 19-54 22-54 22l15-10-19-2 27-18-27-5 15-12c27-5 39-11 48-17zm227-273H144v141h9c14 0 19 9 19 10l3 5 587 1 2-5c1-1 6-11 20-11h8zm-35 148H180s-7-16-27-16V323h631v124c-19 0-27 16-27 16"/><g fill="#fff"><path d="M239 412c-2 16-10 31-22 31-9 0-15-5-15-31v-30c0-34 5-37 13-37 12 0 20 18 23 31h4v-39h-3l-7 5-3 2-6-2q-8-5-16-5c-24 0-43 24-43 56 0 36 18 58 44 58q30 0 35-39zm-56-56c-20 48 1 76 1 76-26-32-8-70-1-76m94 93h42v-3h-5l-24-80h-20l-19 67c-2 5-4 13-7 13h-2v3h18v-3h-3c-2 0-6-3-3-12l4-13h19l7 25h-7zm-19-31 9-31 9 31zm13-33 1-7 20 66h-4zm102-19h-49v3h8v77h-8v3h45v-3h-9v-31h13c21 0 28-13 28-25 0-11-7-24-28-24m-33 77h-3v-71h3zm31-45q0 14-7 13h-4v-42h3q9 2 8 12zm9 0q-2 7-5 10l2-9v-18q1-4-2-9c3 0 5 6 5 10zm72-32h-44v3h7v77h-7v3h44v-3h-7v-77h7zm-31 77v-71h3v71zm105-47h3v-30h-70l-1 30h3c2-11 7-26 18-27v77h-9v3h47v-3h-8v-77c11 1 15 16 17 27m-39 47h-4v-71h4zm83 6h43v-4h-5l-24-79h-20l-20 67c-1 5-4 13-7 13h-2v3h18v-3h-2q-6 1-4-12l4-13h19l7 24h-7zm-18-31 9-31 8 31zm14-33 1-7 21 66h-4zm114 31c-3 15-7 29-22 29h-4v-76h9v-3h-46v3h8v77h-8v3h66v-33zm-47 27h-3v-71h3zm119-59-25-17c-5-3-13-7-13-15 0-7 6-10 10-10 16 0 27 14 33 31h4l-1-36h-3l-14 7q-9-6-19-7c-17 0-30 14-30 37q0 25 27 41l9 5c5 3 13 7 13 16q-2 12-11 11c-17 0-29-16-35-35h-4l1 39h3l13-7q9 7 20 7c18 0 37-8 37-35q-1-23-15-32m-3 50c1-10-14-20-34-33a33 33 0 0 1-13-40c-2 6 0 18 5 27 4 9 27 21 32 26q12 9 10 20M472 308v-10l-3-3h-4l-3 3v10zm24 0v-10q0-2-3-3h-4l-3 3v10zm24 0v-7q0-3-3-3h-4q-3 0-3 2v8zm25 0v-4q0-3-4-4h-4q-3 0-3 2v6zm21 0q-1-3-3-4h-4q-2 0-3 2v2zm-118 0v-10q0-3-3-3h-4q-3 1-3 3v10zm-24 0v-8l-3-2h-4q-3 0-4 3v7zm-24 0v-6l-3-2h-5q-2 1-3 4v4zm-23 0v-2q0-2-2-2h-4q-2 0-3 4z"/><path d="M337 308v-2a395 395 0 0 1 87-16h1l42-1 42 1h1l22 3q33 4 65 13l-1 2h17v-15l-8-5v-19l-8-2v-12c-1-5-7-3-10-6-5-44-38-86-83-105-2-1-2-11-2-11s-5-4-13-6v-8l-7-3v-14s5-1 6-3V87l-2-1-4-1-1-19-5-2-5-10 3-2v-5s-3-3-5-12l-2-2q0-1 0 0 0-1 0 0 0-1 0 0 0 0-3 2-3 13-4 12v5l3 2-5 10-5 2-1 19-4 1-3 1v12c2 2 7 3 7 3v14l-7 3v8q-13 5-14 6c-1 1 1 10-1 11-45 19-78 61-83 105-3 3-9 1-10 6v12l-8 2v19l-9 5-1 15zm229-73-10-3 3-1c-2-17-11-40-24-59 6 4 27 36 31 63m-25-37q-3 0-3-2-1-1 1-2l3 1zm-1 30-10-1 3-2c-1-9-7-36-19-60 3 2 22 37 26 63m-26-40 3 1q0 2-1 3l-3-2zm-1 36-10-1 4-2c-1-10-5-37-16-61 3 1 19 38 22 64m-22-35-3-2 1-2q3 0 3 2 1 1-1 2m-24-95q6-1 12 2l-3 1v18l-4-1-2-2-1-6v-4h-4v4l-1 6-2 2-4 1V97l-3-1q5-2 12-2m6 31-6-1-6 1q-3-3 1-4l5-1 5 1q3 0 1 4m-35 18q9-5 29-7c12 0 25 4 29 7q2 0 1 1-14-3-30-4-16 1-30 4-1-1 1-1m33 15c3 1 14 37 13 64h-9l3-3c1-10 0-37-7-61m-4 30-3-2 2-2 2 2q1 1-1 2m-12 31 3 3h-9c-1-27 10-63 13-64-7 24-8 51-7 61m-10-32-3 2q-2-1-1-2 0-2 3-2zm-3-27c-10 24-15 51-16 61l4 2-10 1c3-26 20-63 22-64m-22 30-3 2q-1-1-1-3l3-1q2 0 1 2m-1-25c-12 24-18 51-19 60l3 2-10 1c4-26 23-61 26-63m-26 33q-2-1-2-3l3-1 2 2zm5-26c-13 19-22 42-24 59l3 1-10 3c5-27 25-59 31-63m-28 70a371 371 0 0 1 199 2 430 430 0 0 0-203 1c-2-1 2-2 4-3m-6 11a411 411 0 0 1 209 2 476 476 0 0 0-213 1q0-1 4-3m215 10v10l-7-1v-10zm-16-3v9l-7-1v-10zm-16-3v9l-8-1v-9zm-19-3v10l-8-1v-10zm-18-2v10l-9-1v-9zm-19-1v9h-9v-9zm-19-1v10h-8v-10zm-18 1v9h-9v-9zm-19 1v9l-9 1v-10zm-19 1v10l-9 1v-10zm-19 3v9l-8 1v-9zm-17 2v10l-7 1v-9zm-23 5 7-1v10l-7 1zm-2 16a447 447 0 0 1 228 3 518 518 0 0 0-232 0c-2-1 2-2 4-3"/></g></svg>