<svg xmlns="http://www.w3.org/2000/svg" viewBox="0 0 540 269"><path fill="#fcf8f9" d="M94 114h46l7 2 2-2h65q17-2 30 7l2 2q10 7 10 18v15l2-2 11-12a94 94 0 0 1 75-28h56l7 1 2 8q6 0 11-4 18-7 38-6l67 1h7q3 0 5 3 2 15-7 28l-4 4-10 1h-2l-6 1 2 2 2 2 1 4h2q4 10 4 21l-1 1v3q-2 9-7 15h-2l-1 2q-2 4-6 6l-2 2c-12 7-29 5-43 5h-72l-3 1-10-3-2-6-2 1-2 2-2 1q-8 5-17 4h-75l-4 10-2 3-6 16c-7 17-7 17-11 21h-28l-7-1q-3-6-1-13l8-19 6-16h-62q-16 2-30-9l-3-3-4-7-2 1-6 4-3 2a69 69 0 0 1-44 11l-33 1q-16 1-27-8l-2-2q-8-8-8-20v-3q3-22 21-37l3-3c17-16 43-28 67-28"/><path fill="#d31d2b" d="M340 121h61l-5 15-2 4-1 3-23 51-2 3q-9 9-20 10h-71l4-13 1-2 3-6h13l37-1h7q4 0 8-3l2-4 2-3 9-21 1-3 4-10c-29 1-57 1-79 23l-2 2q-14 18-21 40l-15 36-4 9-2 5h-24l4-14 1-2 13-32c17-40 17-40 30-55l2-2c17-19 44-30 69-30"/><path fill="#d31c2b" d="M153 121h56q19-2 33 9 8 8 6 21 0 5-4 11l-4 9-9 23-1 4-4 9h-25v-3l-3 1-14 1h-3l-14 1c-19 0-19 0-26-6q-8-8-8-19 1-11 9-20 16-11 36-10h46l-1-7q-6-4-13-3h-2l-24-1h-38l4-13 1-2z"/><path fill="#d31d2c" d="M451 121h79l-8 20h-77l-9 3q-4 4-3 9h45l4 1q12-1 21 5l2 1 2 2q5 9 3 20-3 11-11 17-9 6-19 7H379l7-18 1-2h3l93-3q3-2 2-5v-3h-44l-3-1q-14 1-23-6l-2-2q-6-7-4-17 0-10 8-17 15-11 34-11"/><path fill="#d21d2c" d="M118 121h21l-7 18-1 2h-21c-19 1-19 1-38 6h-2q-21 9-32 28l-1 7 2 3h14l25 1h3q10-1 18-5 5-2 11 1l3 1 2 1 6 3v3a71 71 0 0 1-50 16l-33 1q-12 0-22-8-6-7-5-17c2-16 14-29 27-38q20-15 45-21l3-1q15-2 32-1"/><path fill="#fafbfc" d="M443 6h2l4 11 1 3 1 3 4 12 31 1v2l-6 5-2 1-16 11 9 30q-5 1-8-3l-3-1-2-2-2-2-9-7-2-1q-7 3-13 8l-2 2-2 1-2 2-4 3-2 1-3-1 1-3 7-22 1-5-6-5-2-1-9-6-3-2-2-2-2-1v-2l31-1zM274 6h3l7 22 1 3 1 5h32l-9 8-3 2-2 2-5 3-2 2-4 3 1 3 7 22 1 5-9-5-3-2-4-3-3-2-2-2-7-3-4 3-2 1-7 6-2 1c-7 6-7 6-10 6q1-12 6-22l1-2 1-2-1-6-4-3-2-1-2-2-15-11v-1h32l2-9 3-8 1-3 1-3zM106 5q4 3 5 8l1 3 1 3 1 4 3 13h32l-10 9-2 1-3 2-2 2-7 5 7 26 1 5-10-5-2-2-3-2-7-6-5-2-4 2-2 2-2 2-2 1-9 7-7 3 5-18 1-3 3-9-19-15-6-5h32l3-11 3-10 1-3 1-2V8z"/><path fill="#fdf9f9" d="M216 169q-1 10-8 15-4 2-9 2h-38l-4-2q-1-5 4-10 5-4 12-3h24z"/><path fill="#b61d2a" d="M386 187h93v1l-91 1-4 10-3 6h99v1H379z"/><path fill="#bc2631" d="M447 139h75v2h-3l-72 1h-2q-6-1-11 3l-1-4q7-3 14-2"/><path fill="#b73642" d="M153 121h56q15-2 29 6l2 1 1 1-2 1-3-1v-2l-3-1-6-2h-9l-25-1h-39l-1 4h-2z"/><path fill="#c7535d" d="m278 201 1 4h71v-2l10-1c-6 6-14 5-22 5h-61z"/><path fill="#c62634" d="M101 180q7 0 14 5l2 1 5 2-15 11q-8 5-18 6v-2h6v-2h5l1-5h4v-2l3-3 3-4 1-2h-4v-2l-9-1z"/><path fill="#c33541" d="M421 171h65q3 5 2 10h-2l-1-6h-2l-42-1h-4q-7 1-16-2z"/><path fill="#c61c29" d="M284 187h59q-8 5-18 3h-29v-1h-12z"/><path fill="#fdbdc5" d="m523 137 1 4-3 3-2-1h-70q-7 0-13 4l-1 1-2 3-1-3q4-7 7-7h83z"/><path fill="#ba3946" d="M99 121h40l-1 5-1 2-4 7 1-8h2v-4H91z"/><path fill="#b12c39" d="M150 128q2 5 0 11l67 1v1h-71z"/><path fill="#bd252f" d="M344 139h25l2 4-4 7h-2l3-9h-34q5-2 10-2"/><path fill="#c62736" d="m291 154 7 1-2 2-1 1-4 4q-7 7-12 15l-1-4h2v-3h2v-7h6l-1-6h2z"/><path fill="#bf2c37" d="m433 153 66 3v1h-7l-5-1h-15l-37-1v2l-3-1z"/><path fill="#b61f2b" d="M28 201h3l-1 4h57v1H31q-5 0-9-3h6z"/><path fill="#c13643" d="M20 162v5l-2 5h-2v2l-2 5v8l2 8-2 1q-5-9-2-19 3-8 8-15"/><path fill="#b71d28" d="m157 176 2 1-1 3 1 7h43v1h-43l-4-1v-7z"/><path fill="#c33645" d="M239 208q1 11-5 21h-2v3q1 4-2 7h-2l-1 4q-1-6 2-10l1-2z"/><path fill="#b8202b" d="m230 191 2 1-6 14h-24l1-4-4 1v-3l5 1v4h21l2-8-2-1 2-1z"/><path fill="#b82230" d="M225 243h1v6h-2l-1 5 21 1v-7l1 2 2 1-2 5h-24z"/><path fill="#c82736" d="m151 156 3 1-4 2 1 4 2 1v2l-7-2-5 3h-3z"/><path fill="#fce0e2" d="M301 154v2l-2 2q-7 4-11 10l-2 2h-2v5l-5 2c2-7 14-23 22-23"/><path fill="#c23440" d="m274 148 1 4-3 3h-2l-1 2q-1 3-5 4l-2 4-1 2-2-1c9-13 9-13 15-18"/><path fill="#bc3c4a" d="M241 130q7 6 7 14v10l-2 1v-15h-2z"/><path fill="#bd313f" d="M506 163q4 3 4 8v8q0 3-2 5l-1-17-2-1z"/><path fill="#e4e9f3" d="M233 36h32v1h-28l-1 3z"/><path fill="#bf3342" d="M386 187q2 7-2 14l-5 5z"/><path fill="#c92735" d="m258 167 2 4h3l-1 5-2-1h-6z"/><path fill="#c7303f" d="m370 188 3 1-8 11-1-4h3v-2l-2-1h3z"/><path fill="#dd9097" d="m203 202-1 4h24v1h-25v-3l-2-1z"/><path fill="#c72739" d="M479 171h7q3 4 2 10h-2l-2-7-6-1z"/><path fill="#c02d3d" d="m230 191 2 1-6 14q-1-4 1-9l-2-1 2-1z"/><path fill="#c43343" d="M361 157h1l1 8h-2l-1 2-1 3-3 1z"/><path fill="#bb2b3c" d="m412 138 2 1-1 2-3 16h-1q-1-9 3-19"/><path fill="#e3e9f4" d="m106 5 3 3v5l-2-3-4 10-2-1 2-6 1-4z"/><path fill="#bc2a39" d="M271 188q1 5-1 9l-2 3-1 3h-2q0-8 6-15"/><path fill="#c42a3b" d="m157 176 2 1-1 3 1 8-4-1v-7z"/><path fill="#f9d7d8" d="M409 144q2 6 1 13l2 8h-4v-18z"/><path fill="#f0f9fd" d="m268 143-1 5-7 8-4 2 5-8 2-2z"/><path fill="#bf2a38" d="M262 208h2l-5 14h-1v-6h2v-3q0-3 2-5"/><path fill="#c52430" d="M375 180v6l-2 3h-4v-5h2v2h2v-2z"/><path fill="#c03342" d="M355 172v9l-6 5-2-2 2-2q4-4 6-10"/><path fill="#c63744" d="M150 128v11h-4l1-4 1-3z"/><path fill="#e0e5f4" d="M467 77h2l2 8q-4 1-7-2l-2-3 5 1z"/><path fill="#c23443" d="m321 144-9 4-2 1-4 1v-3h5v-2z"/><path fill="#fad7d6" d="M445 142v1l-3 1q-6 1-9 7l-1-3q4-8 13-6"/><path fill="#c32634" d="m367 139 4 2-4 9h-2v-2l1-2 1-3z"/><path fill="#bb313f" d="M426 126v3l-3 1-3 1-1 4-5 1q5-6 12-10"/><path fill="#c0303b" d="m136 193 5 2 1 5 3 1-2 1z"/><path fill="#bd2e3d" d="M226 122q8 2 15 7l-2 1-3-1v-2l-3-1q-5 0-7-4"/><path fill="#ebf1fa" d="m445 67 2 1 1 2-2-1q-7 1-11 6l-2-1c8-7 8-7 12-7"/><path fill="#c33544" d="m244 196 1 10-5 2z"/><path fill="#c02b3b" d="m236 175 2 3-2 6-2 3-1 2q-1-5 1-10h2z"/><path fill="#bc2d3d" d="M390 142h2l-5 14q-1-4 1-9l1-3z"/><path fill="#c62f3d" d="M28 201h3l-1 4 2 1q-6 0-10-4l6 1z"/><path fill="#fcd9dc" d="M59 153v2l-11 8v-3l4-4 3-2z"/><path fill="#c1323f" d="M225 243h1v6h-2l-1 5h-2l1-4 1-3z"/><path fill="#c84251" d="M145 202h6l4 4c-7-1-7-1-9-3z"/><path fill="#c63343" d="m409 158 6 2-1 6q-4-3-5-8"/><path fill="#bd323f" d="M241 130c6 5 6 5 6 9l-3 1z"/><path fill="#c0313d" d="m360 203-9 3-2-1 1-2z"/><path fill="#c3343c" d="m58 134-5 5v-2l-3 1 3-4z"/><path fill="#fddfe2" d="m201 204-3 3h-9v-1l4-1 2-1z"/><path fill="#ba2e3e" d="m117 186 5 2-4 4h-1z"/><path fill="#c12a38" d="m303 129 2 1-3 1v3h-7z"/><path fill="#fde4e3" d="m265 155 2 1-5 7-1-3z"/><path fill="#c33343" d="M62 147h7l-8 4z"/><path fill="#c42334" d="M439 140v2l-5 3-1-4z"/><path fill="#bb2839" d="M524 130h2l-3 9h-1v-6h2z"/></svg>