<svg xmlns="http://www.w3.org/2000/svg" xml:space="preserve" viewBox="0 0 313.1 313.2"><path d="M185 67c11-31 7-60-14-63-23-4-41 19-46 60-49 6-102 37-102 90 0 57 65 65 74 23-43-3-41-85 27-101q-1 20 2 44-12 8-27 14v19q16-8 30-17c6 44 7 108-15 141-14-6-27-13-43-13-44 0-45 46 4 46q25-1 44-16c75 42 172-4 172-105-1-55-44-106-106-122M77 299c-24 0-24-25-1-25q14 1 30 12-11 13-29 13m89-273c11 2 13 19 7 39q-16-3-34-2c4-23 15-39 27-37m-29 48q15-1 32 2-9 22-30 36-4-20-2-38m-8 212c35-35 54-98 60-126q-34-6-45-35 24-19 36-45c36 14 66 50 66 111 0 68-58 121-117 95" style="fill-rule:evenodd;clip-rule:evenodd;fill:#0033a0"/></svg>