<?xml version="1.0" encoding="UTF-8"?>
<svg enable-background="new 0 0 539 463" version="1.1" viewBox="0 0 539 463" xml:space="preserve" xmlns="http://www.w3.org/2000/svg">
<path d="m540 160v304c-179.67 3e-5 -359.33 3e-5 -539 6.1e-5 -5.1e-5 -154.33-5.1e-5 -308.67-1.01e-4 -463 179.67-7.8e-5 359.33-7.8e-5 539-1.56e-4 2.44e-4 52.833 2.44e-4 105.67 2.44e-4 159m-125.7-102.64c0.20123 0.27726 0.46964 0.38131 0.85992 0.42289 0 0 0.10919 0.057796 0.19943 0.73086 3.2387 2.1268 6.4774 4.2537 9.6653 6.4626 0 0 0.075501-0.060082 0.32965 0.56506 2.2482 1.4309 4.4963 2.8617 6.753 4.36 0 0 0.065552 0.017906 0.17212 0.4765 0.18368 0.30138 0.4512 0.43522 0.84616 0.47508 0 0 0.083466 0.018372 0.29038 0.6558 1.9 1.1042 3.7999 2.2083 5.6804 3.3881 0 0 0.075684-0.01931 0.21155 0.55956 0.62058 0.40111 1.2412 0.80221 2.2926 1.3622 0 0 0.44455 0.11502 0.72211 0.64959 0.55618 0.18936 1.1123 0.37872 1.6836 0.5269 0 0-0.038513 0.021049 0.15466 0.49676 0.29428 0.15095 0.58853 0.3019 0.8497 0.50639 0 0 0.041382-0.050393 0.24268 0.4998 0.59314 0.48271 1.1862 0.96542 1.8503 2.1119-0.026215 0.44389-0.052399 0.88779-0.6514 1.7511-0.38126 1.5892-0.76254 3.1784-1.2744 5.2178 0 0-0.10721 0.4563-0.69644 0.86098-4.493 12.069-8.7386 24.21-12.103 36.609 0.62625 0.38622 1.2525 0.77244 1.8788 1.1587 3.8427-3.1221 7.6853-6.2442 11.603-9.3652 0 0 0.014923-0.073693 0.69727-0.011231 1.4833-1.2801 2.9666-2.5601 4.4459-3.8355 0 0-0.004394 0.003663 0.48306-0.16455 0.19733-0.27475 0.39465-0.5495 1.0026-0.93962 0 0 0.40304-0.13969 0.91501-0.13918 0.18582-0.26952 0.37164-0.53905 1.0449-1.0521 0.15509-0.094498 0.31021-0.189 0.8714-0.18697 0.29901-0.097481 0.4678-0.30237 0.57077-0.61149 0 0 0.026337-0.058792 0.69366-0.012482 1.0812-1.0109 2.1625-2.0218 3.6922-3.2163 0.29956-0.14727 0.53195-0.36593 1.3923-0.70709 1.1199-0.98329 2.2398-1.9666 3.3352-2.9696 0 0 0.018097 0.025635 0.66208-0.007378 0.76456-0.68758 1.5291-1.3752 2.7076-2.2769 0.25711-0.18476 0.46133-0.41621 1.2244-0.73349 0.44125-0.35669 0.88248-0.71338 2.021-1.1881 0.47079 0.009575 0.94162 0.019142 1.6961 0.65083 1.5791 0.82752 3.1583 1.655 4.6924 2.5485 0 0 0.062439-0.049599 0.33112 0.56618 1.1557 0.56074 2.3114 1.1215 3.5659 1.6865 0 0-0.10614 0.016739 0.060059 0.64508 1.0531 0.64318 2.1061 1.2864 3.4096 2.3774 0.2767 0.19395 0.55344 0.38789 1.0052 1.2021 0.90658 0.46084 1.8131 0.92168 2.6734 1.4588 0 0 0.082947-0.032967 0.29434 0.52376 0.54913 0.1888 1.0982 0.37761 1.6579 0.54697 0 0-0.018494 0.011421 0.14432 0.50282 0.297 0.147 0.59402 0.29401 0.86603 0.50114 0 0 0.038788-0.05468 0.30383 0.53764 0.91281 0.46224 1.8256 0.92448 2.6841 1.455 0 0 0.064148-0.058525 0.31351 0.53614 0.91489 0.46356 1.8298 0.9271 2.6919 1.4562 0 0 0.071961-0.04348 0.23502 0.42149 0.19772 0.29826 0.47543 0.45284 0.80045 0.54436 0 0 0.072296-0.048363 0.28314 0.59057 2.2441 1.4583 4.4883 2.9167 6.6772 4.4414 0 0 0.071106-0.048523 0.3251 0.598 1.8601 1.2225 3.7202 2.445 5.5804 3.6674 0.45752-0.4418 0.91498-0.88361 1.3725-1.3254-1.4564-2.9834-2.9128-5.9668-4.4554-9.5533-0.07425-0.39861-0.1485-0.79722-0.032654-1.8659-0.6131-1.1643-1.2262-2.3287-1.9425-3.9402 0 0-0.12524-0.44151 0.009827-1.1533-0.62082-1.4915-1.2416-2.9829-1.9583-4.9154 0 0-0.10275-0.43951 0.016693-1.0422-0.31033-0.48201-0.62067-0.96402-0.91632-1.4565 0 0-0.014709 0.01078 0.001068-0.79468-1.6313-5.511-3.446-10.978-4.7859-16.559-0.41919-1.746 0.44202-3.7994 0.76666-5.6493 0 0-0.023529-0.076286 0.56717-0.07354 0.41412-0.3568 0.82825-0.7136 1.3088-1.0641 0 0 0.015686-0.06485 0.60782-0.13152 0.52094-0.56991 1.0419-1.1398 1.5349-1.7298 0 0 0.01236 0.031838 0.50739-0.12434 0.20337-0.27312 0.40674-0.54623 1.0038-0.9305 0 0 0.39154-0.1187 1.0962-0.042343 2.0929-1.6633 4.1858-3.3267 6.3547-4.9457 0 0-0.040832-0.077881 0.66077-0.10378 2.7923-2.295 5.5847-4.5899 8.7986-7.0345 0 0 0.40765-0.18438 0.99744-0.16232 0.52026-0.56072 1.0405-1.1214 1.5781-1.6544 0 0-0.023987-0.024368 0.63971-0.053844 1.1197-0.98546 2.2394-1.9709 3.3627-2.9465 0 0-0.008728-0.006188 0.59552-0.025723 0.44226-0.34378 0.88446-0.68756 1.3829-0.99495 0 0-0.018067-0.064392 0.46478-0.18498 0.30591-0.18553 0.48242-0.45565 0.55878-0.79518 0 0-0.021179-0.026173 0.71014-0.072678 1.5333-1.1343 3.0667-2.2687 4.5999-3.403-0.26831-0.4736-0.53662-0.9472-0.80499-1.4208-1.8848 0.096485-3.7697 0.19297-6.2536 0.18454-0.40381 0.023235-0.80768 0.046475-1.9653-0.1598-0.77618 0.071892-1.5524 0.14378-3.146 0.12326-1.3688 0.032334-2.7375 0.064667-4.9008-0.13084-1.0893 0.075161-2.1786 0.15032-4.1749 0.13354-3.3461 0.027943-6.6923 0.055889-10.954-0.1439-5.4187 0.080296-10.837 0.16059-16.724 0.085087 0 0-0.47278-0.14032-0.61621-0.61536-0.18832-0.29916-0.45676-0.47838-0.77152-0.57733 0 0-0.045776 0.024364-0.042541-0.58786-0.32684-0.47272-0.65369-0.94543-1.0939-1.8756 0 0-0.12009-0.45576 0.044891-1.2543-3.7465-13.011-7.7872-25.91-13.038-38.355-0.65927 0.087996-1.3185 0.17599-1.9778 0.26399-0.97797 3.9305-1.9559 7.861-2.892 11.806 0 0-0.030609-0.032005-0.57214 0.28131-0.077606 0.59415-0.15524 1.1883-0.32864 2.2195 0 0-0.1102 0.43363-0.64609 0.76818-0.068756 0.59812-0.13751 1.1962-0.32037 2.2531 0 0-0.12775 0.45516-0.72623 0.83231-0.68942 2.2636-1.3789 4.5272-2.2027 7.3862-0.066284 0.40144-0.13257 0.80288-0.79932 1.6109-1.8128 5.2143-3.6256 10.429-6.0739 15.783-0.42871 0.064899-0.85742 0.1298-2.2062-0.020031-5.0486 0.077152-10.097 0.15431-15.968 0.14416-1.3762 0.030018-2.7524 0.060032-5.0405-0.14134-4.7155 0.078587-9.4311 0.15717-14.786 0.15341-0.42859 0.020684-0.85721 0.041363-2.1008-0.15833-1.4937-0.084964-2.9934-0.28995-4.4792-0.21592-1.1355 0.05658-2.2535 0.46622-3.3792 0.71882 0.8988 1.0955 1.7976 2.191 2.6641 3.36 0 0 0.067993-0.042976 0.24039 0.38902l0.37894 0.26894s0.46185-0.051701 0.87537 0.15555c0 0 0.41544 0.20345 0.60001 0.69126 0.30017 0.14061 0.60034 0.28122 0.92984 0.46984 0 0 0.056153-0.003796 0.23453 0.41463m-353.01 179.93c3.6121 10.462 7.2977 20.899 10.821 31.391 7.5976 22.622 15.118 45.27 22.659 67.911 7.4432 22.349 14.896 44.696 22.299 67.058 5.8484 17.666 11.7 35.331 17.371 53.054 0.96927 3.029 2.6321 3.5461 5.457 3.5336 21.83-0.096772 43.661-0.10825 65.491 0.020507 3.1563 0.018647 4.5882-0.82748 5.6102-4.0151 6.5931-20.564 13.437-41.048 20.254-61.539 6.2523-18.793 12.623-37.547 18.849-56.348 3.9473-11.919 7.6385-23.923 11.612-35.833 2.6411-7.9169 5.5775-15.735 8.729-24.571 0.92401 2.3377 1.5261 3.6523 1.9713 5.0179 9.6306 29.538 19.162 59.108 28.896 88.612 4.6687 14.152 9.7651 28.162 14.572 42.268 4.8799 14.32 9.5712 28.705 14.568 42.983 0.4888 1.3968 2.4536 3.045 3.8817 3.1989 4.0277 0.4339 8.1328 0.14896 12.207 0.14896 17.998-3.1e-5 35.996-0.06955 53.992 0.067383 3.1301 0.023773 4.6388-0.80628 5.6714-3.9606 4.6279-14.137 9.7213-28.121 14.38-42.248 8.0534-24.423 15.838-48.934 23.868-73.364 7.5196-22.874 15.171-45.706 22.843-68.529 5.821-17.316 11.872-34.555 17.629-51.892 6.8969-20.767 13.574-41.607 20.383-62.404 1.8608-5.6833 3.8536-11.323 5.9066-17.337h-78.826c-21.184 63.575-42.386 127.2-63.589 190.83-2.5566-3.8127-3.7842-7.1519-4.9113-10.525-7.6248-22.818-15.236-45.641-22.837-68.468-10.054-30.193-19.989-60.428-30.239-90.554-1.8458-5.4251-2.0468-11.882-7.3011-15.681-10.23-7.398-20.632-14.559-30.846-21.979-1.9492-1.4159-3.1699-1.3193-5.0163 0.050018-9.2633 6.8698-18.445 13.879-28.047 20.248-3.868 2.5659-5.9809 5.7225-7.3362 9.8235-4.4245 13.388-8.9131 26.754-13.3 40.155-5.5871 17.067-11.012 34.188-16.671 51.231-4.4155 13.299-9.1743 26.485-13.603 39.78-3.1147 9.3502-5.8218 18.836-8.9204 28.192-1.9942 6.021-4.3681 11.916-6.5718 17.868-0.38016 0.039124-0.76032 0.078247-1.1405 0.11737-21.219-63.734-42.439-127.47-63.635-191.13h-78.422c0.21516 1.2713 0.26638 2.4545 0.62152 3.538 4.1634 12.703 8.3424 25.401 12.58 38.079 3.0923 9.2526 6.3278 18.457 9.4066 27.714 2.946 8.8574 5.7721 17.755 8.6811 27.49m41.62-127.87c-2.6486-8.0178-5.1242-16.099-8.0251-24.024-1.2831-3.5056-0.25127-5.493 2.5515-7.4408 11.151-7.7496 22.234-15.596 33.294-23.475 0.80339-0.57239 1.2151-1.6945 2.092-2.9742-1.5647-0.23686-2.507-0.50547-3.4486-0.50313-13.987 0.034691-27.974 0.18214-41.96 0.058998-1.5503-0.013653-4.0491-1.1797-4.4814-2.3916-4.2187-11.825-8.0751-23.779-12.083-35.68-0.48434-1.4381-1.2557-2.7796-2.2352-4.9065-1.1719 1.6046-1.9548 2.2777-2.2332 3.118-3.7986 11.465-7.7366 22.892-11.158 34.471-1.1766 3.9815-2.6526 5.7219-7.082 5.6146-12.651-0.30647-25.314-0.12036-37.972-0.093918-1.6804 0.003509-3.3604 0.20457-5.0406 0.31415 0.83312 2.2978 1.9424 3.4209 3.198 4.3453 10.649 7.8398 21.404 15.541 31.894 23.587 1.317 1.0102 2.2164 4.0694 1.721 5.6952-3.3817 11.098-7.1764 22.07-10.867 33.074-0.85885 2.5609-1.8281 5.0848-2.7466 7.6257 0.35089 0.30764 0.70179 0.61528 1.0527 0.92292 0.98382-0.51428 2.0427-0.92269 2.94-1.559 10.643-7.5467 21.477-14.849 31.775-22.843 3.85-2.9889 6.1301-2.1781 9.4076 0.26794 9.9806 7.4486 20.109 14.7 30.255 21.924 1.1087 0.78936 2.7036 0.89595 4.6361 1.4933-1.9654-5.9343-3.6077-10.893-5.4845-16.619m136.43-10.656c-2.8689 8.915-5.7377 17.83-9.0246 28.044 2.6108-1.3524 4.2512-1.9754 5.638-2.9567 10.424-7.3758 20.851-14.749 31.146-22.301 2.3845-1.7494 3.9818-1.9966 6.5016-0.092033 8.3477 6.3096 16.898 12.354 25.445 18.396 3.1438 2.2224 6.4941 4.1526 10.88 6.932-0.41241-2.5982-0.44177-3.8608-0.82123-5.0077-4.0515-12.245-8.0415-24.514-12.33-36.676-1.1103-3.1487-0.32275-4.8152 2.2205-6.5946 10.977-7.6798 21.865-15.485 32.735-23.317 1.0256-0.73894 1.6915-1.9771 3.367-4.0016-3.0557 0-4.6689 4.77e-4 -6.2822-8.4e-5 -12.823-0.004463-25.648 0.10714-38.466-0.14326-1.8516-0.036171-4.637-1.3675-5.324-2.8642-2.1921-4.7759-3.593-9.9144-5.3104-14.909-2.9112-8.4665-5.8307-16.93-9.0757-26.35-1.1371 2.4662-1.8892 3.7651-2.355 5.1597-3.7771 11.308-7.6017 22.602-11.182 33.972-1.1548 3.6674-2.8263 5.3102-7.0056 5.213-12.649-0.29422-25.31-0.099739-37.966-0.059555-1.6713 0.005306-3.3419 0.2205-5.0129 0.33849 1.0096 2.5736 2.2757 4.0537 3.8175 5.1438 10.54 7.4523 21.186 14.758 31.65 22.314 1.1153 0.80538 2.0771 3.1303 1.7485 4.3972-1.2829 4.9469-3.1135 9.7518-4.9932 15.362z" fill="transparent"/>
	<path d="m61.272 236.87c-2.8939-9.3076-5.72-18.205-8.666-27.062-3.0789-9.257-6.3143-18.462-9.4066-27.714-4.2373-12.678-8.4162-25.376-12.58-38.079-0.35514-1.0835-0.40636-2.2667-0.62152-3.538h78.422c21.197 63.666 42.416 127.4 63.635 191.13 0.38016-0.039124 0.76032-0.078247 1.1405-0.11737 2.2037-5.9516 4.5777-11.847 6.5718-17.868 3.0986-9.3557 5.8058-18.841 8.9204-28.192 4.4288-13.295 9.1875-26.48 13.603-39.78 5.6585-17.043 11.083-34.164 16.671-51.231 4.3866-13.4 8.8752-26.767 13.3-40.155 1.3553-4.1011 3.4682-7.2576 7.3362-9.8235 9.6021-6.3696 18.784-13.378 28.047-20.248 1.8464-1.3693 3.067-1.4659 5.0163-0.050018 10.214 7.4193 20.616 14.581 30.846 21.979 5.2543 3.7997 5.4554 10.256 7.3011 15.681 10.25 30.127 20.185 60.361 30.239 90.554 7.6009 22.826 15.212 45.649 22.837 68.468 1.127 3.3728 2.3546 6.712 4.9113 10.525 21.202-63.629 42.405-127.26 63.589-190.83h78.826c-2.053 6.0136-4.0458 11.654-5.9066 17.337-6.8091 20.796-13.486 41.636-20.383 62.404-5.7576 17.337-11.808 34.576-17.629 51.892-7.6725 22.824-15.324 45.655-22.843 68.529-8.031 24.43-15.815 48.941-23.868 73.364-4.6585 14.127-9.7519 28.111-14.38 42.248-1.0326 3.1543-2.5413 3.9844-5.6714 3.9606-17.997-0.13693-35.995-0.067414-53.992-0.067383-4.0746 0-8.1797 0.28494-12.207-0.14896-1.4281-0.15384-3.3929-1.8021-3.8817-3.1989-4.9966-14.278-9.688-28.663-14.568-42.983-4.8072-14.107-9.9036-28.117-14.572-42.268-9.7335-29.504-19.265-59.074-28.896-88.612-0.44528-1.3657-1.0473-2.6802-1.9713-5.0179-3.1514 8.8359-6.0879 16.654-8.729 24.571-3.9733 11.91-7.6645 23.914-11.612 35.833-6.2265 18.802-12.597 37.555-18.849 56.348-6.8173 20.491-13.661 40.975-20.254 61.539-1.022 3.1877-2.4539 4.0338-5.6102 4.0151-21.83-0.12875-43.661-0.11728-65.491-0.020507-2.8249 0.012512-4.4877-0.50458-5.457-3.5336-5.6713-17.723-11.522-35.388-17.371-53.054-7.4034-22.363-14.856-44.709-22.299-67.058-7.5404-22.641-15.061-45.289-22.659-67.911-3.5236-10.492-7.2091-20.929-10.836-31.819z" fill="#FDFEFE"/>
	<path d="m103.02 109.81c1.7595 5.3422 3.4018 10.301 5.3672 16.235-1.9326-0.59735-3.5274-0.70394-4.6361-1.4933-10.146-7.2233-20.275-14.475-30.255-21.924-3.2775-2.446-5.5576-3.2568-9.4076-0.26794-10.297 7.9939-21.132 15.296-31.775 22.843-0.89731 0.63627-1.9562 1.0447-2.94 1.559-0.35089-0.30764-0.70178-0.61528-1.0527-0.92292 0.91847-2.5409 1.8877-5.0648 2.7466-7.6257 3.6902-11.003 7.4849-21.976 10.867-33.074 0.49541-1.6258-0.40404-4.685-1.721-5.6952-10.49-8.0464-21.245-15.747-31.894-23.587-1.2556-0.92436-2.3649-2.0475-3.198-4.3453 1.6802-0.10958 3.3602-0.31064 5.0406-0.31415 12.658-0.02644 25.321-0.21255 37.972 0.093918 4.4294 0.1073 5.9054-1.6331 7.082-5.6146 3.4217-11.579 7.3598-23.005 11.158-34.471 0.2784-0.84031 1.0614-1.5135 2.2332-3.118 0.97941 2.1269 1.7508 3.4684 2.2352 4.9065 4.0081 11.901 7.8645 23.855 12.083 35.68 0.43234 1.2119 2.9312 2.378 4.4814 2.3916 13.985 0.12314 27.973-0.024307 41.96-0.058998 0.94165-0.002335 1.884 0.26628 3.4486 0.50313-0.87692 1.2797-1.2886 2.4018-2.092 2.9742-11.059 7.8794-22.143 15.726-33.294 23.475-2.8027 1.9479-3.8346 3.9352-2.5515 7.4408 2.9009 7.9254 5.3765 16.007 8.1424 24.408z" fill="#C0112F"/>
	<path d="m239.46 98.395c1.7533-5.234 3.5839-10.039 4.8668-14.986 0.32857-1.2669-0.63324-3.5918-1.7485-4.3972-10.464-7.5565-21.11-14.862-31.65-22.314-1.5418-1.0901-2.8079-2.5702-3.8175-5.1438 1.6709-0.11798 3.3416-0.33318 5.0129-0.33849 12.656-0.040184 25.317-0.23466 37.966 0.059555 4.1793 0.097214 5.8508-1.5456 7.0056-5.213 3.5804-11.371 7.405-22.664 11.182-33.972 0.46585-1.3946 1.2179-2.6936 2.355-5.1597 3.245 9.4198 6.1646 17.883 9.0757 26.35 1.7174 4.9947 3.1183 10.133 5.3104 14.909 0.68701 1.4968 3.4724 2.8281 5.324 2.8642 12.818 0.2504 25.643 0.1388 38.466 0.14326 1.6133 5.61e-4 3.2265 8.4e-5 6.2822 8.4e-5 -1.6755 2.0244-2.3414 3.2626-3.367 4.0016-10.869 7.8313-21.758 15.637-32.735 23.317-2.5433 1.7794-3.3308 3.4459-2.2205 6.5946 4.2886 12.163 8.2787 24.431 12.33 36.676 0.37946 1.1468 0.40881 2.4095 0.82123 5.0077-4.3858-2.7794-7.7361-4.7097-10.88-6.932-8.5467-6.0415-17.097-12.086-25.445-18.396-2.5198-1.9046-4.1172-1.6574-6.5016 0.092033-10.295 7.5529-20.723 14.926-31.146 22.301-1.3868 0.9813-3.0272 1.6042-5.638 2.9567 3.2869-10.214 6.1558-19.129 9.151-28.42z" fill="#C0112F"/>
	<path d="m521.04 51.347c1.3688-0.032329 2.7375-0.064662 4.7308 0.13936 1.5081 0.1142 2.3917-0.00795 3.2754-0.1301 0.40381-0.023235 0.80768-0.046475 1.6092 0.30669 0.70837 1.6874 1.019 2.9984 1.3296 4.3094 6.1e-5 -4e-6 0.02124 0.026169-0.2279 0.090198-0.54736 0.24579-0.72852 0.50837-0.79248 0.85175 0 0 0.018067 0.064392-0.30664 0.054291-0.77057 0.33479-1.2165 0.67969-1.6624 1.0246 0 0 0.008728 0.006188-0.35394-0.005928-1.4631 0.98796-2.5634 1.988-3.6638 2.9881 0 0 0.023987 0.024368-0.28436 0.029858-0.82538 0.54596-1.3424 1.0864-1.8595 1.6269 0-8e-6 -0.40765 0.18437-0.98474 0.2598-3.3591 2.3786-6.1411 4.6818-8.9232 6.985 0 7e-6 0.040832 0.077888-0.3551 0.060509-2.4851 1.6173-4.5742 3.2521-6.6634 4.8868-3e-5 -8e-6 -0.39157 0.11869-0.84125 0.24696-0.64951 0.40498-0.84934 0.68169-1.0492 0.9584 0 0-0.01236-0.031838-0.31198-0.001068-0.8089 0.60908-1.3181 1.1874-1.8274 1.7657 0 8e-6 -0.015686 0.064858-0.32828 0.091622-0.73737 0.36271-1.1621 0.69865-1.5869 1.0346 0 8e-6 0.023529 0.076294-0.40036 0.055031-1.155 1.0615-2.7301 2.412-2.4848 3.185 2.118 6.6757 4.5639 13.247 6.9121 19.85 0 0 0.014709-0.01078 6.4e-4 0.28482 0.26093 0.78492 0.53595 1.2742 0.81094 1.7636 0 0 0.10275 0.43951 0.1264 1.0505 0.6156 2.0794 1.2076 3.5478 1.7995 5.0162 0 0 0.12524 0.44151 0.15988 1.0246 0.59567 1.7311 1.1567 2.8792 1.7178 4.0272 0.074249 0.39861 0.1485 0.79722 0.044983 1.7228 0.28982 2.4647 0.75745 4.4023 1.2601 6.4854-1.5766-0.1841-2.7052-0.31589-3.8339-0.44769 0 0-0.071106 0.048523-0.088623-0.33171-2.3018-1.8202-4.5862-3.2601-6.8705-4.7001 0 7e-6 -0.072296 0.04837-0.15155-0.21256-0.27777-0.5387-0.54611-0.7012-0.88425-0.74841 0 0-0.071961 0.04348-0.11124-0.32256-0.99353-0.80563-1.9478-1.2452-2.902-1.6848 0-7e-6 -0.064148 0.058518-0.10348-0.30899-0.99616-0.80493-1.9529-1.2424-2.9098-1.6798 0 0-0.038788 0.05468-0.13257-0.19931-0.30716-0.53188-0.58762-0.69339-0.93506-0.73855 0 0 0.018494-0.011421-0.11829-0.26287-0.66873-0.45172-1.2006-0.65198-1.7325-0.85225 0 0-0.082947 0.032967-0.12299-0.32898-0.96286-0.81366-1.8857-1.2654-2.8085-1.7171-0.27673-0.19394-0.55347-0.38789-1.0175-1.14-1.2544-1.188-2.3214-1.8177-3.3885-2.4475 0 0 0.10614-0.016739-0.017242-0.36334-1.3193-0.88298-2.5153-1.4194-3.7112-1.9557 0 0-0.062439 0.049599-0.081848-0.31576-1.6652-1.1787-3.3109-1.992-4.9567-2.8052-0.47079-0.009575-0.94162-0.019142-2.0603 0.050873-1.0935 0.4356-1.5392 0.7916-1.9849 1.1476-0.15134 0.27814-0.35556 0.50959-1.1713 0.81199-1.3034 0.80917-2.0481 1.5007-2.7929 2.1923 0 0-0.018097-0.025635-0.37106-0.029335-1.4611 1.0057-2.5693 2.0151-3.6774 3.0244-0.16519 0.29003-0.39758 0.50869-1.2654 0.76622-1.6426 1.0934-2.717 2.0766-3.7913 3.0597 0-7e-6 -0.026337 0.058785-0.23807 0.087654-0.44635 0.12057-0.6308 0.27298-0.76508 0.4861-0.15515 0.094497-0.31027 0.189-0.93204 0.47188-0.74612 0.34715-0.95398 0.5721-1.0902 0.86323 0 0-0.40304 0.13969-0.8598 0.27274-0.64896 0.41363-0.84113 0.69421-1.0333 0.97478 0 0 0.004394-0.003663-0.34039 0.026306-1.8243 1.2677-3.3039 2.5054-4.7834 3.7431 0-8e-6 -0.014923 0.073685-0.4079 0.098175-3.4799 1.6622-6.567 3.2998-10.817 5.5547 2.0285-6.2597 3.7637-11.327 5.307-16.451 1.7923-5.9517 3.4162-11.954 5.1133-17.935-3.1e-5 -8e-6 0.10718-0.45631 0.4743-0.78885 0.7381-1.9899 1.1091-3.6473 1.48-5.3047 0.026215-0.44389 0.052399-0.88778 0.015046-1.9838-0.70505-1.1048-1.3465-1.5574-1.988-2.01 0 7e-6 -0.041382 0.0504-0.13455-0.20151-0.37869-0.41134-0.66422-0.57077-0.94971-0.73019 0 0 0.038513-0.021049-0.11627-0.26305-0.70529-0.43449-1.2559-0.62698-1.8064-0.81946 0 0-0.44455-0.11502-0.74243-0.47498-0.90881-0.76702-1.5197-1.1741-2.1306-1.5811 0 0-0.075684 0.01931-0.13193-0.35439-1.9812-1.4664-3.9061-2.5591-5.831-3.6518 0 0-0.083466-0.018372-0.19296-0.25694-0.29098-0.49216-0.53555-0.64433-0.84323-0.6951 0 0-0.065552-0.017906-0.1228-0.38887-2.3548-1.7854-4.6523-3.1998-6.9499-4.6142 0 0-0.075501 0.060082-0.10083-0.32137-3.2603-2.5057-6.4953-4.6299-9.7302-6.7542 0-4e-6 -0.10919-0.0578-0.23959-0.30346-0.33722-0.47849-0.59638-0.59515-0.9079-0.59565 0 0-0.056153 0.003796-0.17886-0.2458-0.41238-0.40242-0.70206-0.55525-0.9917-0.70807 0 8e-6 -0.41544-0.20344-0.74918-0.47309-0.54767-0.46907-0.80075-0.57481-1.093-0.58684 0 0-0.067993 0.042976-0.09555-0.32382 0.40216-1.1064 0.68256-2.2943 1.2911-2.497 1.5018-0.50029 3.1541-0.5487 4.7458-0.77876 0.42859-0.020683 0.85721-0.041362 1.9451 0.2061 5.4524 0.11537 10.245-0.037399 15.039-0.19017 1.3762-0.030014 2.7524-0.060028 4.8806 0.17793 5.8801 0.11285 11.008-0.042286 16.136-0.19742 0.42871-0.064899 0.85742-0.1298 1.9653-0.3158 2.4511-5.437 4.2231-10.753 5.9951-16.069 0.066284-0.40144 0.13257-0.80289 0.58789-1.6298 1.0634-2.7296 1.7378-5.0337 2.4121-7.3379 0 0 0.12775-0.45516 0.39358-0.89299 0.37402-1.0085 0.48221-1.5792 0.59039-2.1499 3.1e-5 1e-6 0.11023-0.43363 0.36847-0.85646 0.37613-0.98521 0.49402-1.5476 0.61194-2.11 0 2e-6 0.030609 0.032007 0.30274-0.17432 1.3687-2.6839 2.4654-5.1616 4.0892-8.83 1.0915 2.5794 1.7902 3.9801 2.2875 5.4489 2.1252 6.2767 4.0953 12.608 6.3129 18.851 1.4214 4.0013 3.1761 7.8841 4.7813 11.82 0-3e-6 0.12009 0.45575 0.17676 0.98872 0.38248 1.0069 0.70825 1.4809 1.034 1.9548 0 4e-6 0.045776-0.02436 0.10669 0.22916 0.24637 0.55004 0.51074 0.73182 0.85404 0.79886 0 0 0.47278 0.14032 0.83795 0.5314 6.0014 0.17791 11.638-0.035263 17.274-0.24843 3.3461-0.027947 6.6923-0.055893 10.737 0.15918 1.8894 0.11244 3.08-0.018135 4.2706-0.14872z" fill="#C7102E"/>
	<path d="m444.77 89.241c-1.4024 5.7781-3.0263 11.781-4.8186 17.732-1.5432 5.1247-3.2784 10.192-5.307 16.451 4.2503-2.2548 7.3373-3.8925 10.78-5.5552-3.4873 3.0971-7.3299 6.2192-11.173 9.3412-0.62625-0.38622-1.2525-0.77245-1.8788-1.1587 3.3639-12.399 7.6096-24.54 12.397-36.811z" fill="#841638"/>
	<path d="m485.83 46.683c-1.6877-3.5367-3.4424-7.4196-4.8638-11.421-2.2177-6.2432-4.1877-12.574-6.3129-18.851-0.49734-1.4689-1.196-2.8696-2.2875-5.4489-1.6237 3.6684-2.7204 6.146-4.1101 8.8229 0.68494-3.7313 1.6629-7.6618 2.6408-11.592 0.65924-0.087996 1.3185-0.17599 1.9778-0.26399 5.251 12.444 9.2918 25.344 12.956 38.754z" fill="#841638"/>
	<path d="m503.99 101.61c-2.356-6.1999-4.8019-12.772-6.92-19.447-0.24527-0.773 1.3298-2.1235 2.46-3.2164 0.12402 1.9026-0.73718 3.9559-0.31799 5.7019 1.3398 5.581 3.1545 11.048 4.778 16.962z" fill="#841638"/>
	<path d="m506.2 123.26c1.0016-0.19146 2.1303-0.05967 3.7068 0.12443-0.50269-2.0831-0.97031-4.0207-1.2171-6.1838 1.6772 2.7579 3.1337 5.7413 4.5901 8.7247-0.45752 0.4418-0.91498 0.8836-1.3725 1.3254-1.8601-1.2225-3.7202-2.445-5.7073-3.9907z" fill="#841638"/>
	<path d="m462.71 35.147c-1.4717 5.1126-3.2437 10.428-5.3772 15.795 1.4513-5.1634 3.2641-10.378 5.3772-15.795z" fill="#841638"/>
	<path d="m532.35 55.949c-0.67633-1.2877-0.98694-2.5987-1.3958-4.2337 1.7867-0.42043 3.6715-0.51692 5.5563-0.61341 0.26837 0.4736 0.53668 0.9472 0.80499 1.4208-1.5333 1.1343-3.0666 2.2687-4.9656 3.4263z" fill="#841638"/>
	<path d="m415.31 58.181c3.1898 1.7877 6.4248 3.9119 9.7105 6.3766-3.188-1.7864-6.4267-3.9133-9.7105-6.3766z" fill="#841638"/>
	<path d="m513.27 69.864c2.4313-2.2902 5.2133-4.5934 8.3616-6.8972-2.4261 2.2944-5.2184 4.5893-8.3616 6.8972z" fill="#841638"/>
	<path d="m505.57 51.223c-5.1786 0.32704-10.815 0.54021-16.582 0.4402 5.2874-0.39348 10.706-0.47377 16.582-0.4402z" fill="#841638"/>
	<path d="m416.64 51.222c-1.1843 0.34024-2.8366 0.38865-4.3383 0.88894-0.60855 0.20274-0.88895 1.3906-1.2749 2.4602-0.8551-0.7655-1.7539-1.861-2.6527-2.9565 1.1258-0.25259 2.2437-0.66224 3.3792-0.71882 1.4858-0.074028 2.9855 0.13096 4.8867 0.32611z" fill="#841638"/>
	<path d="m454.59 51.221c-4.6681 0.26249-9.7962 0.41762-15.265 0.34842 4.7078-0.30148 9.7564-0.37864 15.265-0.34842z" fill="#841638"/>
	<path d="m499.22 118.23c2.1789 1.1205 4.4633 2.5604 6.7927 4.3474-2.199-1.1113-4.4431-2.5696-6.7927-4.3474z" fill="#841638"/>
	<path d="m433.57 51.232c-4.3372 0.26846-9.1302 0.42124-14.263 0.34703 4.3759-0.30556 9.0914-0.38414 14.263-0.34703z" fill="#841638"/>
	<path d="m506.26 74.863c1.7368-1.6729 3.826-3.3076 6.273-4.9471-1.7349 1.6586-3.8278 3.3219-6.273 4.9471z" fill="#841638"/>
	<path d="m425.22 65.232c2.1705 1.1018 4.468 2.5163 6.8185 4.2679-2.1951-1.0936-4.4433-2.5245-6.8185-4.2679z" fill="#841638"/>
	<path d="m433.31 71.194c1.8215 0.774 3.7464 1.8667 5.7373 3.2953-1.834-0.76828-3.7339-1.8724-5.7373-3.2953z" fill="#841638"/>
	<path d="m465.71 26.165c-0.37515 2.1156-1.0495 4.4197-2.0457 6.8516 0.36758-2.1358 1.057-4.3994 2.0457-6.8516z" fill="#841638"/>
	<path d="m473.17 100.13c1.504 0.50224 3.1497 1.3155 4.8374 2.4612-1.5373-0.49512-3.1164-1.3226-4.8374-2.4612z" fill="#841638"/>
	<path d="m446.21 117.8c1.1384-1.2689 2.6179-2.5066 4.4442-3.7766-1.1365 1.2477-2.6198 2.5278-4.4442 3.7766z" fill="#841638"/>
	<path d="m461.32 106.99c0.76056-0.98381 1.8687-1.9932 3.3421-2.989-0.75467 0.99686-1.8746 1.9802-3.3421 2.989z" fill="#841638"/>
	<path d="m446.73 83.155c-0.084595 1.4476-0.45557 3.105-1.1284 4.8698 0.079406-1.4817 0.46069-3.0709 1.1284-4.8698z" fill="#841638"/>
	<path d="m525.31 60.961c0.76849-0.98534 1.8688-1.9854 3.3301-2.9783-0.75885 0.99265-1.8785 1.9781-3.3301 2.9783z" fill="#841638"/>
	<path d="m456.25 110.87c0.74069-1.0063 1.8151-1.9894 3.2334-2.9911-0.73727 0.99242-1.8185 2.0033-3.2334 2.9911z" fill="#841638"/>
	<path d="m506.79 109.77c-0.65948-1.1125-1.2515-2.5809-1.8192-4.4398 0.64505 1.101 1.2659 2.5925 1.8192 4.4398z" fill="#841638"/>
	<path d="m481.88 105.58c0.98395 0.31562 2.051 0.94541 3.1801 1.9094-0.99094-0.30892-2.044-0.9521-3.1801-1.9094z" fill="#841638"/>
	<path d="m508.7 114.84c-0.6561-0.81297-1.2171-1.961-1.7612-3.4686 0.6301 0.80483 1.2432 1.9692 1.7612 3.4686z" fill="#841638"/>
	<path d="m478.2 103.25c1.0616 0.22848 2.2576 0.76486 3.5275 1.6457-1.0818-0.2163-2.2375-0.77705-3.5275-1.6457z" fill="#841638"/>
	<path d="m495.19 115.24c0.82953 0.14224 1.7838 0.58182 2.8036 1.3547-0.84921-0.13026-1.7641-0.59381-2.8036-1.3547z" fill="#841638"/>
	<path d="m492.18 113.25c0.82431 0.14126 1.7811 0.57868 2.8044 1.3495-0.84631-0.12885-1.7591-0.5911-2.8044-1.3495z" fill="#841638"/>
	<path d="m486.29 109.16c0.83527 0.14162 1.7581 0.59335 2.7441 1.3688-0.84338-0.13706-1.7499-0.59789-2.7441-1.3688z" fill="#841638"/>
	<path d="m465.34 104.01c0.42276-0.67504 1.1675-1.3666 2.2639-2.0687-0.41287 0.67702-1.1774 1.3646-2.2639 2.0687z" fill="#841638"/>
	<path d="m520.64 51.233c-0.7934 0.2445-1.9839 0.37508-3.4199 0.3086 0.84399-0.2722 1.9333-0.34737 3.4199-0.3086z" fill="#841638"/>
	<path d="m523.12 62.643c0.22217-0.55148 0.7392-1.0919 1.5559-1.6518-0.22058 0.54136-0.74078 1.1021-1.5559 1.6518z" fill="#841638"/>
	<path d="m528.67 51.242c-0.50678 0.23691-1.3904 0.35906-2.4898 0.29107 0.56042-0.26204 1.3367-0.33393 2.4898-0.29107z" fill="#841638"/>
	<path d="m445.15 79.227c0.54086 0.17754 1.1823 0.63017 1.8519 1.403-0.56503-0.1625-1.1581-0.64521-1.8519-1.403z" fill="#841638"/>
	<path d="m502.17 77.761c0.21316-0.54497 0.72241-1.1233 1.5453-1.7223-0.20734 0.54916-0.7283 1.1191-1.5453 1.7223z" fill="#841638"/>
	<path d="m439.23 75.171c0.54297 0.11762 1.1538 0.52468 1.8472 1.2122-0.53809-0.12061-1.1587-0.52171-1.8472-1.2122z" fill="#841638"/>
	<path d="m469.29 101c0.1398-0.33643 0.58548-0.69244 1.3304-1.069-0.14203 0.33609-0.58325 0.69278-1.3304 1.069z" fill="#841638"/>
	<path d="m466.72 23.101c0.15976 0.4034 0.051575 0.97408-0.26541 1.7532-0.14002-0.38968-0.071259-0.9878 0.26541-1.7532z" fill="#841638"/>
	<path d="m467.7 20.124c0.15283 0.40573 0.034943 0.96811-0.2933 1.7348-0.13272-0.38984-0.055084-0.98399 0.2933-1.7348z" fill="#841638"/>
	<path d="m486.96 49.72c-0.32739-0.16785-0.65317-0.64181-0.97894-1.42 0.32687 0.16847 0.65372 0.64119 0.97894 1.42z" fill="#841638"/>
	<path d="m529.29 57.984c0.1438-0.33513 0.58972-0.68003 1.3322-1.033-0.14563 0.33569-0.58783 0.67947-1.3322 1.033z" fill="#841638"/>
	<path d="m489.24 111.17c0.42621-0.078102 0.9581 0.12216 1.6215 0.5836-0.4176 0.072373-0.9667-0.11643-1.6215-0.5836z" fill="#841638"/>
	<path d="m442.18 77.205c0.41174-0.074791 0.96231 0.1177 1.6601 0.57278-0.40897 0.073226-0.96512-0.11614-1.6601-0.57278z" fill="#841638"/>
	<path d="m500.25 78.922c0.12942-0.33732 0.5542-0.67326 1.2584-1.0391-0.13476 0.32689-0.54889 0.68369-1.2584 1.0391z" fill="#841638"/>
	<path d="m504.86 103.76c-0.33472-0.188-0.60974-0.67731-0.87802-1.457 0.31708 0.19165 0.62741 0.67366 0.87802 1.457z" fill="#841638"/>
	<path d="m504.26 75.952c-0.047699-0.19862 0.15213-0.47533 0.60474-0.82474 0.0495 0.20042-0.15387 0.47353-0.60474 0.82474z" fill="#841638"/>
	<path d="m455.11 111.47c-0.068756-0.26138 0.11569-0.41379 0.52988-0.53595 0.14093 0.28184-0.027863 0.48673-0.52988 0.53595z" fill="#841638"/>
	<path d="m413.04 56.235c0.19736-0.091083 0.48703 0.061745 0.88474 0.44016-0.19211 0.084976-0.49228-0.055633-0.88474-0.44016z" fill="#841638"/>
	<path d="m453.14 112.76c-0.11975-0.29138 0.088104-0.51633 0.59052-0.7417 0.037109 0.2029-0.14871 0.47243-0.59052 0.7417z" fill="#841638"/>
	<path d="m491.06 112.26c0.26602-0.20054 0.54648-0.039024 0.86615 0.46278-0.19074 0.07692-0.48776-0.070084-0.86615-0.46278z" fill="#841638"/>
	<path d="m451.24 113.92c-0.051514-0.19646 0.14066-0.47704 0.58426-0.83299 0.054138 0.19939-0.14319 0.47414-0.58426 0.83299z" fill="#841638"/>
	<path d="m531.2 56.854c-0.17749-0.28308 0.003662-0.54566 0.53638-0.79904 0.18744 0.28309 0.010925 0.55322-0.53638 0.79904z" fill="#841638"/>
	<path d="m432.22 70.152c0.25439-0.17853 0.49896-0.026352 0.76816 0.42903-0.26367 0.23549-0.53119 0.10165-0.76816-0.42903z" fill="#841638"/>
	<path d="m414.21 57.154c0.22232-0.20871 0.48148-0.092049 0.79132 0.33108-0.23251 0.25944-0.50092 0.15539-0.79132-0.33108z" fill="#841638"/>
	<path d="m498.16 117.18c0.25662-0.18528 0.52496-0.022781 0.81909 0.47562-0.26212 0.20971-0.53982 0.055123-0.81909-0.47562z" fill="#841638"/>
	<path d="m444.06 78.258c0.1889-0.078438 0.47443 0.080993 0.86966 0.46556-0.18454 0.074188-0.47879-0.07676-0.86966-0.46556z" fill="#841638"/>
	<path d="m487.84 50.816c-0.27158 0.17049-0.53595-0.011288-0.79919-0.5415 0.27072-0.17441 0.53915 0.004814 0.79919 0.5415z" fill="#841638"/>
	<path d="m411.19 55.147c0.20599-0.20396 0.45908-0.098232 0.79999 0.26722 0.12698 0.16602-0.33487 0.21772-0.33487 0.21772s-0.37894-0.26894-0.46512-0.48494z" fill="#841638"/>
</svg>
