<svg xmlns="http://www.w3.org/2000/svg" viewBox="0 0 200 219"><path fill="#b20806" d="M76 97h47v34l-2 1 1-6-7 1-1-9h-2l1-4 3 2v2h3l-1-3-1-7-3-1-1-2-3-1-1 3-3 2-1 3-4-1v-8l1-1h-7v2h3v2l-7-1v-4h-3v2l-3 4q-2 5-1 9h5l3-1h2l1-2q4 6 4 13l-3-1-1-4-6 2-1-1h-5l-1 3v8q4-4 5-10l2 1v9h-2l-1 13-3 1q4 3 9 2 8 0 14 5l-2 1-2 4-1 2-1 2-2-3-2-2-1-4h-2q-11 1-20-4l2-6v-13l1-11z"/><path fill="#e9c400" d="M152 76v8l-3 4 2-1 3 1v5l-4 2 5 2-1 3v5l-2 4-3 1-3-2 2 3-2 3 2 4v-5l5-1 1-2 7 5-1 4h-7l-1 4-4 1-3-9h-3l-1-2-2 2-4-1-1-3-1 4-8-1v-11l6 3c6 1 6 1 11-2l1-7-4-5 1-6 3-1v2q5-4 6-9z"/><path fill="#e3bf00" d="M45 71c13 11 13 11 16 18q1 3-2 5-2 3-2 7 1 3 4 5l6 1-3 1-1 5-3-2-2 4h-5v-6h-1l-5-1 1-5-3-2v-6l2-1-8-1q-5 0-11-4l-1-5 2 1 2-1 8 2 3 3h-4l4 1 2-3 4-1h2l-3-2q-3-3-2-7l1-3-2 3v-5z"/><path fill="#caaa00" d="M193 50q1 7-2 12-4 5-9 9l2-1q5-4 12-3l-1 3-1-1v2q0 5-5 8h9q-1 5-7 9l-3 1q2-4 6-7h-6l-3 1-5 1h-7l-2-2h-2q3-7 8-13l-2 1-2 2-3 1-2 1-2-1 3-2 18-17q5-5 6-4"/><path fill="#d2b000" d="m88 183-7 7 1 7-6 1 1 5 7 2v2c-7 4-7 4-11 3l-5-8-3 4-3-3v-6l3-3-2-2 1-5 2-1 2 3q6 0 10-5 5-3 10-1"/><path fill="#995a00" d="m125 94 7 1-1 5-6 3v4l1 3 1 6 5 1v5l-1 3-2 6-1 6v5h-3l1 2-1 6 2 1-1 2-5 1-1-1h-11l1-4h12l1-52-5-1q3-2 7-2"/><path fill="#443900" d="M96 0h8v8l-1 4h3q5 1 9 5 1 8-3 14c-1-4 0-4 1-8v-5l-5-3-1 4h-2l-1 7h-3l-6 1v-4q1-4-2-6l-1-2-4 1 1 7h-2l-1 3-1-8q3-5 9-6h3v-2l-1-2-1-3z"/><path fill="#a38900" d="m49 94-1 1q-2 2-2 6l5 1-3 1v5l6-1-1 4 5 4 1-5v6h-3l-1 2v-2l-5 4 1-3v-3l-2-2-4 3v-3l-2-1 2-6-4 1-10 1-2-3 3-4-2-2-1-5 7-1h2q6 0 11 2"/><path fill="#685700" d="m30 115-4 2-3 1-4 1v8l15-10 2 1-2 2-3 3-3 2q-4 4-5 9l4 1v1h-6l1 2 4 9 2 3 2 4 1 2 1 7-4-3-1-3-1-3-2-3-2-6-1-3-3-3c-3-5-3-5-3-8h-2v-2l-2-1-6-3 1-2h8v2l3-1-2-1 2-2 1-6 1 2 2-1 2-1h7"/><path fill="#dbb900" d="m183 34 4 2q2 13-6 22l-14 13 7-12 2-2-5 3-2 3h-2q1-6 5-10z"/><path fill="#ddba00" d="M14 34q5 2 7 8l11 16 1 2-1 3q-7-4-11-12l9 13 2 3-1 3C13 53 13 53 13 43v-5z"/><path fill="#d0af00" d="m103 177 9 10 1 2q4 5 3 10l2 1-2 6 3 2q-4 6-7 5h-6l-2-3 3-1 3-4q0-10-5-18z"/><path fill="#c9a900" d="m104 172 2 2q4 5 10 8l4 2 2 1 4 3 5 1 4-3 2 2v3q-2 4 1 7v5l-4 4-2-5-1 3-5 5 1-2q2-9-1-16-6-5-13-8l-6-5-2-2z"/><path fill="#d5b300" d="M4 67q10 0 17 6l3 1q4 2 7 8l-11-4 3 2 3 2v2l-7-1h-2l-8-2H2v-2h10l-1-1c-6-4-6-4-7-8z"/><path fill="#c1a300" d="M88 155h7l5 7 1-2 4-5h7l-1 3-1 3-1 4q-2 4 1 8l3 3h-5q-4-4-5-9l-3 6h-1l-1-3-4-6q-4-4-6-9"/><path fill="#c9a900" d="M80 61q5 4 6 11V62q4 3 4 8h-1v3c-1 16-1 16-6 21l-5 1 3-4h-6l-1-2 3-1 4-3q2-5 0-11-3-8-9-12l3 1h5z"/><path fill="#998100" d="m151 86 10 2 3 1-7 3h2c8-2 8-2 12 1l2 2q-2 5-8 6h-3l-2 1 2 2c-8 1-8 1-13-1v-1h5v-5l-6-1 5-3 1-5h-3z"/><path fill="#382f00" d="M94 165q4 5 5 9l2 2 1 4-4 1v4l-1 3-1 4q-1 11 2 21h4l2-9 3 6-2 1 5 2h4v2h-8q-3 0-5 3l-6-4v-3l-3-1-3-8q1-9 5-16l2-8-2-2 1-5zm0 25 1 2zm-1 2q-2 7-2 14l2 1 1-15z"/><path fill="#4b4000" d="m7 50 11 10-6-2-2-3q0 6 4 10v3l2 1 7 5-9-4q-4-3-10-3 3 9 12 13l-3 1-2-1-5-1H2l4 1h3l-3 2 6 5-1 2q-7-1-11-7v-5l6-1-1-1q-4-4-3-10l7-1-2-3z"/><path fill="#1b1700" d="M19 139q4 3 5 8l4 11 1 2 3 3-2-9q4 4 6 10l-2 3h-2l1 3 2 4v2l2 7 2 1-4-1-1-2v3l7 2-1-4 2-1 1-3h2l-2 9-5 1 1 1 1 1 5 4h-2l1 1 2 4 3 1-2 1q-6-4-6-7l-4-2v-2l-2-1-4-4 2-8-2-6-4-10-6-15z"/><path fill="#d1b000" d="M141 151q3 2 3 6l1 3 1 9-6-2-1 5-5-2v-5l3-1-2-3-2 2-5-3 1-2 4-1 1-1-2-2 2-1v-2z"/><path fill="#9e8500" d="M167 151h2l1 2h2v6h2v3l2 1q4 3 4 8h-2v2h-8l-1-5h-2l-1 2-2-1-1-5v-4l4-1-2-5h2z"/><path fill="#432c0a" d="m93 141 6 1 1 4-3 3 9-3 2 4-1 2h15l-1 4-5 1v-2l-2 1-4-1-1 2v-2l-6 2v-4l-14-3-5-1q-3-2-2-5v-2l1 4h7z"/><path fill="#e5c100" d="M96 176h1l-2 12-4 8v11q2 4 5 4-2 3-6 2h-3q-2 0-5-3v-2l4 1 1-14h-3l7-12 1-2z"/><path fill="#b49800" d="M156 101h13l2 4q-2 3-5 2h-3l2 5q-5 2-11-1l1 4-5-3-1 7-3-3v-2l-2-1 3-3-2-4 5 3 2-2q3-4 8-4z"/><path fill="#090800" d="m16 30 9 14c4 9 4 9 11 14l4 7 4 2q4 2 7 7l2 1 10 15v2h-2l-1-3q-4-8-11-14l-2-2-3-2q-5-3-9-9l-2 1-2-3-13-22-4-4-2 9h-1c-1-7-1-7 3-11z"/><path fill="#d0af00" d="M102 180v2l1 3v3l2 5 1 15-2 1-2 5h-4l-2-6h2v-27z"/><path fill="#785f00" d="M92 82h3l1 11-2-3-1 6h3l1-2v2h6l1-2 6 2 1-3v3l3-1 10 1v1H76v5l-7-1-1-6q10-2 19 1l2-8h2z"/><path fill="#d5b300" d="m11 90 2 1h6l9 2h-2v3h-7 2l2 1h3l2 1 1 2c-18 1-18 1-23-2l-3-3v-4z"/><path fill="#493e00" d="M179 50q0 5-4 10c-4 4-4 4-6 9l7-7 3 1-5 4-3 3-4 3 1 2-2 1q-6 3-11 8l4-1-2 4h-3l-7 2 1-1c5-5 5-5 6-11l-1-3 3-1 5-2-1 2-2 5q4-3 6-7v-2l1-1-1-6 2-1v2q6-3 9-8l2-3z"/><path fill="#120f00" d="m39 120 3 2-2 3-3 3-1 2q-4 3-4 8v3h6l1-2 4-9 2-3 1-2h5l-2 2-5 7-1 3v5l1 2 1 2-6-4-2 1h-6l-3-6-5 1 7 14-1 3-6-12-1-2-1-5 3-1q7-2 10-8l1-2z"/><path fill="#e4bf00" d="M114 184q8 3 13 8 4 8 1 16-2 3-5 2l-4-2-4-2q4-3 9-4l-1-4-6 1-1-3 3-1-1-7z"/><path fill="#9e1d1c" d="m103 113 2 7v10h2q3 1 5 5v8l-1 2-1-3-3-1v3l-9-6 2-6h3v2l1-1-2-10-1-9z"/><path fill="#e3e2e2" d="m86 121 4 1 5-1c1 10 1 10-2 14l-4 1-1 11h-2l1-14h2l-1-9h-1l-1 3q-1 5-5 7v-8q0-6 4-5"/><path fill="#d6b400" d="m197 91 1 2c-6 7-6 7-11 7h-16l1-2 5-1 2-1h2-7l1-3q10-5 22-2"/><path fill="#726000" d="m68 24 3 2h-2l1 3 2 11 3 1h-7l-2 2 9 2v2H62v-3h-2c0-8 0-8 2-11l5-1v-3z"/><path fill="#695800" d="m17 76 12 5 6 2-7 4 3 3 3 1h3l2 1v1l-9 1 1 4q-8 0-17-2v-1l12 1v-3l2-2-16-6h8v-2l-2-1 8 2v-2l-2-1z"/><path fill="#4f4300" d="M17 65q6 2 10 6l4 1-3-4 2 1 2 1 2-1 2 3 7 7-2-2-1-6 2 2 1-2 4 4v5q1 4 4 7h-3l-3 1-1 2-1-2-5-7 2 1 5 1-4-3-2-2-6-2v4l-10-5 4-1-2-2-3-2-3-2-2-2z"/><path fill="#080700" d="m153 69 1 3-3 2-3 4-2 1c-4 4-4 4-6 9l1 6 2 1 1 6-3 5q-6 2-12 0l-5-3 2-1q4-2 5-6h-6v-2l8-2 1 6-4 5h9l2-2q0-4-3-7l-1-5q2-6 6-10l2-2 4-4 2-2z"/><path fill="#b79a00" d="M139 47v2l2 1q-4 9-12 15l-4-1 2-1-2-3 5-4v3q4-2 4-5l-2-1h2v-2h-10q-5 1-11-2v-1z"/><path fill="#1b1700" d="m92 45-3 4v4h-2v2l10 2-1 3h-3l7 14 2-5q2 6-1 11h-2l-1-2-7-16v-2l-2-1-2-3-6-5 4-2-9-2 3-3q6-1 13 1"/><path fill="#372f00" d="M110 31v2q3 6 8 8l5 2 2 1v3l-16 1-1-3h4q-6-6-16-6l-1 2v-3l10-1v-2h2l1-3z"/><path fill="#8b7500" d="M152 21q6 1 6 4l1 2-7 1 1 2c2 9 2 9-1 13l-5 2-2-1 2-2q1-5-2-11v-5l6-4z"/><path fill="#a58a00" d="m61 47 26 1q-5 5-12 5l-8 1 2 5-3 1-3-3-2-2q-2-1-2-6h2z"/><path fill="#debb00" d="M170 101h12q8-1 14 3l-4 5h-11l-10-2v-1h11v-2h-10z"/><path fill="#a98e00" d="m44 28-3 2v4l-2 18-2-1 1-7-1 1h-7v-3h5v-3l-4-2v-5q6-5 13-4"/><path fill="#433800" d="M156 28c8 0 8 0 12 3l1 2-3 8 2-1h3l2 2-1 5-3 2v-3h-5v6l-2 1-1-9h3l-1-1q0-5 2-9v-2h-2v2h-2q-3 6-3 13l-2-2 1-7 1-9z"/><path fill="#e1be00" d="m129 172 2 1q10 9 23 8l4-2 1 3-1 1 4 2-2 1 3 2-4 1-5-3q-6-3-14-3l-5-2-6-1h-5l2-7 2 1z"/><path fill="#0f0c00" d="m114 159 4 1h3l2 1 1 8-4 3h6l-2 8h2q17 0 31 7h11l2 1q-8 3-16 1l-2-1q-6-4-12-4l-18-3 1-6-6-2-1-5h5v-5l-3-1h-6z"/><path fill="#bea000" d="m125 142 3 3v2l7 2v5h-3v2l-5 2v1h-6l-4 1-6 2 1-6 8-1 5-4v-9"/><path fill="#e1bd00" d="M20 101h9l-1 3H17v2h12l-1 2q-12 3-22 0l-2-4q7-4 16-3"/><path fill="#e4c000" d="m167 77-2 7 6 2v-2h2l-1 5q-7 4-16 4l5-4-3-1-1-4-4 1c8-8 8-8 14-8"/><path fill="#a28800" d="M74 142v8h2v2l3 1q-4 6-11 7v-2l-2 1-5-1v6h-1v-2l-2-6 4-3v3l3-2v-5l3-1z"/><path fill="#756200" d="M39 115h2v4l6-1v5l6-1 3 4 5-5 2 6 5-1-2 4h-5l-2 6h-1v-7l-3 1-4-2-3 9v-7l1-2 1-2h-6l-5 5 4-8-2-1q-2-2-2-5z"/><path fill="#f2cc00" d="m9 54 2 1 2 2 2 1 4 3 7 5 3 3 5 5-16-8 10 8-1 2c-14-7-14-7-17-15z"/><path fill="#b29500" d="M96 14v12l5-1 6 4-5 1-2 1h-8v-3h-3l-2-2 1-4-1-3 3-4z"/><path fill="#ba9c00" d="M164 161v8l5-1 1 3-1 2h-9l19 1v-2h2l-1 3q-6 2-11 1h-4l-10-1q-1-6 4-11 1-3 5-3"/><path fill="#110f00" d="m199 80-2 6-3 2 6 2q0 5-3 7l-5 2v2l5 2v4l-6 4 2 2 1 2-1 3-3-1h2l-1-4-14-3v-1h9c6-1 6-1 10-5l-12-3v-1l2-1q7-1 11-6-4-2-9-2h-4l6-4z"/><path fill="#a88d00" d="M77 53q5 0 10 2l9 13q3 8 3 16l-1-2-2-4-1-2-1-2-1-4q-2-4-6-7v11q-3-4-4-9l-1-3 1-4-1-3z"/><path fill="#715f00" d="M129 33v10h6l2-2 3 1v2h-2v3l-26 2-1-2h14l-2-3q-2-4-2-9 3-2 8-2"/><path fill="#231d00" d="m104 168 1 6q4 7 10 11c5 4 5 4 5 8v2l-4 1 1 2 7-1 1 5q-3 2-8 2l1-4-3-1v-3q-2-7-6-11l-5-7h-2v-8zm9 19 4 7 1-3-3-4zm7 13 1 2 1-2z"/><path fill="#352d00" d="M128 23h7l-1 8h2q4 1 6 4l-1 7h-1v-3q-1-5-3-5l-2-1v9h-2v-2l-3 1-3-8-5 2v-2l7-2z"/><path fill="#9c8300" d="m45 21 10 5-3 17-4-2V29l-7-3z"/><path fill="#180901" d="m107 141 2 1h2l1-1h2l2 4 3-3 3 1-2 2 2 1v3l-4 1h-8l-1 2h-2l-1-4-9 1 1-3h2l1-3 6 1z"/><path fill="#0b0a00" d="m121 182 1 1 2 1 2 2 5 1v-3l6 1 1 8 2 5q0 6-3 11h-2l-4-1-1 1q-3 3-7 3l-2-1h-2l-3 3h-2l1-4q3-3 8-1h4l3-4 1-2 1-2 3 4 2-2-1-7v-4l-1-5-1 2-4 1q-6-2-11-6z"/><path fill="#0c0a00" d="M68 123h1v2l3 5v12l2 1-5 5v-7q2-4 0-10l-6 1v10l-5 3-6-4-5 5-2-1 2-1q4-4 4-10l1-2 1-5q2 2 2 5v9h6l1-6v-6l5-1z"/><path fill="#977f00" d="m20 50 11 12 4-1 3 4 2 3q3 2 3 6l-3-1 4 5-1 2-4-3-2-2-5-6-4-6c-8-10-8-10-8-13"/><path fill="#0e0b00" d="M131 122h1l-1 9q-2 8 1 15h6l1 2 2 1 5 5 1 6v5h3l-2 5h-6l4-1-2-3v-9l-3-5-7-1v-2l-3-1q-3 0-4-4l-1-2h2v-13l2-1z"/><path fill="#ccac00" d="m62 158 8-1v2h3l-2 1q-2 2-2 5v8l-2 1-1-9v5l-5 2-1-5-3 2v-11z"/><path fill="#e0bc00" d="m41 122 3 1-4 7 4-5 2 1-8 15h-6q-2-4 0-8l4-5 1-2z"/><path fill="#a78c00" d="M103 81h2l1 3 2-3 1 8 2-2 2 7-2-11h2l2 5v3l1 5h-15l1-4-1-2z"/><path fill="#c7a700" d="m163 64 2 1v7l-5 5-2 2-2 1 3-7-4 3v4l-1 2h-2v-5l-5 7-2 3-4-1 7-10 2-1q3-4 8-5l3-3z"/><path fill="#2a2300" d="M127 164h1l1 5 2-1 1 5 1-2 4-1 1 1 2-6q3 4 2 9h-6q8 5 18 5l1-4h6l-4 1 1 3q-3 3-7 3-10 0-19-6l-2-2-3 1-2-4z"/><path fill="#a88e00" d="M142 116h2v2h2l3 5 5-3 1 5-5 1 1 2 1 2v7l-4-9-2 2h-3l-1 6-3-11v-8l3 3z"/><path fill="#635300" d="M104 25q4 1 7 4-1 4-5 6l-3-1-6 1-3 1-3 3v-3q0-5-4-7l1-3 5 2v2h5l3-1 4-1z"/><path fill="#110e00" d="M66 23h6l-1 8h3l5 3v5l-1 2v2l5-3 3-1 3-4v-2l1-2 1 4q1 3-2 5l-3 2-3 1-8 4v-2l2-10-4-2-1 3v-3l-3-1v-7 2l-2 6-5 1-2 8-2-2q-1-5 3-8l5-1z"/><path fill="#786600" d="m44 181 3 1 5 1-2 2h-3v3l3 1v11l-4-1v-2l-3-1-1-3-3-2-3-2v-3l6 1z"/><path fill="#dab700" d="M168 109c17-1 17-1 23 4l1 4q-6 3-13 0l-6-2-3-1-2-1 7-1-7-2z"/><path fill="#d9b800" d="M93 73v2l2 6h2l2 5 1 3-2 6-1-1-1 2h-3v-4l1-3v-4l-4 6-2 5-2-1v-5h2v-5l1-3 1-8z"/><path fill="#e0bd00" d="m163 115 3 1h7q4-1 6 2l2 1 5 4v4h-9l-3-3-3-2z"/><path fill="#554700" d="m173 84 4 1-2 2 2-1 3-1h8l-16 6 12-1v2h-2l-2 1h-3l-2 1-1 2 3-1h8l-13 4 12 1v1l-7 1h-2l-12-1 8-4v-3l-4-3 2-1 4-4z"/><path fill="#e4c000" d="M46 110v3l3-2 2 1 1 5h2l4-1v7l-3-1-2 2-1-1h-5l-1-4-2 1-3-1-1-5z"/><path fill="#120f00" d="m61 199 1 2 3 4 4-4 1 3 3 5 12-2-3 1 3 4h10l4 5 6-3-2 4-5 1-2-2q-3-2-7-2-6 0-9-4l-5 1-8-4-4 2-2-4v-7"/><path fill="#6c5a00" d="m170 102 2 1 5 1h5v2l-10 1 5 1v1l-5 1 6 2v1h-8l5 2-3 2 1 2-8-3v-2l-4-1 4-1-2-5 7-2z"/><path fill="#e9c400" d="M156 122q4 0 6 3l2 3 3 3v6l-1 2 1 2h-5l-5-9-3-7 4 2z"/><path fill="#c8a800" d="M110 72h2l1 4 2-1v2q-1 11 6 18l-5 1q-2-6-3-13h-2l1 2 1 2v8c-6-6-6-6-6-11h-1v-5l2-1 1 2z"/><path fill="#aa8f00" d="m109 60 2 1-1 1 2 1-1 3 1 6h-2l1 3q1 5-2 8l-2-4-2 1 1-7-4 10h-1q0-12 8-23"/><path fill="#0c0900" d="M86 173v3l7-1q-1 5-6 6l-2 1-11 6q-2 2-5 2l-4-3-1 5 2 3-2 2-4 5 2-9v-3q-1-4 2-6h5l-1 4c9-4 9-4 15-11l1-2z"/><path fill="#1b1700" d="m62 92-1 2-2 7 4 3 8-2h5v43q-2-3-2-8v-10l1-12h-2l1-2 1-5v-5h-3l-1 3q-5 3-10 1l-5-5q0-5 2-9z"/><path fill="#130f00" d="M12 38h1v2l2 6v2q2 5 5 9l2 2 6 8-4-1-2-2-2-1-1-2c-5-6-5-6-11-10l-1 1c0 6 0 6 3 12l-4-3-1-7v-2q0-3 3-5l5 4-1-2z"/><path fill="#a2a8af" d="M88 101h3v4l7 1v-2h-3v-2l7-1 1 4h-1v6l3 1v2l6 2-4 2-2-2-4-2-1 4-1-2 1-3-2-1h2l-5-5h-2v3l-5-1z"/><path fill="#0d0b00" d="M73 64q7 3 9 11 2 4 1 8-3 7-6 7h-2 7q-1 3-4 5H68l3 7-4-2-1-6 3-3 2 2h4l-1-1q-3-1-2-6h6q3-5 2-11-2-6-7-9z"/><path fill="#d2b100" d="m70 172 3 2 3-1 2 7H68l-12 4h-2v-3l-4-1 2-1q9-1 17-5z"/><path fill="#534100" d="m78 152 17 2-4 1v6l1 3 3 10q-3 3-7 3h-3l2-3q3-3 2-7t-5-7h3l-2-5-6 1z"/><path fill="#181400" d="m46 27 1 2-5 2 1 7 1 4q1 4-2 7v6l-6-3v-5l-5-1-1 3-3-5 2-4 6-1 1 5 3-1-1 8q4-5 3-11l-1-2V27z"/><path fill="#bc0202" d="m119 129-3 7h4v-4l3-1v15h-5l3-3-5 1-4-14z"/><path fill="#dbb900" d="m48 126 2 1-2 8 3-7h2c-2 12-2 12-4 15l-5 2-3-3z"/><path fill="#f4ce00" d="m195 81-5 5-2 2q-8 5-18 4 4-3 9-5l3-1 3-1-11 3q1-3 4-5 9-2 17-2"/><path fill="#debb00" d="m150 126 4 3 2 3 1 3 1 8-3 2q-4-1-6-5-2-6-2-13 4 3 5 7z"/><path fill="#796600" d="M88 63q9 8 10 21l-1-3h-2l-4-6v2l-1 3v3l-2 7h-2l1 6-5-1 1-2q6-10 5-21l1-4z"/><path fill="#ebc600" d="m162 117 10 8 2 1 4 4-1 4-5 1-5-5-2-2-4-8 7 6-2-2z"/><path fill="#1a1500" d="M66 163h1l1 12c-13 6-13 6-19 5l-4-5h-6v-2l-2-1-2-7h2l1 3 2 4 7 2 2 2q2 3 6 2l7-4h-4v-6l2-2 2 5 3-1v-3z"/><path fill="#2f2700" d="M174 160q6 3 9 10 1 4-2 7c-5 8-5 8-8 9h-2l3-4h-2l-1 2 1-5 4 1 3-4-3-1h2l2-1 1-2h-2v2h-20l2-3v2h2l1-2v2h2l1-2v2h2l1-2v2h2l1-2v2h2l1-2v2h2v-2l-2-2h3l-5-7z"/><path fill="#1f1a00" d="M118 50h17l-1 3h-19l-2 4-2 2-2 4-6 8c1-7 1-7 3-10l-4-2v-2l9-2-2-5z"/><path fill="#a68c00" d="m12 111 3 1v2h3l-1 9v3h-4v-2H6l-1-5 3 1v2h2v-2l-2-1 1-3 3 2-1-3H9l1-3z"/><path fill="#b29500" d="M34 166q5 3 6 8h2l-2 7h2l-1 5-7-1-1-4 2-1 1 1-1-4q-3-4-3-10z"/><path fill="#423700" d="M118 77h1l2 8 7 1-1 5-3 2 1 2-6-2q-4-5-4-10z"/><path fill="#1c1700" d="m192 59 1 4-1 1 6 1q0 7-4 11l6 1-1 4-1-2-11 1 2-2q4-3 4-8l-2-2q-3 0-7 3l-2 1-2-1 2-1c6-5 6-5 10-11"/><path fill="#0e0c00" d="M146 34q3 2 2 5 1 3-2 5l1 2-4 2 3 1 5 5-2 8 4 1v-2h2l-1 5-1-2-5 1-3-5h3v-6q-3-2-8-2c-2-5-2-5-1-8l6-2z"/><path fill="#ac9100" d="m119 56 2 1 4-1-1 4 4 3-2 1q-5 6-8 12l-2-4-3 1 1-5 6-1v-2l-2-1 1-2h-2z"/><path fill="#b29600" d="M163 32h2l1 4-2 2v5l6 1v1h-8l1 3-1 6-4 1V45q-1-6 3-11h2z"/><path fill="#dab800" d="m84 154 4 3 1 5-2-1H77v6l1 5-5-2q-1-5 2-11l-2-1q4-6 11-4"/><path fill="#ccab00" d="m74 115 1 9v14l-1 4h-2v-6l-1-3q1-3-2-5v-10l2 2z"/><path fill="#edc800" d="M72 103h3v11l-3-4-1 5-3-1h-3l-1 1h-5l2-5 2 1 1-3 7-3z"/><path fill="#c8a900" d="M32 75q8 2 15 9l-2 1-6-3 2 1q3 2 2 5v2l-2 1-5-2 5-1-6-3v-2l-5-2 2-3z"/><path fill="#7d6900" d="m87 193 1 9-1 3-1 4-2-1v-3h-3l-6-3 1-5 6-1 5-1zm-10 7 1 2h2v-2z"/><path fill="#171300" d="M175 116h5l1 1 5 1h4l-4 2 1 2 1 6-8 1v7l-2-1v-2q-2-5-8-9l-1-2-5-4q6 1 11 6 6 3 11 3l-4-7-3-1z"/><path fill="#f7d000" d="M5 81h6l4 1 5 1v2h-6l16 6v1q-12 1-21-6z"/><path fill="#af9300" d="m108 15 6 3-3 11-5-2v-2l-3-1v-5h4z"/><path fill="#f2cc00" d="m36 117 2 1-8 9 8-6-6 9-2 3-2 2-5-1q0-5 4-9l3-3 2-1z"/><path fill="#5b4d00" d="m70 63 4 3h-5l-5 1-4 5-1-3-4-2h-6l-1-2q11-5 22-2"/><path fill="#f2cc00" d="M114 52h9q6 0 11 2l-1 4-5 2v-2l-6 4 2-5-2 1h-4l-3 2 2-5 5-1-8-1z"/><path fill="#f4cd00" d="M78 52h8v1l-4 1 3 4-1 2-3-3-2 1-3-1 3 4-1 2-7-6 1 3q-4-1-5-4l-1-2q6-3 12-2"/><path fill="#f2cc00" d="M157 176h22l-2 4-5 1-2 2-3-4-3 1v3l-7-5z"/><path fill="#2a2200" d="M111 156v6l2 1-1 2q-2 3-2 7l2 1 4 3 1 5 4 1h-7l-2-2-3-1-4-7 2-3 1 6h4l-2-1-3-4 2-9 1-3z"/><path fill="#564800" d="m28 98 9 2v1l-6 1-1 3 1 1h7l4-1h3v4l-5 1 1-2h3l-1-1-4 1-16 1v-1l5-1-11-1v-2h5l3-1h3l1-2H16v-1l12-1z"/><path fill="#f0cb00" d="m33 115-6 4 2-1 2-1zl2-1 2 1-9 7-2 2-2 1-5 1v-8l5-3 3-1z"/><path fill="#786500" d="m71 108 2 1 1 5v4h-1l-1 5-2-3-2 4-2-4-2 3v-5h-2l-1 2v-3h-2l-1 5-1-4 2-3h3l3-3 1-2 1 4h4z"/><path fill="#705e00" d="m178 67 2 1-2 1-2 2-2 2-3 6-2 3 3-1-1 6-1-1-7-1 4-8-6 1q4-4 7-3v-2l2-1 2-1 3-2z"/><path fill="#5e5000" d="M137 62h3c6 2 6 2 13 2l-1 4h-9l-4 4-1-2q-2-4-6-5v-1l5-1z"/><path fill="#120f00" d="m101 174 6 13 1 3q3 9 2 17l-4 2-1-14h1l1 6c0-5 0-5-2-8q-4-4-3-8l-2-9z"/><path fill="#080700" d="M85 160v1l-3 1-3 1-1 4 6 1-2 5-4 1 1 2 1 3-1 2h-7q-10 0-18 6l-2 1-2-1 8-5q5-3 12-2h8l-1-2-1-5 4-2-4-2 1-8z"/><path fill="#e7e7e7" d="m93 107 7 1v2q-1 7 3 13l1 4v4l2 1-1 3q-4-2-4-8l-1-2v-2h-2c-3-9-3-9-3-14h-2z"/><path fill="#eac500" d="M141 51c6 1 6 1 8 3v6l-2 1-2-1-12 1 1-1 2-2 1-2zM59 51l4 4 2 2 2 4h-2l-11-1h-3l1-8z"/><path fill="#120f00" d="m156 20 4 4q3 4 9 5l1 4v3l-2 1-1-6-4-1-3-1-5 1-2-2 1-2h4l-4-4-8 4v8q-4-3-3-8l3-3 2-2q4-2 8-1"/><path fill="#dcba00" d="M56 129h2l1 3 2-3 1 4v8l-5 2-3-2q-1-7 2-12"/><path fill="#161200" d="M47 34h1v3l1 4 3 2v-3h2l1 1q3 3 7 3l-1 5h-2v2l-3 1q-3 0-4 5l-1 3-2-1c0-6 0-6 3-9l6-1v-2l-2-1h-3l-3-1-3-3z"/><path fill="#141000" d="M139 121h1l1 7-2 2v11h6v-12l3 4 1 3 4 9-5-4-6 4-5-3v-10l-5-2 6-2z"/><path fill="#5f5000" d="m35 110 1 3 7-1-1 1q-2 2-2 6l-1 3-4 2-4 4-2-1 8-9-2-2-2 1-2 1-2 1-2 1-2-1 6-4-1-2h-8q6-4 13-3"/><path fill="#e4e4e4" d="M115 108h2l2 10-5-1-1-2-1 3h2v4l-10-1-1-6 3 1 5 1 1-6h2z"/><path fill="#0d0b00" d="M166 150h6v3l-3 1v-3h-2v3l-1 1 1 4-2 1-2 1-2 2-4 5 2 2h-4v6l-2-5q2-7 7-11l3-2v-7z"/><path fill="#e2be00" d="M119 159q4 0 8 2l2 2 4 1v10l-2-1-1-4h-3l-3 4-5-1 4-3v-8z"/><path fill="#332a00" d="m160 120 2 2 2 3 2 2 2 3 2 2q2 3 5 2h2v-3h2l-1 6-8-1-2 5-5-1 4-4q-1-6-6-10l-2-2-1-2z"/><path fill="#eac500" d="m90 161 3 2 2-1 5 10 1-2 3-4-3 9q-3 0-5-4l-1-3 1 3-1 6-6 6-4-2 3-2 6-4q0-6-3-10z"/><path fill="#7d6900" d="m78 159-2 2q-3 4-2 9l4 2v-2l3 1-3 3h-2l-2 1h-2l-1-2-3 2v-13c7-4 7-4 10-3"/><path fill="#ddba00" d="m139 129 2 4 2-4 2 1 1 6v5l-5 2-3-2v-9z"/><path fill="#bab7b8" d="m95 123 4 3-1-3h2l2 9h-2l-1 6 6 5q-6 0-10-5-2-7 0-15"/><path fill="#130f00" d="m145 59-2 2 5 3-2 1-2-1h-12v2h-3q-4 0-6 3l-4 7-3 3v-5h2l3-4q2-6 9-7l3-2q5-3 12-2"/><path fill="#ececec" d="M106 123h6l1 1v3q1 10 4 19l-3-1-1-5q-1-5-5-9l-3-1z"/><path fill="#0c0a00" d="M179 40q0 6-4 10l-8 13-2-1-1 2-2 2-1 2-6 4-1-4h2q3-2 5-5l5-6 7-8z"/><path fill="#f3cd00" d="m59 117 5 1 1 2 2-3 1 4v5l-2 2-4-1-2-3-5 3-1-5 2-1v2h2z"/><path fill="#094f98" d="m87 105 2 4h6l-1 6q-4 2-10 1l-1-7z"/><path fill="#786500" d="m166 178 5 5 3-1-1 3h-2v2h-8q-3 1-5-2l-1-2 2-4 5 4v-3h2z"/><path fill="#181400" d="M149 125h5l5 9 3 7h6l1-5h2l-2 7-4-1h-4l-4 4-4-1 4-2q0-9-5-16z"/><path fill="#120f00" d="m8 87 17 5v1h-4l-8-1-2-1H8l-5 1q1 4 5 6l8 2v1h-2l-2 1H9l-6 2 4-4-3-2-4-6v-2l8-1z"/><path fill="#977f00" d="m74 55 2 1 6 1 1 5-2 1-1 2-7-2v2l-5-2-1-4h4v-3l7 6z"/><path fill="#988000" d="m106 35-1 2 2 1h-2c-7 0-7 0-13 4l-2 2h-5v-3q5-4 9-5l2-1 3-1 2-1z"/><path fill="#161200" d="M2 104h2l2 2q4 4 9 3h7v1h-2l-3 1h-3l-5 4h2l1-2v5l-3-1-1 2 3 1-1 2H8v-2H6l-2 3-1-6h2l4-6-3-2q-3-2-4-5"/><path fill="#0d0b00" d="m67 61-1 2h-3q-7 0-14 3h8v2c-6 1-6 1-10-1q-2-1-2-6l6 1-1-2q9-3 17 1m-13 1-1 1 8-2v-1q-4 0-7 2"/><path fill="#b60606" d="M95 133v5l2 1 6 5-10-2-3 5-2-1c0-7 0-7 2-10q3-4 5-3"/><path fill="#aca3a4" d="M104 121c7 0 7 0 11 2v4l7-1-2 10h-4l1-2 2-5-7 1v-6l-6-1 1 4-3-1z"/><path fill="#9e8600" d="m134 32 6 3v7q-6 3-13 2l-1-2h3l1-2h3v-1z"/><path fill="#181400" d="m68 146 1 2q-4 4-7 3l-5 3v6l-3 9 4 1h-6l-2-4 3-1v-2l3-12q2-2 6-2v-2z"/><path fill="#766300" d="m134 110 2 4h3l2-3 1 4h3l-1 3v-2h-2l1 6-3-3v2h-2v-3h-2v5l-3-6-6-1v-2l6 1z"/><path fill="#f3f2f2" d="m112 104 2 1 1 6-3 2-1 3-6-2v-5q4-6 7-5"/><path fill="#0d0b00" d="M44 20q7 0 12 4 3 6-1 11l-2 5q-2-4 1-9v-5l-8-4-4 3q-3 4-8 6l-4 4 1-6 6-2 5-4z"/><path fill="#a38900" d="m71 33 6 1v8l-2 3-11-2q4-4 7-3v2l3-1-2-1z"/><path fill="#534600" d="m157 112 8 2-2 4 7 8-1 2-7-7-5 2 2 2 1 3-1 2q-6-5-7-13l2 1 5 1 1-4z"/><path fill="#f5ce00" d="M98 183h1v26l-3-1q-3-12 2-25"/><path fill="#dcb900" d="m133 116 2 4 1-2h2l1 10-2 2-5-1v-9z"/><path fill="#eec800" d="m113 62 2 4 4-4 1 5-5 2v2l2-1-1 14h-1l-1-8-2 4v-5l-1-3-1-4z"/><path fill="#e6c200" d="m43 174 3 1 1 4 7 2-1 5-6 2v-3l3-1-5-1v-5h-2v3h-3z"/><path fill="#dab800" d="m43 106 1 2-1 1 2 1c-5 4-5 4-8 4l-2-1h-2v-3l-4 1q-4 1-8-2l7-1z"/><path fill="#553f00" d="M106 72v13l-1-4h-2l-1 4v3l1 5h-2v3h-4l2-6V80h3z"/><path fill="#0d0b00" d="M192 47q3 3 3 5v5l-2 4-1-10-5 4-3 3-4 4-3-1 3-4 2-3 2-2h3z"/><path fill="#0f0c00" d="m94 177 1 2-2 3-4 6q-5 3-4 10l-1-2-4-1v-5l7-7 2-2zm-12 12-1 4h2l2-5z"/><path fill="#937c00" d="M115 53h8l-2 2h-3v5l-2 7-3-4-4-1 2-3-2-1 2-1z"/><path fill="#625200" d="m136 156-1 2-6 1 4 3 2-3 2 5-2 1v6h-2l-1-2-5-6-3-4q5-5 12-3"/><path fill="#eec900" d="m66 151 1 4-6 2v-3q-3 2-3 6v6l-1 3h-3l1-3v-6l3-9z"/><path fill="#ebc600" d="M15 110h10l-1 2h8l-8 4h-3l-2 1-1-1q-2-2-5-2z"/><path fill="#0d0b00" d="m183 31 4 1q4 6 2 14l-3 6-2-1 1-2q2-6 1-13l-3-2-2 6h-2z"/></svg>