<?xml version="1.0" encoding="UTF-8"?>
<!DOCTYPE svg  PUBLIC '-//W3C//DTD SVG 1.1//EN'  'http://www.w3.org/Graphics/SVG/1.1/DTD/svg11.dtd'>
<svg enable-background="new 0 0 246.844 254.182" version="1.1" viewBox="0 0 246.84 254.18" xml:space="preserve" xmlns="http://www.w3.org/2000/svg">

	<path d="m231.34 91.021c0-21.5 9.313-36.875 15.5-48.063-6.093 0.286-21.898-5.384-30.146-15.688-5.041-6.298-8.308-15.12-9.026-26.906-6.203 8.406-23.391 19.094-36.359 19.094-17.552 0-36.094-6.563-47.891-19.458-11.797 12.896-30.339 19.458-47.891 19.458-12.969 0-30.156-10.688-36.359-19.094-0.72 11.786-3.985 20.608-9.026 26.906-8.247 10.304-24.053 15.974-30.146 15.688 6.188 11.188 15.5 26.563 15.5 48.063 0 14.518-3.292 24.838-6.813 34.375-2.89 7.828-7.313 16.562-7.313 33.916 0 34.412 16.98 54.587 38.438 66.459 27.087 14.987 59.413 16.94 74 21.75 4.874 1.605 8.96 5.634 9.609 6.66 0.649-1.026 4.735-5.055 9.608-6.66 14.588-4.81 46.914-6.763 74-21.75 21.457-11.872 38.438-32.047 38.438-66.459 0-17.354-4.423-26.088-7.313-33.916-3.517-9.538-6.81-19.857-6.81-34.375z"/>
	<path d="m226.7 125.52c-3.317-8.294-6.75-15.396-6.75-28.583 0-19.917 6.083-33.917 11.915-48.417-6.457-0.75-28.957-12.5-31.415-29.833-2.845 2.5-15.167 10.917-35.335 10.917-25.332 0-41.691-14.01-41.691-14.01s-16.359 14.01-41.692 14.01c-20.167 0-32.489-8.417-35.334-10.917-2.458 17.333-24.958 29.083-31.416 29.833 5.833 14.5 11.916 28.5 11.916 48.417 0 13.188-3.433 20.289-6.75 28.583-3.665 9.164-7.25 19.535-7.25 35.583 0 34.698 23.384 53.215 47.75 62.417 21.692 8.191 40.977 9.87 49.917 12.25 5.982 1.592 10.766 3.971 12.875 6.391 2.109-2.42 6.861-4.799 12.844-6.391 8.94-2.38 28.225-4.059 49.917-12.25 24.365-9.202 47.75-27.719 47.75-62.417-1e-3 -16.048-3.586-26.419-7.251-35.583zm-103.25-98.854c5.458 3.854 23.917 11.792 41.833 11.792 13.875 0 26.75-4.938 30.958-8.146 2.417 6.333 10.792 16.708 23.834 22.458-1.125 1.917-9.354 24.333-9.354 41.063 0 19.073 6.883 33.283 11.081 47.082l-166.63-108.05c6.032 2.766 15.95 5.592 26.449 5.592 17.916 0 36.375-7.937 41.833-11.791zm40.75 195.19c-16.05 3.526-34.994 5.48-40.776 10.728-5.782-5.246-24.675-7.2-40.724-10.728-4.579-1.006-8.935-2.553-12.666-3.833-24.775-8.508-48.104-24.883-48.104-58.813 0-14.378 6.963-27.202 11.154-42.993l152.32 98.501c-2.807 1.217-5.662 2.316-8.541 3.306-3.732 1.28-8.088 2.827-12.667 3.832zm30.073-11.527-159.25-102.98c0.717-4.247 1.158-8.726 1.158-13.515 0-16.729-8.229-39.146-9.354-41.063 8.85-3.902 15.543-9.933 19.692-15.386l178.01 115.42c0.281 2.107 0.447 4.234 0.447 6.398-1e-3 25.729-13.415 41.357-30.699 51.122z" fill="#bbb"/>
	<polygon points="53.531 54.267 53.531 107.69 62.219 113.33 62.219 78.641 79.656 124.63 92.469 132.94 92.469 79.515 83.406 73.638 83.406 109.22 64.406 61.318" fill="#bbb"/>
	<polygon points="105.78 141.57 105.78 88.146 115.47 94.427 115.47 114.33 136.34 127.4 136.34 107.96 145.72 114.04 145.72 167.47 136.34 161.39 136.34 139.33 115.47 126.4 115.47 147.86" fill="#bbb"/>
	<polygon points="158.97 176.06 158.97 122.64 169.59 129.52 169.59 171.98 193.97 187.78 193.97 198.76" fill="#bbb"/>
	<g fill="#161413">
		<path d="m232.23 230.17c-3.514 0-6.355 3.289-6.355 7.362 0 4.051 2.842 7.356 6.355 7.356 3.516 0 6.357-3.306 6.357-7.356 0-4.073-2.842-7.362-6.357-7.362zm0 13.134c-2.758 0-5.001-2.581-5.001-5.772 0-3.197 2.243-5.792 5.001-5.792 2.762 0 5 2.595 5 5.792 0 3.191-2.239 5.772-5 5.772z"/>
		<path d="m234.83 235.83c0-1.383-0.967-2.502-2.16-2.502h-3.064v8.41h1.365v-3.426h0.98l1.381 3.426h1.498l-1.428-3.563c0.826-0.341 1.428-1.269 1.428-2.345zm-2.16 0.912h-1.699v-1.843h1.699c0.449 0 0.802 0.411 0.802 0.931 0 0.504-0.353 0.912-0.802 0.912z"/>
	</g>

</svg>
